<?xml version="1.0" encoding="UTF-8"?>
<svg id="Layer_1" data-name="Layer 1" xmlns="http://www.w3.org/2000/svg" viewBox="0 0 800 1247">
  <rect width="800" height="1247" rx="20" ry="20" style="fill: #fff; stroke-width: 0px;"/>
  <g>
    <path d="M318.1,819.7s0,0,0,0c4.6,15.5,6.1,32,6.2,48.5,0,0,0,0,0,0,0,0,0,0,0,0,0,7.3-.2,14.6-.6,21.8-.1,2.8-.3,5.7-.4,8.5-1,19.8-2.1,39.6-.7,59.4,0,.4,0,.8,0,1.2,1.3.2,2.5,1,3,2.4.7,1.9-.3,4-2.2,4.7-.2,0-.4.1-.6.2,0,4.1-.2,8.1,0,12.2v.2c0,.2,0,.4,0,.5,0,.6,0,1.3,0,1.9,0,1.5.2,3,.4,4.4,0,.2,0,.5,0,.7.7,5.6,2,11,2.6,16.6,0,.1,0,.3,0,.4,0,.2,0,.3,0,.5,0,.3,0,.5,0,.8,0,.2,0,.3,0,.5,0,.1,0,.2,0,.4,0,.6,0,1.2,0,1.9,0,0,0,0,0,0,0,.3,0,.6,0,.9,0,.2,0,.3,0,.5,7.1-4.7,19.4-16.9,19.3-45.7,0-7.6,0-13.7,0-18.6-.3-.2-.7-.5-1-.8-1.3-1.2-2.1-2.9-2.2-4.7,0-1.8.6-3.5,1.8-4.8.4-.4.9-.8,1.4-1.1,0-1.7,0-3,0-4-2.3-1.2-3.8-2.6-4.1-2.9-1.1-18.2-3.4-37.6-5.8-58.3-3.5-29.7-8.1-61.1-12.9-68-3.1,2.8-6.1,5.8-8.6,8.8.3.6.5,1.2.8,1.8,1.2,3,2.3,6.1,3.2,9.2Z" style="fill: none; stroke-width: 0px;"/>
    <path d="M256.4,719.9c-.3,0-.6-.1-.9-.2l-.5,1.1c.5-.3,1-.6,1.4-1Z" style="fill: none; stroke-width: 0px;"/>
    <path d="M353.6,788.3s0-.1-.2-.3c0,0,.2.2.2.3Z" style="fill: none; stroke-width: 0px;"/>
    <path d="M252.6,726.4l-.6,1.4c.5-.4.9-.8,1.4-1.2-.3,0-.5-.1-.8-.2Z" style="fill: none; stroke-width: 0px;"/>
    <path d="M208.9,742.2v-.2c.1,0,.4.2.4.2,1.7-.2,3.3-.4,3.4-.5.3,0,3.6-.5,6.4-.8h0c0,0,.7-5.6.7-5.6,4.2,2.2,8.4,4.4,12.6,6.7l4.3-10h0s0,0,0,0v-.2c0,0,.4-.7.4-.7l3.7-8.5s0,0,0,0l.3-.7s0,0,0,0l1.4-3.3c-.4-.4-.7-.8-.9-1.4l-40.8,16.1c-.2,0-.3.3-.2.5l3.3,8.3,1.3.7c.1,0,1.8-.2,3.5-.5Z" style="fill: none; stroke-width: 0px;"/>
    <path d="M94.6,976.1l-.4,2c-.2.9,0,1.7.5,2.4.3.4.6.7.9.9l1-7.8c-1,.4-1.8,1.3-2,2.4Z" style="fill: none; stroke-width: 0px;"/>
    <path d="M278,742.1c-.6-1.7-.4-4.4.5-7.4-2.7-.4-6.5-1.6-10.1-3.4l-3.1,1.3c-.3,0-.7.2-.9.2-1,0-2-.6-2.4-1.6-.2-.4-.2-.8-.2-1.2l-1,.6c-.4.2-.8.3-1.2.3-.2,0-.4,0-.6,0-4.8,4.2-8.9,9-11.2,11.7-1.2,1.4-1.8,2.3-1.8,2.3l-1.1,3.7c1.5.8,3,1.6,4.4,2.4,2.8-1.6,5.3-2.8,7.5-3.7,3-1.3,7-3.2,11.5-2.6.3-.2.5-.3.5-.3l.3.5s0,0,0,0c4.4.9,10.1,2.5,15.4,5.1,0,0,0-.2,0-.3-2.4-1.4-3.8-2.1-3.8-2.1,0,0,.2-.8.6-2-1.6-1-2.9-2.2-3.3-3.4Z" style="fill: none; stroke-width: 0px;"/>
    <path d="M344.8,934.9c-1,1.1-1.6,2.6-1.5,4.1s.7,2.9,1.8,4c0,0,.2.1.3.2,0-3.6,0-6.5,0-8.8-.2.2-.4.3-.6.5Z" style="fill: none; stroke-width: 0px;"/>
    <path d="M362.2,938.3c0-1.3-.5-2.5-1.4-3.4l.6,6.5c.5-.9.8-2,.8-3Z" style="fill: none; stroke-width: 0px;"/>
    <path d="M297.5,762.7s1.4,6.5,3.3,16.8c4.5-3.2,8.7-5.2,11.9-6.6,2.8-1.2,6.5-3,10.7-2.7,0,0-.2,0-.2,0-11.9-5.9-22.9-11.8-30.7-16.1,0,.4,0,.8-.1,1.1,2.2,2.1,4.1,4.6,5.1,7.4Z" style="fill: none; stroke-width: 0px;"/>
    <path d="M105.9,1184.4c0,3.3,2.7,5.9,5.9,5.9h0c3.3,0,5.9-2.7,5.9-5.9v-101.4c-4.1-.9-8.1-1.9-11.9-3v104.3Z" style="fill: #c7b299; stroke-width: 0px;"/>
    <path d="M291.6,1184.4c0,3.3,2.7,5.9,5.9,5.9s5.9-2.7,5.9-5.9v-101.2c-3.8.8-7.8,1.6-11.9,2.4v98.8Z" style="fill: #c7b299; stroke-width: 0px;"/>
    <path d="M223.9,1136.6c0,3.3,2.7,5.9,5.9,5.9s5.9-2.7,5.9-5.9v-45c-3.9.2-7.9.3-11.9.4v44.6Z" style="fill: #c7b299; stroke-width: 0px;"/>
    <path d="M211,1086c-78.7,0-143.1-17-148.7-38.6-.3,1-.4,2-.4,3.1,0,11.3,16.1,21.5,42.2,29v105c0,6.9,5.6,12.6,12.6,12.6s12.6-5.6,12.6-12.6v-99.2c23.5,4.3,51.6,6.8,81.9,6.8s7.4,0,11.1-.1v44.7c0,6.9,5.6,12.6,12.6,12.6s12.6-5.6,12.6-12.6v-45.8c15.2-1.1,29.6-2.8,42.6-5v98.6c0,6.9,5.6,12.6,12.6,12.6s12.6-5.6,12.6-12.6v-104.1c27.9-7.6,45.2-18.1,45.2-29.9s-.1-2.1-.4-3.1c-5.6,21.6-70.1,38.6-148.7,38.6ZM117.7,1184.4c0,3.3-2.7,5.9-5.9,5.9h0c-3.3,0-5.9-2.7-5.9-5.9v-104.3c3.8,1,7.7,2,11.9,3v101.4ZM235.8,1136.6c0,3.3-2.7,5.9-5.9,5.9s-5.9-2.7-5.9-5.9v-44.6c4,0,8-.2,11.9-.4v45ZM303.5,1184.4c0,3.3-2.7,5.9-5.9,5.9s-5.9-2.7-5.9-5.9v-98.8c4.1-.7,8.1-1.5,11.9-2.4v101.2Z" style="fill: #998675; stroke-width: 0px;"/>
    <path d="M321.2,1028.1v-1.1s0,0,0,.1c-.1.2-.3.5-.4.7-.1.2-.2.3-.3.5-.2.3-.4.6-.6.9-.2.3-.5.6-.7,1-.2.3-.5.6-.7.9-.2.3-.5.6-.7.9-.2.3-.5.6-.8.8-.3.3-.5.6-.8.9-.2.3-.5.5-.7.7-.3.3-.6.6-.9.9-.2.2-.4.4-.6.6-.4.3-.8.7-1.2,1,0,0-.2.1-.3.2-.6.5-1.2.9-1.8,1.3,0,0-.2.1-.3.2,0,0-.2.1-.3.2-.5.4-1.1.7-1.6,1.1-.1,0-.3.2-.4.3-.5.3-1.1.7-1.7,1-.2,0-.3.2-.5.3-.6.3-1.1.6-1.7.9-.2,0-.3.2-.5.3-.6.3-1.2.6-1.8.8-.2,0-.3.2-.5.2-.6.3-1.2.6-1.9.8-.1,0-.3.1-.4.2-.7.3-1.3.5-2,.8,0,0-.2,0-.3.1-.7.3-1.5.5-2.2.8,0,0,0,0,0,0-2.3.8-4.8,1.5-7.2,2.2,0,0,0,0,0,0-.8.2-1.7.4-2.6.6,0,0-.2,0-.3,0-.8.2-1.6.4-2.4.6-.1,0-.3,0-.4,0-.8.2-1.5.3-2.3.5-.2,0-.3,0-.5,0-.7.2-1.5.3-2.2.4-.2,0-.3,0-.5,0-.7.1-1.5.3-2.2.4-.2,0-.3,0-.5,0-.7.1-1.4.3-2.1.4-.2,0-.4,0-.6.1-.6.1-1.3.2-1.9.3-.2,0-.3,0-.5,0-.3,0-.5,0-.8.1-.3,0-.6,0-.9.1-4.8.8-9.5,1.4-13.9,2.1,0,0,0,0-.1,0-.7.1-1.3.2-2,.3-.8.1-1.7.3-2.5.4-1,.2-2.1.4-3.1.6-18,3.3-39.8,7.3-57.2,3.3-21.9-5-44.7-11-65.2-20.4-10.2-4.7-15.4-13.7-18.4-23.9-26.1,7.5-42.2,17.7-42.2,29s.1,2.1.4,3.1c5.6,21.6,70.1,38.6,148.7,38.6s143.1-17,148.7-38.6c.3-1,.4-2,.4-3.1,0-8.4-9-16.3-24.5-22.8-4.2,3-9,5.2-14.5,6.6Z" style="fill: #c7b299; stroke-width: 0px;"/>
    <path d="M291.9,761.1s0,0,0,0c-.3,3.1-.6,5.1-.3,5.5.4.7.8,4.6,1.2,9.5,1.9,1.2,3.8,2.3,5.7,3.5,0,.6-.1,1.2-.2,1.8.9-.7,1.8-1.4,2.6-2-1.9-10.3-3.3-16.8-3.3-16.8,0,0-2.7-.9-5.7-1.6Z" style="fill: #08b; stroke-width: 0px;"/>
    <path d="M276.3,766.4c1.3.8,2.6,1.5,3.9,2.3.5-1.7,1-3.7,1.6-6-1.6,1-3.5,2.2-5.5,3.7Z" style="fill: #08b; stroke-width: 0px;"/>
    <path d="M255.5,754.6c2.6,1.5,5.2,2.9,7.8,4.4,1.3.7,2.6,1.5,3.8,2.2,7.2-5.2,13.6-8.2,17-9.6,0-.6.2-1.1.3-1.7-5.3-2.6-11-4.2-15.4-5.1,0,0,0,0,0,0l.3.5c-.1,0-6.4,3.8-13.8,9.3Z" style="fill: #252352; stroke-width: 0px;"/>
    <path d="M292.4,755.3c-.2,2.2-.4,4.2-.6,5.9,3,.6,5.7,1.6,5.7,1.6-1-2.9-2.9-5.3-5.1-7.4Z" style="fill: #252352; stroke-width: 0px;"/>
    <path d="M276.3,766.4c2.1-1.5,4-2.7,5.5-3.7.3-1,.5-2.1.8-3.2.5-2.1,1-4.4,1.4-6.7-3.4,1.4-9.2,4.2-15.8,8.9,2.7,1.6,5.4,3.1,8.1,4.7Z" style="fill: #252352; stroke-width: 0px;"/>
    <path d="M268.3,744.7c-4.5-.6-8.6,1.3-11.5,2.6-2.1.9-4.7,2.1-7.5,3.7,1.7,1,3.5,1.9,5.2,2.9,6.4-4.7,12-8.2,13.8-9.3Z" style="fill: #252352; stroke-width: 0px;"/>
    <path d="M268.2,761.8c6.6-4.7,12.4-7.5,15.8-8.9,0-.4.1-.8.2-1.2-3.4,1.4-9.8,4.3-17,9.6.3.2.7.4,1,.6Z" style="fill: #08b; stroke-width: 0px;"/>
    <path d="M255.5,754.6c7.4-5.4,13.6-9.2,13.8-9.3l-.3-.5-.3-.5c0,0-.3.2-.5.3-1.8,1.1-7.4,4.6-13.8,9.3.3.2.7.4,1,.6Z" style="fill: #08b; stroke-width: 0px;"/>
    <path d="M251.9,727.8l-4.8,11.1-.2.4-.4,1-.2.4h0s0,0,0,0l-.2.5c.5.5,1.1.9,1.7,1.4,2.3-2.7,6.4-7.5,11.2-11.7-.7-.1-1.3-.5-1.6-1.1-.4-.6-.5-1.4-.3-2-.4.1-.8.2-1.1.2-.9,0-1.8-.4-2.2-1.2,0,0,0-.1,0-.2-.1,0-.3,0-.4,0-.5.4-.9.8-1.4,1.2Z" style="fill: #ff5a5a; stroke-width: 0px;"/>
    <path d="M283.9,722.2c.9-1.5,1.7-2.8,2.5-3.9-2.2-2.3-5.1-3.8-8.8-4.1-1.6-.1-3.2,0-4.8.3,4.2,1.4,8,4,11.1,7.7Z" style="fill: #ff5a5a; stroke-width: 0px;"/>
    <path d="M284.2,751.6c0,.4-.1.8-.2,1.2-.4,2.3-.9,4.6-1.4,6.7,3.2.7,6.3,1.3,9.3,1.7,0,0,0,0,0,0,.2-1.7.4-3.7.6-5.9,0-.4,0-.8.1-1.1-3.3-1.8-6.1-3.3-8.1-4.5,0,0,0,.2,0,.3,0,.6-.2,1.1-.3,1.7Z" style="fill: #ff5a5a; stroke-width: 0px;"/>
    <path d="M280.2,768.7c4.2,2.5,8.4,5,12.5,7.5-.4-4.9-.8-8.8-1.2-9.5-.2-.4,0-2.4.3-5.5-3-.4-6.1-.9-9.3-1.7-.3,1.1-.5,2.2-.8,3.2-.6,2.3-1.1,4.3-1.6,6Z" style="fill: #e13; stroke-width: 0px;"/>
    <path d="M243.3,747.8c.5.3,1,.6,1.6.9l1.1-3.7s.7-.9,1.8-2.3c-.6-.4-1.1-.9-1.7-1.4l-2.8,6.5Z" style="fill: #e13; stroke-width: 0px;"/>
    <path d="M361.1,943.4c.4,15.9-.9,38.5-8.9,56.6l1.3,22.2,15.2-.5-7.2-78.8c0,0,0,.1-.1.2-.1.1-.2.2-.3.3Z" style="fill: #e13; stroke-width: 0px;"/>
    <path d="M360.7,933.2l-.3-3.3c0,1,.2,2.1.3,3.2,0,0,0,0,0,0Z" style="fill: #e13; stroke-width: 0px;"/>
    <path d="M361.1,941.8c.1-.2.2-.3.4-.5l-.6-6.5s0,0,0-.1c.1,2.1.2,4.5.3,7.1Z" style="fill: #e13; stroke-width: 0px;"/>
    <path d="M360.4,934.3c-1.1-1-2.4-1.5-3.9-1.5s-.1,0-.2,0l-7.5.3c-1.3,0-2.4.5-3.4,1.3,0,2.3,0,5.2,0,8.8,1.1.9,2.4,1.4,3.8,1.3l7.5-.3c1.5,0,2.9-.7,4-1.8.2-.2.3-.4.4-.5,0-2.6-.2-5-.3-7.1-.1-.1-.2-.3-.4-.4Z" style="fill: #ff5a5a; stroke-width: 0px;"/>
    <path d="M361.1,943.4c-1.2,1.1-2.7,1.8-4.4,1.8l-7.5.3c0,0-.2,0-.3,0-1.3,0-2.5-.4-3.6-1.1,0,4.9,0,11,0,18.6,0,28.8-12.2,41-19.3,45.7,0,.1,0,.2,0,.3,0,0,0,.1,0,.2,0,.2,0,.5,0,.7,0,1.2-.2,2.4-.3,3.7,0,.3-.1.5-.2.8,0,.5-.2,1-.3,1.5,0,.4-.2.8-.3,1.1-.1.5-.2,1-.4,1.4,0,.3-.2.6-.3.9-.2.7-.4,1.4-.7,2-.1.3-.2.6-.3.8-.2.5-.4.9-.6,1.4,0,.2-.1.3-.2.5,0,.1-.1.2-.2.4,0,0,0,0,0,.1,0,0,0,0,0,0,0,0,0,0,0,0-.3.6-.6,1.2-1,1.8,0,.1-.1.2-.2.3v1.1c5.6-1.3,10.4-3.6,14.5-6.6,7.4-5.3,12.7-12.9,16.5-21.5,8-18,9.2-40.7,8.9-56.6Z" style="fill: #ff5a5a; stroke-width: 0px;"/>
    <path d="M355.3,930.8c-4,.6-7.4-.5-9.8-1.8,0,1,0,2.4,0,4,1-.6,2.1-1,3.3-1l7.5-.3c1.6,0,3.2.4,4.4,1.4,0-1.2-.2-2.3-.3-3.2,0-.2,0-.5,0-.7-1.4.7-3.1,1.3-5,1.6Z" style="fill: #ff5a5a; stroke-width: 0px;"/>
    <path d="M356.2,931.7l-7.5.3c-1.2,0-2.3.4-3.3,1-.5.3-1,.7-1.4,1.1-1.2,1.3-1.9,3-1.8,4.8,0,1.8.8,3.5,2.2,4.7.3.3.6.5,1,.8,1.1.7,2.3,1.1,3.6,1.1s.2,0,.3,0l7.5-.3c1.6,0,3.2-.7,4.4-1.8.1-.1.2-.2.3-.3,0,0,0-.1.1-.2,1.1-1.3,1.7-3,1.7-4.7,0-1.8-.8-3.5-2.2-4.7-.1-.1-.3-.2-.4-.3,0,0,0,0,0,0-1.3-1-2.8-1.5-4.4-1.4ZM362.2,938.3c0,1.1-.2,2.1-.8,3-.1.2-.2.3-.4.5-.1.2-.3.4-.4.5-1,1.1-2.4,1.8-4,1.8l-7.5.3c-1.4,0-2.7-.4-3.8-1.3,0,0-.2-.1-.3-.2-1.1-1-1.8-2.4-1.8-4s.5-3,1.5-4.1c.2-.2.4-.4.6-.5,1-.8,2.1-1.3,3.4-1.3l7.5-.3c0,0,.1,0,.2,0,1.4,0,2.8.5,3.9,1.5.1.1.3.3.4.4,0,0,0,0,0,.1.8,1,1.3,2.2,1.4,3.4Z" style="fill: #d9660d; stroke-width: 0px;"/>
    <path d="M342,786.2c-1.9.8-11,6.5-19.2,13.7,4.7,6.9,9.4,38.2,12.9,68,2.4,20.7,4.7,40.1,5.8,58.3.3.3,1.8,1.7,4.1,2.9,2.4,1.3,5.8,2.4,9.8,1.8,1.9-.3,3.6-.9,5-1.6,2.3-1.2,3.9-2.7,4.5-3.4,11-34.2-11.3-137.6-11.3-137.6,0,0-.2-.2-.2-.3-.9-1-4.8-4.6-11.4-1.8Z" style="fill: #08b; stroke-width: 0px;"/>
    <path d="M342.9,777v.2c-.1,0-17.8,5.8-32.8,22.9-.2-.3-.4-.6-.6-1,13.4-15.2,29-21.4,32.4-22.7-6.2-3.5-12.5-5.1-16.8-5.9l.2.4c-.2.1-13.1,7.9-23.7,17.2-.2-.3-.5-.5-.7-.8,9.4-8.3,20.5-15.2,23.3-16.9-.2,0-.5,0-.7-.1-4.2-.3-7.9,1.5-10.7,2.7-3.2,1.4-7.4,3.4-11.9,6.6-.9.6-1.7,1.3-2.6,2-3.4,36.2-6.8,72.3-10.3,108.5,8.6-22.8,19.4-55.6,24.5-85.2-.2-.5-.5-1-.7-1.5.2.5.5,1,.7,1.5h0s0,0,0,0c0,0,0,0,0,0,.6,1.3,1.2,2.6,1.7,4,2.4-3,5.4-6,8.6-8.8,8.2-7.2,17.3-12.8,19.2-13.7,6.6-2.8,10.4.8,11.4,1.8.1.2.2.3.2.3-.7-2-1.8-3.8-3.2-5.4,0,0,0,0,0,0-2.3-2.4-4.9-4.3-7.4-5.8Z" style="fill: #252352; stroke-width: 0px;"/>
    <path d="M309.6,799.2c.2.3.4.6.6,1,15-17.1,32.7-22.8,32.9-22.9v-.2c-.4-.2-.7-.4-1-.5-3.4,1.2-19,7.4-32.4,22.7Z" style="fill: #08b; stroke-width: 0px;"/>
    <path d="M300.9,787.3c.2.3.5.5.7.8,10.6-9.3,23.5-17.1,23.7-17.2l-.2-.4c-.3,0-.6-.1-.9-.2-2.8,1.7-13.9,8.6-23.3,16.9Z" style="fill: #08b; stroke-width: 0px;"/>
    <path d="M226.7,927c0,7.7-14.6,11.2-17.9,28.5-2.3,12.2,3,21.2-3.3,30.3-3,4.4-7.3,6.7-10.4,8l-6.4-1.8h0s-.7,5-.7,5c.2.2.4.4.6.7.6,1,.9,2.1.7,3.2l-.4,2c-.2,1.1-.9,2.1-1.8,2.8,0,0-.2.1-.3.2l-2.4,17h0c9.4,4.6,19.2,8.2,29.3,10.8,9.1,2.3,18.4,3.7,27.8,4.2-.3-1.8-.6-3.7-.8-5.5,0-.3,0-.5-.1-.8-.3-1.8-.5-3.7-.7-5.5,0-.2,0-.5,0-.7-.6-5.8-1.1-11.7-1.3-17.5,0-.2,0-.5,0-.7,0-1.7-.1-3.4-.2-5.1,0-.3,0-.5,0-.8-.1-5.5,0-10.9.1-16.4,0-.2,0-.5,0-.7,0-1,0-1.9.1-2.9-1.9,0-3.5-1.7-3.5-3.7,0-2,1.6-3.7,3.7-3.7,0,0,.2,0,.3,0,.7-10,1.8-19.9,3.3-29.8,3.1-20,7.7-39.9,8.2-60.1.5-20.2-3.7-41.4-16.4-57.2-1.3-1.6-1.7-2.3-1.8-2.7-13-15.2-32.4-25.6-57.8-31.1-26.5-5.7-49.9-3.6-50.1-3.6h-.3s-7.7-.3-7.7-.3c.8-.7,1.6-1.4,2.4-2.1-.8.7-1.6,1.3-2.4,2.1-6.7,6.3-11.5,14.7-13.8,26.6-2.4,12.9-.9,26.2,1.4,38.9,1,5.7,10.4,31.3,7.7,35.3h0s0,0,0,0c90.5,14.4,115.2,26.9,115.3,36.9Z" style="fill: #0be; stroke-width: 0px;"/>
    <path d="M128.6,780.7c0,0-.2,0-.2.1,0,0,0,0,0,0,0,0,.1,0,.2-.1Z" style="fill: #0be; stroke-width: 0px;"/>
    <path d="M325.9,1003c0,.1,0,.3,0,.4,0-.2,0-.3,0-.4Z" style="fill: #0be; stroke-width: 0px;"/>
    <path d="M326.1,1007.4s0,0,0,0c0,0,0,0,0,0Z" style="fill: #0be; stroke-width: 0px;"/>
    <path d="M326,1005.1c0,.1,0,.2,0,.4,0-.1,0-.2,0-.4Z" style="fill: #0be; stroke-width: 0px;"/>
    <path d="M171,997.5l-.4,2c-.3,1.3.4,2.7,1.4,3.4l1-7.8c-1,.4-1.8,1.3-2,2.4Z" style="fill: #0be; stroke-width: 0px;"/>
    <path d="M171.9,1004.1c-1.7-.8-2.7-2.7-2.3-4.7l.4-2c.3-1.7,1.6-2.9,3.2-3.3l.7-5.9-48-13.1c12,16.3,27.3,30.2,44.6,40.8l1.4-11.7Z" style="fill: #0be; stroke-width: 0px;"/>
    <path d="M186.9,1004.6c.4-.5.7-1,.9-1.7l.4-2c.2-.8,0-1.6-.4-2.3l-.9,6Z" style="fill: #0be; stroke-width: 0px;"/>
    <path d="M320.7,1027.8c.1-.2.3-.5.4-.7-.1.2-.3.5-.4.7,0,0,0,0,0,0Z" style="fill: #0be; stroke-width: 0px;"/>
    <path d="M311.5,891.3c5.1-6.6,8-14.6,12.1-21.9.2-.4.4-.8.7-1.1,0,0,0,0,0,0,0-16.5-1.5-33-6.2-48.5-6.6,30.4-17.7,62-25.6,82,7.3.3,14.5-4.4,19.1-10.4Z" style="fill: #0be; stroke-width: 0px;"/>
    <path d="M326.1,1009.3c0,.2,0,.5,0,.7,0-.2,0-.5,0-.7Z" style="fill: #0be; stroke-width: 0px;"/>
    <path d="M325.6,1014.5c0,.5-.2,1-.3,1.5.1-.5.2-1,.3-1.5Z" style="fill: #0be; stroke-width: 0px;"/>
    <path d="M324.4,1019.5c-.2.7-.4,1.4-.7,2,.2-.7.5-1.3.7-2Z" style="fill: #0be; stroke-width: 0px;"/>
    <path d="M324.7,1018.6c.1-.5.3-.9.4-1.4-.1.5-.2,1-.4,1.4Z" style="fill: #0be; stroke-width: 0px;"/>
    <path d="M322.3,1024.8c-.3.6-.6,1.2-1,1.8.3-.6.7-1.2,1-1.8Z" style="fill: #0be; stroke-width: 0px;"/>
    <path d="M322.8,1023.8c.2-.5.4-.9.6-1.4-.2.5-.4.9-.6,1.4Z" style="fill: #0be; stroke-width: 0px;"/>
    <path d="M322.4,1024.7s0,0,0,.1c0,0,0,0,0-.1Z" style="fill: #0be; stroke-width: 0px;"/>
    <path d="M312.4,804.7h0c-.2-.5-.5-1-.7-1.5.2.5.5,1,.7,1.5,0,0,0,0,0,0,0,0,0,0,0,0Z" style="fill: #0be; stroke-width: 0px;"/>
    <path d="M111.4,981.5l.4-2c.2-.8,0-1.6-.4-2.3l-.9,6c.4-.5.7-1,.9-1.7Z" style="fill: #08b; stroke-width: 0px;"/>
    <path d="M305.8,1041.5c-.6.3-1.1.6-1.7.9.6-.3,1.1-.6,1.7-.9Z" style="fill: #08b; stroke-width: 0px;"/>
    <path d="M287.2,1048.7c-.8.2-1.7.4-2.6.6.9-.2,1.7-.4,2.6-.6Z" style="fill: #08b; stroke-width: 0px;"/>
    <path d="M299,1044.7c-.7.3-1.3.5-2,.8.7-.3,1.4-.5,2-.8Z" style="fill: #08b; stroke-width: 0px;"/>
    <path d="M301.3,1043.8c-.6.3-1.2.6-1.9.8.6-.3,1.2-.5,1.9-.8Z" style="fill: #08b; stroke-width: 0px;"/>
    <path d="M296.7,1045.6c-.7.3-1.5.5-2.2.8.8-.3,1.5-.5,2.2-.8Z" style="fill: #08b; stroke-width: 0px;"/>
    <path d="M303.6,1042.7c-.6.3-1.2.6-1.8.8.6-.3,1.2-.6,1.8-.8Z" style="fill: #08b; stroke-width: 0px;"/>
    <path d="M284.3,1049.4c-.8.2-1.6.4-2.4.6.8-.2,1.6-.4,2.4-.6Z" style="fill: #08b; stroke-width: 0px;"/>
    <path d="M313.7,1036c-.4.3-.8.7-1.2,1,.4-.3.8-.7,1.2-1Z" style="fill: #08b; stroke-width: 0px;"/>
    <path d="M319.7,1029.3c-.2.3-.5.6-.7,1,.2-.3.5-.6.7-1Z" style="fill: #08b; stroke-width: 0px;"/>
    <path d="M307.9,1040.2c-.5.3-1.1.7-1.7,1,.6-.3,1.1-.7,1.7-1Z" style="fill: #08b; stroke-width: 0px;"/>
    <path d="M310,1038.9c-.5.4-1.1.7-1.6,1.1.6-.4,1.1-.7,1.6-1.1Z" style="fill: #08b; stroke-width: 0px;"/>
    <path d="M315.3,1034.5c-.3.3-.6.6-.9.9.3-.3.6-.6.9-.9Z" style="fill: #08b; stroke-width: 0px;"/>
    <path d="M316.8,1032.9c-.3.3-.5.6-.8.9.3-.3.5-.6.8-.9Z" style="fill: #08b; stroke-width: 0px;"/>
    <path d="M318.3,1031.2c-.2.3-.5.6-.7.9.3-.3.5-.6.7-.9Z" style="fill: #08b; stroke-width: 0px;"/>
    <path d="M310.5,1038.5c.6-.4,1.2-.9,1.8-1.3-.5.4-1,.8-1.5,1.2,0,0-.1.1-.2.2Z" style="fill: #08b; stroke-width: 0px;"/>
    <path d="M291.3,1047.5c-.1,0-.3,0-.4.1-.3.1-.7.2-1,.3-.9.3-1.8.5-2.6.7,2.4-.6,4.8-1.4,7.2-2.2-.8.3-1.6.5-2.4.8-.2,0-.5.1-.7.2Z" style="fill: #08b; stroke-width: 0px;"/>
    <path d="M320.4,1028.3c.1-.2.2-.3.3-.5,0,0,0,0,0,0-.1.2-.2.4-.3.5Z" style="fill: #08b; stroke-width: 0px;"/>
    <path d="M122.5,1039.3c20.4,9.4,43.3,15.4,65.2,20.4,17.4,3.9,39.3,0,57.2-3.3,1-.2,2.1-.4,3.1-.6-1,.2-2.1.4-3.1.6-.7-2.7-1.3-5.4-1.8-8,0-.2,0-.4-.1-.7-.5-2.3-.9-4.7-1.3-7-.1-.8-.3-1.7-.4-2.5-9.4-.6-18.7-2-27.8-4.2-10.1-2.5-20-6.1-29.3-10.6l-7.1,8.1-6.8-13.5.2-2c-17.3-10.6-32.6-24.5-44.6-40.8l48,13.1,14.8,4.1,6.4,1.8c3.1-1.3,7.4-3.6,10.4-8,6.3-9.1,1-18.1,3.3-30.3,3.3-17.2,17.9-20.8,17.9-28.5,0-9.9-24.8-22.5-115.3-36.9,0,0,0,0,0,0-22.8,21-22.5,55.6-21.4,69.3.3,3.5,2.7,6.4,6,7.3l.8.2c0,1,.2,2,.3,3l.4-2.9,14.8,4.1-.7,4.6c.2.2.4.4.6.7.6,1,.9,2.1.7,3.2l-.4,2c-.2,1.1-.9,2.1-1.8,2.8,0,0-.2.1-.3.2l-2.4,17-5.6,6.3c.5,2.5,1.1,4.9,1.8,7.3,3.1,10.2,8.3,19.3,18.4,23.9Z" style="fill: #08b; stroke-width: 0px;"/>
    <path d="M261.1,1053.6c-2.9.4-5.7.9-8.5,1.3,4.4-.7,9.1-1.4,13.9-2.1-1.5.2-3.1.5-4.6.7-.3,0-.6,0-.9.1Z" style="fill: #08b; stroke-width: 0px;"/>
    <path d="M273.4,1051.6c-.7.1-1.4.3-2.1.4.7-.1,1.4-.2,2.1-.4Z" style="fill: #08b; stroke-width: 0px;"/>
    <path d="M276.1,1051.1c-.7.1-1.5.3-2.2.4.7-.1,1.5-.3,2.2-.4Z" style="fill: #08b; stroke-width: 0px;"/>
    <path d="M278.8,1050.6c-.7.2-1.5.3-2.2.4.7-.1,1.5-.3,2.2-.4Z" style="fill: #08b; stroke-width: 0px;"/>
    <path d="M252.5,1054.9c-.7.1-1.3.2-2,.3.7-.1,1.3-.2,2-.3Z" style="fill: #08b; stroke-width: 0px;"/>
    <path d="M270.6,1052.1c-.6.1-1.3.2-1.9.3.6-.1,1.3-.2,1.9-.3Z" style="fill: #08b; stroke-width: 0px;"/>
    <path d="M281.6,1050c-.8.2-1.5.3-2.3.5.8-.2,1.5-.3,2.3-.5Z" style="fill: #08b; stroke-width: 0px;"/>
    <path d="M125.3,782.5c.5-.3.9-.5,1.4-.8-.5.3-1,.5-1.4.8Z" style="fill: #252352; stroke-width: 0px;"/>
    <path d="M122.3,784.4h0c.5-.3,1-.6,1.5-.9-.5.3-1,.6-1.5.9Z" style="fill: #252352; stroke-width: 0px;"/>
    <path d="M129.4,780.8c0-.2,0-.3,0-.5-.3.1-.5.2-.8.4,0,0-.1,0-.2.1.3,0,.7,0,1,0Z" style="fill: #252352; stroke-width: 0px;"/>
    <path d="M254.6,721.8s0,0,0,0v.3c-.1,0-.3.4-.3.4l-1.7,3.9c.2,0,.5.2.8.2.1,0,.2,0,.4,0-.6-1.2-.2-2.6.9-3.3l3.9-2.4c-.5-.6-1.2-.9-2.1-1.1-.5.4-1,.7-1.4,1l-.4.9Z" style="fill: #edbbab; stroke-width: 0px;"/>
    <path d="M219.2,740.8v-.2c0,0,.4.2.4.2,1.9-.3,3.5-.5,3.7-.5,2.6,1.5,5.3,3,7.9,4.4v-.2c.1,0,.5-1,.5-1v-.2c0,0,0,0,0,0h0s.2-.4.2-.4l.4-1c-4.2-2.3-8.4-4.5-12.6-6.7l-.7,5.6Z" style="fill: #f1415c; stroke-width: 0px;"/>
    <path d="M292.7,776.2c-4.1-2.5-8.3-5-12.5-7.5-1.3-.8-2.6-1.5-3.9-2.3-2.7-1.6-5.4-3.1-8.1-4.7-.3-.2-.7-.4-1-.6-1.3-.7-2.6-1.5-3.8-2.2-2.6-1.5-5.2-2.9-7.8-4.4-.3-.2-.7-.4-1-.6-1.7-1-3.5-1.9-5.2-2.9-1.5-.8-3-1.6-4.4-2.4-.5-.3-1-.6-1.6-.9l-1.3,3c17.6,9.9,35.3,19.7,53,29.6l-3.5.8v.2c-.1,0-.4-.1-.4-.1l-3.9.8h0s-.3.5-.3.5l-.5-.3-4.9,1.1,1.6.9-.3.5-2.1-1.2-2.4.5h.5c0,0-10.2,92.1-10.2,92.1,0,.2.2.3.3.5,4.3,7.5,7.8,17.9,15.4,22.7,1.1-2.8,2.3-5.9,3.6-9.2,3.4-36.2,6.8-72.3,10.3-108.5,0-.6.1-1.2.2-1.8-1.9-1.2-3.8-2.3-5.7-3.5Z" style="fill: #f1415c; stroke-width: 0px;"/>
    <path d="M225,759.3v-.3c.1,0,.3-.4.3-.4,0,0,0,0,0,0l1.6-3.7c-7.2-4.1-14.4-8.1-21.6-12.2h0l-1.3-.7,1.3,3.4,5.8,14.7,12.4,2.6,1.4-3.4Z" style="fill: #f1415c; stroke-width: 0px;"/>
    <path d="M277.8,783.9h.5c-6.4-3.6-12.8-7.2-19.2-10.8l.5,13.5c0,.4,0,.7,0,1.1,0,2.6.2,5.2.3,7.8.9,23.2,1.8,46.4,2.7,69.6.3.8.7,1.5,1,2.3,1.4,2.4,2.7,4.7,4.1,7.1l10-90.6Z" style="fill: #f1415c; stroke-width: 0px;"/>
    <path d="M237.6,760.9l-1.9,4.3,15.1,3.2c-4.4-2.5-8.8-5-13.3-7.5Z" style="fill: #f1415c; stroke-width: 0px;"/>
    <path d="M219.1,741.1v-.2c-2.7.4-6,.8-6.3.8-.1,0-1.7.2-3.4.5l18.5,10.5,1.1-2.5-14.3-8,.3-.5,14.2,7.9,1.1-2.4-11.1-6.2Z" style="fill: #fff; stroke-width: 0px;"/>
    <path d="M219.6,740.8l10.8,6,.9-2c-2.6-1.5-5.3-3-7.9-4.4-.2,0-1.8.2-3.7.5Z" style="fill: #fff; stroke-width: 0px;"/>
    <path d="M208.8,742.4v-.2c-1.6.2-3.3.4-3.4.5h0c7.2,4.1,14.4,8.1,21.6,12.2l.7-1.7-18.9-10.8Z" style="fill: #fff; stroke-width: 0px;"/>
    <path d="M291.6,780.8v.2c-.1,0,3.3-.8,3.3-.8-17.7-9.9-35.3-19.7-53-29.6l-.9,2,50.5,28.1Z" style="fill: #fff; stroke-width: 0px;"/>
    <path d="M278.3,783.9h0s2.4-.5,2.4-.5l-21.7-12.3v2c6.5,3.6,12.9,7.2,19.3,10.9Z" style="fill: #fff; stroke-width: 0px;"/>
    <polygon points="281.5 783.2 286.4 782.2 239.6 756.2 238.5 758.8 258.1 769.9 259 770.1 259 770.4 281.5 783.2" style="fill: #fff; stroke-width: 0px;"/>
    <polygon points="240.9 753.2 239.9 755.7 287.2 782 291.1 781.2 240.9 753.2" style="fill: #fff; stroke-width: 0px;"/>
    <path d="M238.3,759.3l-.7,1.6c4.4,2.5,8.8,5,13.3,7.5l5.6,1.2-18.1-10.3Z" style="fill: #fff; stroke-width: 0px;"/>
    <path d="M277.8,783.9l-10,90.6c.3.5.6,1,.9,1.6l10.2-92h-.5c0,0,0,0,0,0h-.5Z" style="fill: #e51f38; stroke-width: 0px;"/>
    <polygon points="219.3 740.6 219.2 740.8 219.2 740.9 219.1 741.1 230.2 747.3 230.4 746.8 219.6 740.8 219.3 740.6" style="fill: #e51f38; stroke-width: 0px;"/>
    <polygon points="241.1 752.8 240.9 753.2 291.1 781.2 291.4 781.3 291.5 781.1 291.6 780.8 241.1 752.8" style="fill: #e51f38; stroke-width: 0px;"/>
    <polygon points="214.9 741.8 214.6 742.3 228.9 750.2 229.1 749.7 214.9 741.8" style="fill: #e51f38; stroke-width: 0px;"/>
    <polygon points="239.9 755.7 239.6 756.2 286.4 782.2 286.9 782.5 287.2 782 287.2 782 239.9 755.7" style="fill: #e51f38; stroke-width: 0px;"/>
    <polygon points="209.3 742.2 209 742 208.9 742.2 208.8 742.4 227.6 753.2 227.9 752.7 209.3 742.2" style="fill: #e51f38; stroke-width: 0px;"/>
    <polygon points="280.7 783.4 282.9 784.6 283.1 784.2 281.5 783.2 259 770.4 259 771.1 280.7 783.4" style="fill: #e51f38; stroke-width: 0px;"/>
    <polygon points="238.5 758.8 238.3 759.3 256.4 769.6 258.1 769.9 238.5 758.8" style="fill: #e51f38; stroke-width: 0px;"/>
    <path d="M256.4,709c-.7.5-1.4.9-1.9,1.6-.5.7-.6,1.5-.3,2.1,0,.1.1.2.2.3,1.3,0,2.7,0,4,0l2.8-6.5.2-.6-.3.6c-1.6.8-3.3,1.7-4.8,2.7Z" style="fill: #74777b; stroke-width: 0px;"/>
    <path d="M254.6,721.8l.4-.9.5-1.1c-1.7-.2-3.7,0-5.8,0,.2,0,.4.2.5.2,1.4.7,2.9,1.3,4.4,1.8Z" style="fill: #74777b; stroke-width: 0px;"/>
    <polygon points="193.2 731.5 190.5 724.7 190.5 724.7 189.5 725.1 189.6 725.1 192.2 731.9 193.2 731.5" style="fill: #555; stroke-width: 0px;"/>
    <rect x="194.8" y="723.1" width="1.1" height="4.4" transform="translate(-252.6 122.3) rotate(-21.5)" style="fill: #555; stroke-width: 0px;"/>
    <polygon points="202.1 728 199.4 721.2 199.4 721.2 198.4 721.5 198.5 721.6 201.1 728.4 202.1 728" style="fill: #555; stroke-width: 0px;"/>
    <rect x="203.7" y="719.5" width="1.1" height="4.4" transform="translate(-250.7 125.4) rotate(-21.5)" style="fill: #555; stroke-width: 0px;"/>
    <polygon points="211 724.5 208.3 717.7 208.3 717.6 207.3 718 207.4 718.1 210 724.9 211 724.5" style="fill: #555; stroke-width: 0px;"/>
    <rect x="212.6" y="716" width="1.1" height="4.4" transform="translate(-248.8 128.4) rotate(-21.5)" style="fill: #555; stroke-width: 0px;"/>
    <polygon points="219.9 721 217.2 714.2 217.2 714.1 216.2 714.5 216.3 714.6 218.9 721.4 219.9 721" style="fill: #555; stroke-width: 0px;"/>
    <rect x="221.5" y="712.5" width="1.1" height="4.4" transform="translate(-246.9 131.5) rotate(-21.5)" style="fill: #555; stroke-width: 0px;"/>
    <polygon points="228.8 717.5 226.1 710.7 226.1 710.6 225.1 711 225.2 711.1 227.8 717.9 228.8 717.5" style="fill: #555; stroke-width: 0px;"/>
    <rect x="230.4" y="709" width="1.1" height="4.4" transform="translate(-244.9 134.4) rotate(-21.5)" style="fill: #555; stroke-width: 0px;"/>
    <polygon points="237.7 714 235 707.2 235 707.1 234 707.5 234.1 707.6 236.7 714.4 237.7 714" style="fill: #555; stroke-width: 0px;"/>
    <polygon points="241.1 709.6 239.5 705.5 238.5 705.8 240.2 710 241.1 709.6" style="fill: #555; stroke-width: 0px;"/>
    <polygon points="246.6 710.5 244 703.7 243.9 703.6 242.9 704 243 704.1 245.6 710.8 246.6 710.5" style="fill: #555; stroke-width: 0px;"/>
    <rect x="248.2" y="702" width="1.1" height="4.4" transform="translate(-241.1 140.4) rotate(-21.5)" style="fill: #555; stroke-width: 0px;"/>
    <polygon points="255.5 707 252.9 700.2 252.8 700.1 251.8 700.5 251.9 700.6 254.5 707.3 255.5 707" style="fill: #555; stroke-width: 0px;"/>
    <rect x="257.1" y="698.5" width="1.1" height="4.4" transform="translate(-239.3 143.5) rotate(-21.5)" style="fill: #555; stroke-width: 0px;"/>
    <path d="M200,745.1c-.2-.2-.3-.5-.5-.7-1-1.5-2-3.1-3.5-4.2-1.6-1.3-3.7-2-5.6-2.7-.5-.2-.9-.3-1.4-.5.1.3.2.6.4.9.3,0,.5.2.8.3,2,.7,3.8,1.3,5.4,2.5,1.4,1.1,2.4,2.6,3.3,4.1,0,0,0,.1.1.2.3,0,.6,0,1,0Z" style="fill: #999; stroke-width: 0px;"/>
    <path d="M193.6,749c0,.2.2.4.3.6,0,0,0,0,0,0,0,0,0,0,0,0,0-.2-.2-.4-.3-.6Z" style="fill: #b3b3b3; stroke-width: 0px;"/>
    <polygon points="231.8 743.5 231.9 743.4 231.9 743.4 231.8 743.5" style="fill: #b3b3b3; stroke-width: 0px;"/>
    <polygon points="225.2 759 225.3 758.5 225.3 758.5 225.3 758.5 225.2 759" style="fill: #b3b3b3; stroke-width: 0px;"/>
    <path d="M236.9,731.9c.6,1.2.9,2.5,1.1,3.7.3,1.9.5,3.9.6,5.9h0c.3,0,.5-.1.8-.2,0-2-.2-3.9-.6-5.8-.2-1.4-.6-3.1-1.5-4.5l-.3.7v.2c0,0,0,0,0,0Z" style="fill: #999; stroke-width: 0px;"/>
    <path d="M240.9,722.5s0,0,0,0c1.1,1,2.1,2.4,2.8,4,1.1,2.6,1.5,5.4,1.8,8.2l.6,4.6c.2,0,.5-.2.7-.2l-.6-4.4c-.4-2.8-.7-5.7-1.9-8.4-.8-1.8-1.9-3.3-3.2-4.4,0,0,0,0,0,0l-.3.7Z" style="fill: #999; stroke-width: 0px;"/>
    <polygon points="246.5 740.3 246.4 740.7 246.4 740.7 246.5 740.3" style="fill: #999; stroke-width: 0px;"/>
    <path d="M249.9,720.7c1.4.7,2.9,1.3,4.4,1.8l.2-.4v-.3c.1,0,.1,0,.1,0-1.5-.5-2.9-1.1-4.4-1.8-.2,0-.4-.2-.5-.2-.6,0-1.3,0-1.9,0,.2,0,.4.2.5.2.5.2,1,.5,1.5.7Z" style="fill: #999; stroke-width: 0px;"/>
    <path d="M253.9,710.1c-.6.9-.8,2-.4,2.8.3,0,.6,0,.9,0,0,0-.1-.2-.2-.3-.3-.6-.2-1.4.3-2.1.5-.6,1.2-1.1,1.9-1.6,1.6-1,3.2-1.9,4.8-2.7l.3-.6.2-.5s0,0,0,0c-2,.9-3.9,2-5.7,3.1-.8.5-1.6,1-2.1,1.8Z" style="fill: #999; stroke-width: 0px;"/>
    <path d="M238.3,759.3l.2-.5,1.1-2.6.2-.5,1.1-2.4.2-.5.9-2,1.3-3,2.8-6.5.2-.5h0s.2-.4.2-.4l.4-1,.2-.4,4.8-11.1.6-1.4,1.7-3.9.2-.4-.2.4c-1.5-.5-3-1.2-4.4-1.8-.5-.2-1-.5-1.5-.7-.2,0-.4-.2-.5-.2-2.1,0-4-.3-5.2-1.3l-1.4,3.3c1.3,1.1,2.4,2.6,3.2,4.4,1.2,2.7,1.5,5.6,1.9,8.4l.6,4.4c-.2,0-.5.2-.7.2l-.6-4.6c-.4-2.8-.7-5.6-1.8-8.2-.7-1.6-1.7-3-2.8-4l-3.7,8.5-.3.7.3-.7c.8,1.4,1.2,3,1.5,4.5.3,1.9.5,3.9.6,5.8-.3,0-.5.1-.8.2h0c0-2-.2-3.9-.6-5.9-.2-1.2-.5-2.5-1.1-3.7h0s-4.3,10-4.3,10l-.4,1-.2.4h0s0,.2,0,.2l-.4,1v.2c-.1,0-1,2-1,2l-.2.5-1.1,2.4-.2.5-1.1,2.5-.2.5-.7,1.7-1.6,3.7h0s-.2.4-.2.4v.3c-.1,0-1.6,3.4-1.6,3.4l12.2,2.6,1.9-4.3.7-1.6Z" style="fill: #74777b; stroke-width: 0px;"/>
    <path d="M211.2,760l-5.8-14.7-1.3-3.4-3.3-8.3c0-.2,0-.4.2-.5l40.8-16.1c0,0,0-.2,0-.2-.6-2.3,5.3-3.5,11.9-3.9-.4-.8-.3-1.9.4-2.8.5-.8,1.3-1.3,2.1-1.8,1.8-1.1,3.7-2.2,5.7-3.1h0s0,0,0,0l3.3-7.6c.4-1-.6-2-1.6-1.6l-10.6,4.2,2.7,6.8-1,.4-2.7-6.8-7.9,3.1,2.7,6.8-1,.4-2.7-6.8-7.9,3.1,2.7,6.8-1,.4-2.7-6.8-7.9,3.1,2.7,6.8-1,.4-2.7-6.8-7.9,3.1,2.7,6.8-1,.4-2.7-6.8-7.9,3.1,2.7,6.8-1,.4-2.7-6.8-7.9,3.1,2.7,6.8-1,.4-2.7-6.8-7.9,3.1,2.7,6.8-1,.4-2.7-6.8-3.4,1.3c-.3.1-.5.4-.7.7,0,0-.2.4,0,.9,0,.3,1.4,3.7,3.5,9,.1.3.2.6.4.9.8,1.9,1.6,4.1,2.5,6.4.5,1.4,1.1,2.8,1.6,4.2,0,.1.1.3.2.4,0,.2.2.4.3.6,0,0,0,0,0,0,.9,2.3,1.9,4.8,2.9,7.3l14.4,3ZM257.3,698.4l1.6,4.1-1,.4-1.6-4.1,1-.4ZM248.4,701.9l1.6,4.1-1,.4-1.6-4.1,1-.4ZM239.5,705.5l1.6,4.1-1,.4-1.6-4.1,1-.4ZM230.6,709l1.6,4.1-1,.4-1.6-4.1,1-.4ZM221.7,712.5l1.6,4.1-1,.4-1.6-4.1,1-.4ZM212.8,716l1.6,4.1-1,.4-1.6-4.1,1-.4ZM203.9,719.5l1.6,4.1-1,.4-1.6-4.1,1-.4ZM195,723l1.6,4.1-1,.4-1.6-4.1,1-.4ZM198.8,744.9c-1-1.5-2-3-3.3-4.1-1.5-1.2-3.4-1.9-5.4-2.5-.3,0-.5-.2-.8-.3-.1-.3-.2-.6-.4-.9.5.2.9.3,1.4.5,2,.7,4,1.3,5.6,2.7,1.5,1.2,2.5,2.7,3.5,4.2.1.2.3.4.5.7-.3,0-.6,0-1,0,0,0,0-.1-.1-.2Z" style="fill: #74777b; stroke-width: 0px;"/>
    <path d="M256,771c.2-.1.4-.3.6-.4,0,.2,0,.3,0,.5.2,0,.4,0,.7.1l-.7.4s0,0,0,0l2.4-1.6c.2,5.5.4,11,.7,16.5l-.5-13.5v-2c0,0-.1-.6-.1-.6v-.3s-.9-.2-.9-.2l-1.7-.4-5.6-1.2-15.1-3.2-12.2-2.6-12.4-2.6-14.4-3-32-6.7v2.6c30.4,6.1,60.8,12.1,91.2,18.2Z" style="fill: #00a69c; stroke-width: 0px;"/>
    <path d="M140.2,747.9c5.4,1.1,10.9,2.2,16.3,3.3v-2.7c0,0-17-3.6-17-3.6l.2,4.4h.1c.1-.4.2-.9.4-1.4Z" style="fill: #00a69c; stroke-width: 0px;"/>
    <path d="M249.8,775c.4-.3.8-.5,1.2-.8l-111.1-23v1c0,0,110,22.7,110,22.7Z" style="fill: #00a69c; stroke-width: 0px;"/>
    <path d="M129.4,780.8c4.3-.2,10.7-.2,18.3.3l-12.6-2.3c-.6-.1-1.1-.6-1.1-1.1l1.7-15.8c0-.5.6-.8,1.3-.7l37,6.9c.6.1,1.1.6,1.1,1.1l-1.6,15.3c.8.2,1.6.3,2.4.5,37.3,8,63.5,27,75.9,54.9,4.1,9.3,7.7,17.5,10.8,24.8-1-23-1.9-46-2.9-69,0,0,0-.1,0-.2,0-1.9-.2-3.9-.2-5.8-.7,0-1.3.2-2,.3-1.5.2-3,.4-4.5.6v-.3s-.6-15.6-.6-15.6l2.3-1.5h0s-2.3,1.5-2.3,1.5l-1.3-.3c-.4.3-.8.5-1.2.8l-109.9-22.7-12.2-2.5c.6,10.2,1.2,20.3,1.8,30.5,0,.2,0,.3,0,.5Z" style="fill: #00c9c0; stroke-width: 0px;"/>
    <polygon points="256.6 771.7 254.8 772.8 254.8 772.8 256.6 771.7 256.6 771.7" style="fill: #00c9c0; stroke-width: 0px;"/>
    <path d="M256.6,770.6c-.2.1-.4.3-.6.4.2,0,.4,0,.6.1,0-.2,0-.3,0-.5Z" style="fill: #00c9c0; stroke-width: 0px;"/>
    <path d="M174,767.9l-37-6.9c-.6-.1-1.2.2-1.3.7l-1.7,15.8c0,.5.4,1,1.1,1.1l12.6,2.3c7.6.5,16.4,1.4,25.7,3.3l1.6-15.3c0-.5-.4-1-1.1-1.1Z" style="fill: #e6e6e6; stroke-width: 0px;"/>
    <path d="M259.6,795.6c1,23,2,46,2.9,69,0,.2.1.3.2.5-.9-23.2-1.8-46.4-2.7-69.6h-.4Z" style="fill: #008375; stroke-width: 0px;"/>
    <path d="M259.7,787.7c0-.4,0-.7,0-1.1-.2-5.5-.4-11-.7-16.5l-2.4,1.6-1.8,1.2v.3c0,0-.3,0-.3,0l-2.3,1.5.6,15.6,6.9-2.5Z" style="fill: #008375; stroke-width: 0px;"/>
    <path d="M140.2,747.9c-.1.5-.2.9-.4,1.4l16.7,3.4v-1.5c-5.4-1.1-10.9-2.2-16.3-3.3Z" style="fill: #fff; stroke-width: 0px;"/>
    <path d="M250.9,774.3l1.3.3,2.3-1.5-114.8-23.2c-.1.5-.2.9-.4,1.4h.5c0,.1,111.1,23.1,111.1,23.1Z" style="fill: #fff; stroke-width: 0px;"/>
    <path d="M257.3,771.2c-.2,0-.4,0-.7-.1-.2,0-.4,0-.6-.1-30.4-6.1-60.8-12.1-91.3-18.2v1.5s90.2,18.2,90.2,18.2v.3c0,0,1.7-1.2,1.7-1.2l.7-.4Z" style="fill: #fff; stroke-width: 0px;"/>
    <polygon points="254.5 773 254.5 773 254.8 773.1 254.8 772.8 254.8 772.8 254.9 772.6 164.7 754.4 164.7 754.6 156.5 753 156.5 752.7 139.8 749.3 139.7 749.3 139.4 749.3 139.3 749.8 139.7 749.9 254.5 773" style="fill: #8f91fe; stroke-width: 0px;"/>
    <path d="M260,795.4c-.1-2.6-.2-5.2-.3-7.8l-6.9,2.5v.3c1.5-.2,3.1-.4,4.6-.6.7,0,1.4-.2,2-.3,0,1.9.2,3.9.2,5.8,0,0,0,.1,0,.2h.4Z" style="fill: #fae5d2; stroke-width: 0px;"/>
    <polygon points="156.5 752.7 156.5 753 164.7 754.6 164.7 754.4 164.7 752.8 164.8 750.2 164.9 743.3 156.7 741 156.6 748.5 156.5 751.2 156.5 752.7" style="fill: #e51f38; stroke-width: 0px;"/>
    <path d="M265.8,943.7c0,0,0-.2,0-.3.2-2.7.4-5.4.6-8.1h0s0,0,0,0c.1-2.3.3-4.5.5-6.8.4,0,.8,0,1.1-.1,0,0,0,0,0,0,0,0,0,0,0,0,.7,2.2,1.4,4.3,2.1,6.5.9,2.6,1.7,5.3,2.6,7.9l3.4,28.1c1.3-.2,2.7-.4,4-.7v-27.7c0,0,0-.2,0-.3.5-2.6,1-5.3,1.5-7.9,0,0,0,0,0,0,0,0,0,0,0,0,.4-2.2.8-4.5,1.3-6.7.4,0,.8,0,1.2,0,0,0,0,0,0,0,0,0,0,0,0,0,.4,2.2.9,4.5,1.3,6.7.5,2.7,1.1,5.4,1.6,8.2v26.3c2.8-.6,5.5-1.2,8.2-1.9l.2-45.6c0-.8.3-1.5.8-2.1.2-1.5,1.5-2.7,3.1-2.7h9.1s0,0,0,0h2.7c.8,0,1.5.3,2.1.8,0,0,0,0,.1,0,0,0,0,0,0,0,.4.4.7.9.8,1.5,0,.2,0,.4,0,.6v1.3h0v.5h0v3.2s0,.4,0,.4h0v3.3s0,.2,0,.2h0v3.4s0,.1,0,.1h0v10h0v.5h0v3s0,0,0,0v.5h0v3.2s0,.3,0,.3h0v3.5s0,0,0,0h0v6.5s0,0,0,0v.5h0v1.4c2.3-.8,4.6-1.5,6.8-2.4.6-.2,1.2-.3,1.7-.2,0-.4,0-.8,0-1.2-1.4-19.8-.3-39.6.7-59.4.1-2.8.3-5.7.4-8.5.4-7.2.6-14.5.6-21.8,0,0,0,0,0,0-.2.4-.4.8-.7,1.1-4.1,7.3-6.9,15.3-12.1,21.9-4.6,5.9-11.7,10.7-19.1,10.4-3,7.6-5.6,13.5-7.3,17-1,2-3,3.3-5.2,3.3s-.3,0-.4,0c-2.4-.2-4.4-1.8-5.1-4-2.5-7.9-9.8-28.1-30.5-74.7-3.1-7-7.1-13.3-11.9-18.9,0,.4.4,1.1,1.8,2.7,12.7,15.8,16.9,36.9,16.4,57.2-.5,20.2-5.1,40.1-8.2,60.1-1.5,9.9-2.6,19.8-3.3,29.8,10.2,0,20.4-.8,30.6-2.1l-3.4-28.2Z" style="fill: #08b; stroke-width: 0px;"/>
    <path d="M301.5,922.5c-.9,0-1.6.4-2.2,1,0,.1,0,.2,0,.3,0,1.6,1.3,3,3,3,.9,0,1.6-.4,2.2-1,0-.1,0-.2,0-.3,0-1.6-1.3-3-3-3Z" style="fill: #08b; stroke-width: 0px;"/>
    <path d="M269,876.5c0-.2-.2-.3-.3-.5-.3-.5-.6-1-.9-1.6-1.4-2.4-2.7-4.7-4.1-7.1,8.8,20.8,13.8,33.7,16.6,41.6,1.2-2.8,2.6-6,4-9.8-7.6-4.8-11.1-15.1-15.4-22.7Z" style="fill: #08b; stroke-width: 0px;"/>
    <path d="M281.2,942.4c.5.1,1,.3,1.5.4h.5v.2c.3,0,.5.2.8.2,1,.2,2.2,0,2.9-.6-.5-2.7-1.1-5.4-1.6-8.2-.5-2.2-.9-4.5-1.3-6.7,0,0,0,0,0,0,.4,2.2.9,4.5,1.3,6.7-.5.1-1.1.3-1.8.3s-1.4-.1-2-.3c0,0,0,0,0,0-.5,2.6-1,5.3-1.5,7.9.4,0,.8,0,1.1,0Z" style="fill: #fce9af; stroke-width: 0px;"/>
    <path d="M287,942.6c-.7.7-1.9.8-2.9.6-.3,0-.5-.1-.8-.2v-.2h-.5c-.5-.2-1-.3-1.5-.4-.4,0-.7,0-1.1,0,0,0,0,.2,0,.3v27.7c.3,0,.6-.1,1-.2,2-.4,4-.8,6-1.2v-26.3Z" style="fill: #f9851f; stroke-width: 0px;"/>
    <path d="M285.4,934.4c-.4-2.2-.9-4.5-1.3-6.7,0,0,0,0,0,0-.4,0-.8,0-1.2,0-.4,2.2-.9,4.5-1.3,6.7,0,0,0,0,0,0,.6.2,1.2.3,2,.3s1.3-.1,1.8-.3Z" style="fill: #252352; stroke-width: 0px;"/>
    <path d="M266.9,943.3c.5,0,1.1.1,1.6.2h.5c0,0,0,.1,0,.1.3,0,.5,0,.8.1,1,0,2.2-.2,2.8-.9-.9-2.6-1.7-5.3-2.6-7.9-.7-2.2-1.4-4.3-2.1-6.5,0,0,0,0,0,0,.7,2.2,1.4,4.3,2.1,6.5-.5.2-1,.4-1.7.5-.8,0-1.4,0-2,0h0c-.2,2.7-.4,5.4-.6,8.1.4,0,.8,0,1.1,0Z" style="fill: #fce9af; stroke-width: 0px;"/>
    <path d="M268.5,943.6c-.5-.1-1-.2-1.6-.2-.4,0-.7,0-1.1,0,0,0,0,.2,0,.3l3.4,28.2c.7,0,1.4-.2,2.2-.3l-3.4-28h.5Z" style="fill: #00c9c0; stroke-width: 0px;"/>
    <path d="M269.9,943.8c-.3,0-.6,0-.8-.1l3.4,27.8c1.2-.2,2.4-.4,3.7-.6l-3.4-28.1c-.6.7-1.8,1-2.8.9Z" style="fill: #00c9c0; stroke-width: 0px;"/>
    <path d="M269.1,943.5h-.5c0,0-.5.1-.5.1l3.4,28c.3,0,.7-.1,1-.2l-3.4-27.8v-.2Z" style="fill: #f9851f; stroke-width: 0px;"/>
    <path d="M268.4,935.4c.7,0,1.3-.3,1.7-.5-.7-2.2-1.4-4.3-2.1-6.5,0,0,0,0,0,0-.4,0-.8,0-1.1.1-.2,2.3-.3,4.5-.5,6.8,0,0,0,0,0,0,.6.1,1.3.2,2,0Z" style="fill: #252352; stroke-width: 0px;"/>
    <path d="M302.3,920.8c-1.5,0-2.8,1.1-3,2.6.5-.6,1.3-1,2.2-1,1.6,0,3,1.3,3,3,0,.1,0,.2,0,.3.5-.5.8-1.2.8-2,0-1.6-1.3-3-3-3Z" style="fill: #d9660d; stroke-width: 0px;"/>
    <path d="M296.2,919.7c0-.1,0-.3,0-.4-.5.5-.8,1.3-.8,2.1l-.2,45.6c.3,0,.5-.1.8-.2l.2-47.1Z" style="fill: #d9660d; stroke-width: 0px;"/>
    <path d="M309.6,960.2v-.5s4.5,0,4.5,0v-6.5s-4.4,0-4.4,0v-.5s4.5,0,4.5,0v.5s0-3.5,0-3.5h-2.2s0-.5,0-.5h2.2s0,.2,0,.2v-3.2s-4.5,0-4.5,0v-.5s4.5,0,4.5,0v-3s-2.2,0-2.2,0v-.5s2.2,0,2.2,0v-10s-4.4,0-4.4,0v-.5s4.5,0,4.5,0v.4s0-3.4,0-3.4h-2.2s0-.5,0-.5h2.2s0,.3,0,.3v-3.3s-4.5,0-4.5,0v-.5s4.5,0,4.5,0v.2s0-3.2,0-3.2h-2.2s0-.5,0-.5h2.2s0-1.3,0-1.3c0-.2,0-.4,0-.6-.1-.6-.4-1.1-.8-1.5,0,0,0,0,0,0,0,0,0,0-.1,0-.5-.5-1.3-.8-2.1-.8h-2.7s0,0,0,0h-9.1c-1.6,0-2.9,1.1-3.1,2.7,0,.1,0,.2,0,.4l-.2,47.1c6.1-1.5,12.1-3.3,18.1-5.2v-1.4s-4.5,0-4.5,0ZM311.9,956.2h2.2s0,.5,0,.5h-2.2s0-.5,0-.5ZM311.9,935.1h2.2s0,.5,0,.5h-2.2s0-.5,0-.5ZM314.2,938.6v.5s-4.5,0-4.5,0v-.5s4.5,0,4.5,0ZM304.4,925.8c-.5.6-1.3,1-2.2,1-1.6,0-3-1.3-3-3,0-.1,0-.2,0-.3.2-1.5,1.4-2.6,3-2.6,1.6,0,3,1.3,3,3,0,.8-.3,1.5-.8,2Z" style="fill: #eba13a; stroke-width: 0px;"/>
    <polygon points="309.8 924.6 309.8 925.1 314.2 925.1 314.2 925.1 314.2 924.7 314.2 924.6 309.8 924.6" style="fill: #d9660d; stroke-width: 0px;"/>
    <polygon points="312 921.1 312 921.6 314.2 921.6 314.2 921.6 314.2 921.1 314.2 921.1 312 921.1" style="fill: #d9660d; stroke-width: 0px;"/>
    <polygon points="309.7 931.6 309.7 932.1 314.2 932.1 314.2 932.1 314.2 932 314.2 931.6 309.7 931.6" style="fill: #d9660d; stroke-width: 0px;"/>
    <polygon points="312 928.1 312 928.6 314.2 928.6 314.2 928.6 314.2 928.4 314.2 928.1 312 928.1" style="fill: #d9660d; stroke-width: 0px;"/>
    <rect x="311.7" y="936.7" width=".5" height="4.5" transform="translate(-628.3 1246.9) rotate(-89.8)" style="fill: #d9660d; stroke-width: 0px;"/>
    <rect x="312.8" y="934.3" width=".5" height="2.2" transform="translate(-623.6 1244.6) rotate(-89.8)" style="fill: #d9660d; stroke-width: 0px;"/>
    <polygon points="309.7 945.6 309.7 946.2 314.1 946.2 314.1 946.2 314.1 945.7 314.1 945.7 309.7 945.6" style="fill: #d9660d; stroke-width: 0px;"/>
    <polygon points="311.9 942.1 311.9 942.7 314.1 942.7 314.1 942.7 314.1 942.1 314.1 942.1 311.9 942.1" style="fill: #d9660d; stroke-width: 0px;"/>
    <polygon points="309.6 952.7 309.6 953.2 314.1 953.2 314.1 953.2 314.1 953.2 314.1 952.7 309.6 952.7" style="fill: #d9660d; stroke-width: 0px;"/>
    <polygon points="311.9 949.2 311.9 949.7 314.1 949.7 314.1 949.7 314.1 949.4 314.1 949.2 311.9 949.2" style="fill: #d9660d; stroke-width: 0px;"/>
    <polygon points="309.6 959.7 309.6 960.2 314.1 960.2 314.1 960.2 314.1 959.7 314.1 959.7 309.6 959.7" style="fill: #d9660d; stroke-width: 0px;"/>
    <rect x="312.7" y="955.3" width=".5" height="2.2" transform="translate(-644.7 1265.7) rotate(-89.8)" style="fill: #d9660d; stroke-width: 0px;"/>
    <path d="M326.1,1007.4s0,0,0,0c0-.6,0-1.2,0-1.9,0-.1,0-.2,0-.4,0-.2,0-.3,0-.5,0-.3,0-.5,0-.8,0-.2,0-.3,0-.5,0-.2,0-.3,0-.4-.6-5.6-1.8-11-2.6-16.6,0-.2,0-.5,0-.7-.2-1.5-.3-2.9-.4-4.4,0-.6,0-1.3,0-1.9,0-.2,0-.4,0-.5v-.2c0-4.1,0-8.1,0-12.2-13.1,4.7-26.7,8.4-40.5,10.9-14.5,2.6-29.2,4-43.9,4.1h0c0,0-.1,0-.2,0,0,1,0,1.9-.1,2.9,0,.2,0,.5,0,.7-.2,5.5-.2,10.9-.1,16.4,0,.3,0,.5,0,.8,0,1.7,0,3.4.2,5.1,0,.2,0,.5,0,.7.3,5.9.7,11.7,1.3,17.5,0,.2,0,.5,0,.7.2,1.8.4,3.7.7,5.5,0,.3,0,.5.1.8.3,1.9.5,3.7.8,5.5.1.8.3,1.7.4,2.5.4,2.3.8,4.7,1.3,7,0,.2,0,.4.1.7.6,2.7,1.2,5.4,1.8,8,1.1-.2,2.1-.4,3.1-.6.8-.1,1.6-.3,2.5-.4.7-.1,1.3-.2,2-.3,0,0,0,0,.1,0,2.7-.4,5.5-.9,8.5-1.3.3,0,.6,0,.9-.1,1.5-.2,3-.5,4.6-.7.3,0,.6,0,.9-.1.3,0,.5,0,.8-.1.2,0,.3,0,.5,0,.6-.1,1.3-.2,1.9-.3.2,0,.4,0,.6-.1.7-.1,1.4-.2,2.1-.4.2,0,.3,0,.5,0,.7-.1,1.5-.3,2.2-.4.2,0,.3,0,.5,0,.7-.1,1.5-.3,2.2-.4.2,0,.3,0,.5,0,.8-.2,1.5-.3,2.3-.5.1,0,.3,0,.4,0,.8-.2,1.6-.4,2.4-.6,0,0,.2,0,.3,0,.9-.2,1.7-.4,2.6-.6,0,0,0,0,0,0,.9-.2,1.8-.5,2.6-.7.3,0,.7-.2,1-.3.1,0,.3,0,.4-.1.2,0,.5-.1.7-.2.8-.3,1.6-.5,2.4-.8,0,0,0,0,0,0,.8-.3,1.5-.5,2.2-.8,0,0,.2,0,.3-.1.7-.3,1.4-.5,2-.8.1,0,.3-.1.4-.2.6-.3,1.2-.5,1.9-.8.2,0,.3-.1.5-.2.6-.3,1.2-.6,1.8-.8.2,0,.3-.2.5-.3.6-.3,1.1-.6,1.7-.9.2,0,.3-.2.5-.3.6-.3,1.1-.7,1.7-1,.1,0,.3-.2.4-.3.6-.4,1.1-.7,1.6-1.1,0,0,.2-.1.3-.2,0,0,.2-.1.3-.2,0,0,.1,0,.2-.2.5-.4,1-.8,1.5-1.2,0,0,.2-.1.3-.2.4-.3.8-.7,1.2-1,.2-.2.4-.4.6-.6.3-.3.6-.6.9-.9.3-.2.5-.5.7-.7.3-.3.5-.6.8-.9.3-.3.5-.6.8-.8.3-.3.5-.6.7-.9.2-.3.5-.6.7-.9.2-.3.5-.6.7-1,.2-.3.4-.6.6-.9.1-.2.2-.4.3-.5.1-.2.3-.5.4-.7,0,0,0,0,0-.1,0-.1.1-.2.2-.3.3-.6.7-1.2,1-1.8,0,0,0,0,0,0,0,0,0,0,0,0,0,0,0,0,0-.1,0-.1.1-.2.2-.4,0-.2.1-.3.2-.5.2-.5.4-.9.6-1.4.1-.3.2-.6.3-.8.2-.7.5-1.3.7-2,0-.3.2-.6.3-.9.1-.5.3-.9.4-1.4,0-.4.2-.7.3-1.1.1-.5.2-1,.3-1.5,0-.3.1-.5.2-.8.2-1.3.3-2.5.3-3.7,0-.2,0-.5,0-.7,0,0,0-.1,0-.2,0-.1,0-.2,0-.3,0-.2,0-.3,0-.5,0-.3,0-.6,0-.9Z" style="fill: #33c9f1; stroke-width: 0px;"/>
    <path d="M175,993.9l10.8,2.1c.8.2,1.6.6,2.2,1.1l.7-5h0s-14.8-4.1-14.8-4.1l-.7,5.9c.6-.2,1.2-.2,1.9,0Z" style="fill: #252352; stroke-width: 0px;"/>
    <path d="M174.8,994.9c-.2,0-.4,0-.6,0-.4,0-.8,0-1.2.2l-1,7.8c.3.2.7.4,1.1.5l4,.8v-1.9c0-.7.6-1.3,1.3-1.3s1.3.6,1.3,1.3v2.4l4.2.8c.8.2,1.7,0,2.4-.5.2-.1.4-.3.5-.4l.9-6c0,0,0-.1,0-.2-.5-.7-1.2-1.2-2.1-1.4l-10.8-2.1Z" style="fill: #252352; stroke-width: 0px;"/>
    <path d="M186.7,1006c-.7.4-1.4.6-2.1.6s-.6,0-.8,0l-4-.8v2.3c0,.7-.6,1.3-1.3,1.3s-1.3-.6-1.3-1.3v-2.8l-4.2-.8c-.4,0-.7-.2-1.1-.4l-1.4,11.7-.2,2,6.8,13.5,7.1-8.1h0c0-.1,2.4-17.1,2.4-17.1ZM180.4,1014.8c0,1.4-1.1,2.5-2.5,2.5s-2.5-1.1-2.5-2.5,1.1-2.5,2.5-2.5,2.5,1.1,2.5,2.5Z" style="fill: #252352; stroke-width: 0px;"/>
    <path d="M176.4,1014.8c0,.8.7,1.5,1.5,1.5s1.5-.7,1.5-1.5-.7-1.5-1.5-1.5-1.5.7-1.5,1.5Z" style="fill: #252352; stroke-width: 0px;"/>
    <path d="M175,993.9c-.6-.1-1.3,0-1.9,0-1.6.4-2.8,1.7-3.2,3.3l-.4,2c-.4,2,.6,3.8,2.3,4.7.3.2.7.3,1.1.4l4.2.8v2.8c0,.7.6,1.3,1.3,1.3s1.3-.6,1.3-1.3v-2.3l4,.8c.3,0,.6,0,.8,0,.7,0,1.5-.2,2.1-.6,0,0,.2-.1.3-.2,1-.6,1.6-1.6,1.8-2.8l.4-2c.2-1.1,0-2.3-.7-3.2-.2-.3-.4-.5-.6-.7-.6-.6-1.3-1-2.2-1.1l-10.8-2.1ZM187.6,998.4c0,0,0,.1,0,.2.4.7.6,1.5.4,2.3l-.4,2c-.1.6-.4,1.2-.9,1.7-.2.2-.3.3-.5.4-.7.5-1.6.7-2.4.5l-4.2-.8v-2.4c0-.7-.6-1.3-1.3-1.3s-1.3.6-1.3,1.3v1.9l-4-.8c-.4,0-.8-.2-1.1-.5-1.1-.7-1.7-2-1.4-3.4l.4-2c.2-1.1,1-2,2-2.4.4-.2.8-.2,1.2-.2s.4,0,.6,0l10.8,2.1c.9.2,1.6.7,2.1,1.4Z" style="fill: #eba13a; stroke-width: 0px;"/>
    <path d="M175.3,1014.8c0,1.4,1.1,2.5,2.5,2.5s2.5-1.1,2.5-2.5-1.1-2.5-2.5-2.5-2.5,1.1-2.5,2.5ZM179.4,1014.8c0,.8-.7,1.5-1.5,1.5s-1.5-.7-1.5-1.5.7-1.5,1.5-1.5,1.5.7,1.5,1.5Z" style="fill: #eba13a; stroke-width: 0px;"/>
    <path d="M100.8,982.8v-1.9c0-.7.6-1.3,1.3-1.3s1.3.6,1.3,1.3v2.4l4.2.8c.8.2,1.7,0,2.4-.5.2-.1.4-.3.5-.4l.9-6c0,0,0-.1,0-.2-.5-.7-1.2-1.2-2.1-1.4l-10.8-2.1c-.2,0-.4,0-.6,0-.4,0-.8,0-1.2.2l-1,7.8c.3.2.7.4,1.1.5l4,.8Z" style="fill: #252352; stroke-width: 0px;"/>
    <path d="M98.7,972.5l10.7,2.1c.8.2,1.6.6,2.2,1.1l.7-4.6-14.8-4.1-.4,2.9-.3,2.6c.6-.2,1.2-.2,1.9,0Z" style="fill: #252352; stroke-width: 0px;"/>
    <path d="M101.5,992c-.8,0-1.5.7-1.5,1.5s.7,1.5,1.5,1.5,1.5-.7,1.5-1.5-.7-1.5-1.5-1.5Z" style="fill: #252352; stroke-width: 0px;"/>
    <path d="M110.3,984.7c-.7.4-1.4.6-2.1.6s-.6,0-.8,0l-4-.8v2.3c0,.7-.6,1.3-1.3,1.3s-1.3-.6-1.3-1.3v-2.8l-4.2-.8c-.4,0-.7-.2-1.1-.4l-1.7,13.7,6.8,13.5,1.6-1.9,5.6-6.3,2.4-17ZM101.5,996c-1.4,0-2.5-1.1-2.5-2.5s1.1-2.5,2.5-2.5,2.5,1.1,2.5,2.5-1.1,2.5-2.5,2.5Z" style="fill: #252352; stroke-width: 0px;"/>
    <path d="M100.8,983.9v2.8c0,.7.6,1.3,1.3,1.3s1.3-.6,1.3-1.3v-2.3l4,.8c.3,0,.6,0,.8,0,.7,0,1.5-.2,2.1-.6,0,0,.2-.1.3-.2,1-.6,1.6-1.6,1.8-2.8l.4-2c.2-1.1,0-2.3-.7-3.2-.2-.3-.4-.5-.6-.7-.6-.6-1.3-1-2.2-1.1l-10.7-2.1c-.6-.1-1.3,0-1.9,0-1.6.4-2.8,1.7-3.2,3.3l-.4,2c-.4,2,.6,3.8,2.3,4.7.3.2.7.3,1.1.4l4.2.8ZM94.7,980.6c-.5-.7-.7-1.6-.5-2.4l.4-2c.2-1.1,1-2,2-2.4.4-.2.8-.2,1.2-.2s.4,0,.6,0l10.8,2.1c.9.2,1.6.7,2.1,1.4,0,0,0,.1,0,.2.4.7.6,1.5.4,2.3l-.4,2c-.1.6-.4,1.2-.9,1.7-.2.2-.3.3-.5.4-.7.5-1.6.7-2.4.5l-4.2-.8v-2.4c0-.7-.6-1.3-1.3-1.3s-1.3.6-1.3,1.3v1.9l-4-.8c-.4,0-.8-.2-1.1-.5-.4-.2-.7-.5-.9-.9Z" style="fill: #eba13a; stroke-width: 0px;"/>
    <path d="M101.5,990.9c-1.4,0-2.5,1.1-2.5,2.5s1.1,2.5,2.5,2.5,2.5-1.1,2.5-2.5-1.1-2.5-2.5-2.5ZM101.5,994.9c-.8,0-1.5-.7-1.5-1.5s.7-1.5,1.5-1.5,1.5.7,1.5,1.5-.7,1.5-1.5,1.5Z" style="fill: #eba13a; stroke-width: 0px;"/>
    <path d="M123.8,789.6h.3c.2,0,23.6-2.2,50.1,3.6,25.4,5.5,44.8,15.9,57.8,31.1,4.8,5.7,8.8,12,11.9,18.9,20.7,46.6,28,66.8,30.5,74.7.7,2.3,2.7,3.9,5.1,4,.1,0,.3,0,.4,0,2.2,0,4.2-1.2,5.2-3.3,1.7-3.5,4.3-9.4,7.3-17,7.9-20,19-51.6,25.6-82,0,0,0,0,0,0-.9-3.1-2-6.2-3.2-9.2-.2-.6-.5-1.2-.8-1.8-.6-1.3-1.1-2.7-1.7-4,0,0,0,0,0,0,0,0,0,0,0,0-5.1,29.5-15.9,62.4-24.5,85.2-1.3,3.3-2.5,6.4-3.6,9.2-1.5,3.7-2.8,7-4,9.8-2.8-7.9-7.8-20.8-16.6-41.6-.3-.8-.6-1.5-1-2.3,0-.2-.1-.3-.2-.5-3.1-7.3-6.7-15.5-10.8-24.8-12.4-27.9-38.6-46.9-75.9-54.9-.8-.2-1.6-.3-2.4-.5-9.3-1.9-18.1-2.8-25.7-3.3-7.7-.5-14-.4-18.3-.3-.3,0-.7,0-1,0,0,0,0,0,0,0,0,0,0,0,0,0-.5.3-1.1.6-1.6.9-.5.3-1,.5-1.4.8-.5.3-1,.6-1.6,1-.5.3-1,.6-1.5.9,0,0,0,0,0,0-1.3.9-2.6,1.8-3.8,2.8-.8.7-1.6,1.3-2.4,2.1l7.7.3Z" style="fill: #33c9f1; stroke-width: 0px;"/>
    <path d="M238.4,981.5c14.7,0,29.5-1.5,43.9-4.1,13.7-2.5,27.3-6.2,40.5-10.9.2,0,.4-.1.6-.2,1.9-.7,2.9-2.8,2.2-4.7-.5-1.3-1.7-2.2-3-2.4-.6,0-1.2,0-1.7.2-2.3.8-4.5,1.6-6.8,2.4-5.9,2-12,3.7-18.1,5.2-.3,0-.5.1-.8.2-2.7.7-5.5,1.3-8.2,1.9-2,.4-4,.8-6,1.2-.3,0-.6.1-1,.2-1.3.2-2.6.5-4,.7-1.2.2-2.4.4-3.7.6-.3,0-.7.1-1,.2-.7.1-1.4.2-2.2.3-10.1,1.3-20.4,2.1-30.6,2.1,0,0-.2,0-.3,0-2,0-3.7,1.7-3.7,3.7,0,2,1.6,3.6,3.5,3.7,0,0,.1,0,.2,0h0Z" style="fill: #fae5d2; stroke-width: 0px;"/>
    <path d="M253.6,713c-6.6.4-12.5,1.5-11.9,3.9,0,0,0,.2,0,.2.2.6.5,1,.9,1.4,1.1,1,3,1.2,5.2,1.3.6,0,1.2,0,1.9,0,2,0,4.1-.1,5.8,0,.3,0,.6,0,.9.2.9.2,1.7.5,2.1,1.1l-3.9,2.4c-1.2.7-1.5,2.1-.9,3.3,0,0,0,.1,0,.2.4.7,1.3,1.2,2.2,1.2.3,0,.7-.1,1.1-.2-.2.7-.1,1.4.3,2,.4.6,1,1,1.6,1.1.2,0,.4,0,.6,0,.4,0,.8-.1,1.2-.3l1-.6c0,.4,0,.8.2,1.2.4,1,1.4,1.6,2.4,1.6.2,0,.6-.1.9-.2l3.1-1.3c3.6,1.8,7.4,3,10.1,3.4,1.1-4.1,3.3-8.8,5.4-12.5-3.1-3.8-6.9-6.3-11.1-7.7-1.7-.6-3.4-1-5.2-1.2-2.3-.3-5.6-.5-9.1-.4-1.3,0-2.7,0-4,0-.3,0-.6,0-.9,0Z" style="fill: #ffe1d9; stroke-width: 0px;"/>
    <path d="M278.5,734.7c-.8,3-1.1,5.6-.5,7.4.5,1.2,1.7,2.4,3.3,3.4,1.2-3.7,3.7-11.5,4.9-14.5,1.7-4.5,5.2-11.5,7.1-15.1-1.8-.5-3.3-.7-4.2-.4-.7.2-1.7,1.3-2.8,2.8-.8,1.1-1.6,2.4-2.5,3.9-2.1,3.7-4.3,8.4-5.4,12.5Z" style="fill: #fff; stroke-width: 0px;"/>
    <path d="M424.2,1129.1c2.7.3,5.9,1.1,8.3,3,3.3,2.6,5.4,7.3,5.8,10.6,4.3-1.1,7.6-3.2,7.6-3.2,0,0,0,0,0,0l2.6-10.4-22-7.7-2.4,7.6Z" style="fill: #ffe1d9; stroke-width: 0px;"/>
    <path d="M382.9,1173.1h0s0-.4,0-.4c0,.2,0,.4,0,.4Z" style="fill: #f1f2f2; stroke-width: 0px;"/>
    <path d="M438.3,1142.6c0,.6.1,1.1,0,1.5-.3,6.4-7.7,1.8-12.9-.2-6.9-2.6-12.4-5-11.1-5.9-3.6-.7-8.1-1.9-11.4-1.7-11.2.7-21.1,7.8-19.9,31.1l43,2.2s18.3-.7,25.1-4.3c.4-.8.7-1.6.9-2.6,2.2-11.7-5.6-22.6-6.1-23.3,0,0,0,0,0,0,0,0-3.3,2-7.6,3.2ZM418.3,1141.4l.2,1.5c-1.7.2-3.2.3-4.6.5v-1.5c1.3-.1,2.7-.3,4.4-.4ZM404.7,1141.8c1.3.1,2.8.2,4.5.2v1.5c-1,0-1.9,0-2.8,0-.7,0-1.3,0-1.9-.2l.2-1.5ZM397.8,1138.2c.3,1.2,1.2,2,2.7,2.7l-.6,1.4c-1.9-.8-3.1-2.1-3.5-3.7l1.5-.4ZM415.3,1166.4c-12.9-2.4-7.7-24.2,3.3-22.6,3.4.5,9.3,5.5,14.5,6,5.1.6,9.9.4,9.7,3.2-.4,5.3-13.2,16-27.5,13.4Z" style="fill: #f1f2f2; stroke-width: 0px;"/>
    <path d="M425.6,1144c5.1,2,12.6,6.6,12.9.2,0-.5,0-1,0-1.5-.4-3.3-2.5-8-5.8-10.6-2.5-1.9-5.7-2.7-8.3-3-1.5-.2-2.9-.2-3.9-.3-5.5-.2,3.7,8.5-3.5,8.8-1.3,0-2,.2-2.3.4-1.3,1,4.2,3.3,11.1,5.9Z" style="fill: #74777b; stroke-width: 0px;"/>
    <path d="M383.2,1167.5h-.4s.2,5.3.2,5.3v.4s0,1.7,0,1.7l42.4,2.4,23.7-3,3.3-9.8c-.4.3-.8.6-1.3.8-6.8,3.6-25.1,4.3-25.1,4.3l-43-2.2Z" style="fill: #74777b; stroke-width: 0px;"/>
    <path d="M409.2,1143.6v-1.5c-1.7,0-3.2,0-4.5-.2l-.2,1.5c.6,0,1.2.1,1.9.2.9,0,1.8,0,2.8,0Z" style="fill: #74777b; stroke-width: 0px;"/>
    <path d="M418.5,1142.9l-.2-1.5c-1.7.2-3.2.3-4.6.4v1.5c1.5-.1,3-.3,4.7-.5Z" style="fill: #74777b; stroke-width: 0px;"/>
    <path d="M399.8,1142.2l.6-1.4c-1.5-.6-2.4-1.5-2.7-2.7l-1.5.4c.4,1.6,1.6,2.9,3.5,3.7Z" style="fill: #74777b; stroke-width: 0px;"/>
    <path d="M433.1,1149.8c-5.2-.6-11.2-5.6-14.5-6-11-1.5-16.1,20.2-3.3,22.6,14.3,2.7,27.1-8.1,27.5-13.4.2-2.8-4.6-2.6-9.7-3.2Z" style="fill: #74777b; stroke-width: 0px;"/>
    <path d="M460.3,650.1l.9,1.2,11,9.7,17.7-20.6-3.6-17.4c-5.2,5.5-11,10.2-16.5,13.1-4,2.1-8.3,3.7-12.6,4.9l1.7,8.4,1.1,1,.3-.2Z" style="fill: #edbbab; stroke-width: 0px;"/>
    <path d="M487.7,700.9l20.5,68.9c2.9-2,6-4,9.1-6.1l-22.6-105.5-10.1,11.6c-.2,2.5-.9,4.7-2,6.5l5.1,24.6Z" style="fill: #f1f2f2; stroke-width: 0px;"/>
    <path d="M469,676.1c-.1-.2-.3-.4-.4-.6v.3c0,0-6.3-6.3-6.3-6.3l23.3,115.5c.4-.3.9-.6,1.4-.9l-6.5-52.6-11.5-55.4Z" style="fill: #f1f2f2; stroke-width: 0px;"/>
    <path d="M520.8,819.9l.9,4.4,8.2-1.7-3.4-16.1c-5.5,3-10.6,5.7-15.1,8.1l1.5,7,8-1.7Z" style="fill: #f1f2f2; stroke-width: 0px;"/>
    <path d="M494.7,829.9l1.2-.3-.9-4.4,4.8-1-.7-3.4c-2,1-3.1,1.5-3.1,1.5,0,0-.5-.6-1.3-1.7-.6.3-1.2.5-1.7.6l1.7,8.6Z" style="fill: #f1f2f2; stroke-width: 0px;"/>
    <polygon points="460.1 650.3 461.2 651.3 460.3 650.1 460.1 650.3" style="fill: #f1f2f2; stroke-width: 0px;"/>
    <path d="M545,860.3h-3.8s-3.2,0-3.2,0l-5.3-24.8-8.2,1.7.9,4.4-25.8,5.4-.9-4.4-1.3.3,5.3,26.2s-1.2.2-3,.5c-5.1.9-8.8.9-12.5,1-2.1,0-5.4-.4-7.4-.7l-57.6,249.9,4.6,1.6,22,7.7,7.5,2.6,67.9-257.2c1.8-.3,3.6-.6,5.4-1l8.9,260.8,6.7.7,24.5,2.7,4.7.5,3.5-277.8h-.7c2.3-2.1,2.7-6,2-10.6-1.8,1.3-4,2.5-6.5,3.6-2.9,1.3-19.4,5-27.6,6.9Z" style="fill: #555; stroke-width: 0px;"/>
    <path d="M512.8,821.6l-1.5-7c-5.3,2.8-9.6,4.9-12.3,6.3l.7,3.4,13-2.7Z" style="fill: #fff; stroke-width: 0px;"/>
    <path d="M480.5,731.5l-2.6-20.8-.8-5.1c-.1-.3-.3-.6-.3-.9,0-.5,0-.9,0-1.3l-3.5-23.1c-.4,0-.9-.2-1.3-.4-1-.8-1.9-2-2.7-3.4-.1-.2-.3-.3-.4-.5l11.5,55.4Z" style="fill: #fff; stroke-width: 0px;"/>
    <path d="M481,678.3l6.7,22.6-5.1-24.6c-.5.8-1,1.4-1.6,2Z" style="fill: #fff; stroke-width: 0px;"/>
    <path d="M476.9,704.8c0,.3.2.6.3.9l-.3-2.2c0,.4,0,.9,0,1.3Z" style="fill: #f1f2f2; stroke-width: 0px;"/>
    <path d="M478,710.8l2.6,20.8,6.5,52.6c.6-.4,1.2-.8,1.8-1.2l-10.8-72.2Z" style="fill: #0c6ed6; stroke-width: 0px;"/>
    <path d="M504.7,772.2l-25.8-92.5c-.5.2-.9.4-1.4.4-.3,0-.5,0-.8,0,1-.3,1.9-.8,2.7-1.5,0,0,0,0,0,0,.9-1.6,1.4-3.8,1.6-6.4l-8.4-10.2-3.9,13.2c.2.5.5.9.7,1.4.8,1.4,1.7,2.6,2.7,3.4.4.2.9.3,1.3.4l3.5,23.1.3,2.2.8,5.1,10.8,72.2c3.7-2.5,8.1-5.5,12.8-8.6,1-.7,2.1-1.4,3.1-2.1Z" style="fill: #3f8cff; stroke-width: 0px;"/>
    <path d="M469.4,676.6c-.3-.4-.5-.9-.7-1.4v.3c0,.2.2.4.3.6.1.2.3.3.4.5Z" style="fill: #0c6ed6; stroke-width: 0px;"/>
    <path d="M479.4,678.6s0,0,0,0c-.8.7-1.7,1.2-2.7,1.5.3,0,.5,0,.8,0,.5,0,1-.3,1.4-.4l25.8,92.5c1.2-.8,2.3-1.6,3.5-2.4l-20.5-68.9-6.7-22.6c.6-.6,1.1-1.2,1.6-2,1.1-1.8,1.8-4,2-6.5l-2.9,3.3-.7-.8c-.1,2.5-.7,4.8-1.6,6.4Z" style="fill: #0c6ed6; stroke-width: 0px;"/>
    <polygon points="462.3 669.6 468.5 675.9 468.6 675.5 468.7 675.2 472.5 662.1 481 672.3 481.7 673.1 484.6 669.8 494.7 658.2 490.7 639.4 489.9 640.3 472.2 660.9 461.2 651.3 460.1 650.3 459 649.3 458.1 648.5 462.3 669.6" style="fill: #fff; stroke-width: 0px;"/>
    <polygon points="495.9 829.7 494.7 829.9 497.3 842.9 498.6 842.6 495.9 829.7" style="fill: #a67c52; stroke-width: 0px;"/>
    <polygon points="529.9 822.6 521.7 824.3 524.4 837.2 532.6 835.5 529.9 822.6" style="fill: #a67c52; stroke-width: 0px;"/>
    <polygon points="521.7 824.3 520.8 819.9 512.8 821.6 499.8 824.3 495 825.3 495.9 829.7 498.6 842.6 499.5 847 525.3 841.6 524.4 837.2 521.7 824.3" style="fill: #b3b3b3; stroke-width: 0px;"/>
    <path d="M494.7,658.2l22.6,105.5c1.1-.7,2.2-1.5,3.3-2.2l-25.6-123.3c-2.8.1-4.5.2-4.5.2l.2,1,4,18.8Z" style="fill: #0c6ed6; stroke-width: 0px;"/>
    <path d="M532.6,835.5l5.3,24.8h3.2s-11.5-55.5-11.5-55.5c-1.1.6-2.1,1.2-3.2,1.7l3.4,16.1,2.8,12.9Z" style="fill: #0c6ed6; stroke-width: 0px;"/>
    <rect x="557" y="792.4" width="3.1" height="16.7" transform="translate(-380.5 1067.8) rotate(-71)" style="fill: #0c6ed6; stroke-width: 0px;"/>
    <path d="M453.7,649.2c2.6-1,4.2-1.6,4.2-1.6,0,0-1.9-.1-4.2,1.6Z" style="fill: #183b59; stroke-width: 0px;"/>
    <path d="M487,870.6c3.7-.1,7.5-.1,12.5-1l-10-48.2c-.7-.2-1.4-.6-2.1-1.2-2.5.4-5.4.8-8.6,1.3h0c-.1.4-.2.7-.4.9-.6.8-1.7,1.3-2.7,1-.4-.1-.8-.3-1.1-.6v1.2c-.2.4-.4.8-.6,1.2-.5.8-1.4,1.1-2.3,1.1-.7,0-1.4-.5-1.8-1-.1.4-.3.8-.5,1-.5.8-1.4,1.1-2.3,1.1-.2,0-.5,0-.7-.2-.1.1-.2.2-.3.4,6.7,24.7,11.7,42.3,11.7,42.3,0,0,.7.1,1.7.3,2,.3,5.4.8,7.4.7Z" style="fill: #183b59; stroke-width: 0px;"/>
    <path d="M482.4,787.2c1-.7,2-1.4,3.2-2.2l-23.3-115.5-4.2-21-.2-.9s-1.6.6-4.2,1.6l28.7,138.1Z" style="fill: #0c6ed6; stroke-width: 0px;"/>
    <path d="M494.7,829.9l-1.7-8.6c-1.1.3-2.1.4-2.9.2-.2,0-.3,0-.5-.2l10,48.2c1.8-.3,3-.5,3-.5l-5.3-26.2-2.6-12.9Z" style="fill: #0c6ed6; stroke-width: 0px;"/>
    <path d="M374,581.1c0,0,0,.2,0,.2-.3-1.3-.3-2.6-.2-3.9,0-.4.1-.9.2-1.3-1.7-2.7-3.7-5.2-5.6-7.8-.1.4-.3.7-.4,1.1-.5,1.6-2.2,2.4-3.8,1.9-1.6-.5-2.4-2.2-1.9-3.8.6-1.9,1.4-3.5,2.2-4.8-1.8-2.7-3.3-5.7-4.6-9.1-1.9-5.3-3.4-11-4.4-16.6-.5,0-.8,0-.8,0,0,0-8.9-.6-18.7-6.4,6.7,25.1,24.4,44.4,40.3,57.4-.3-.6-.7-1.2-1-1.9-.7-1.7-1.2-3.4-1.4-5.2Z" style="fill: #562a19; stroke-width: 0px;"/>
    <path d="M486.3,623c7.7-8.1,14.3-17.9,17.4-26.4,1.3-3.6,2.5-7.2,3.4-10.9-.6-2.8-2.8-11.5-7.3-22.1-.5,0-1.1.1-1.6.1-5.4,0-10.3-3.7-13.2-9.6-.3-1.7-.5-3.6-.6-5.5-.2-10.3,4.4-18.8,10.2-18.9,5.8,0,10.6,8.2,10.8,18.6.1,6-1.4,11.4-3.8,14.9,6.9-2.3,12-11.1,11.8-21.4-.2-12-7.3-21.6-15.9-21.5-8,.1-14.5,8.7-15.1,19.6-.2-.2-.3-.3-.5-.5,0,2.2-.3,3.2-.3,3.2l-15.4-26.2c-3.3-5.6-7.6-10.4-12.9-14-.7,2.4-1.1,3.9-1.1,3.9l-18.7,2.7c1.4.9,2.8,1.9,4,2.9-3.7-.8-7.4-1.4-11-1.9l-14.2,2,23.3,10.7s-28.7,10.1-50.8,13.5c-6.8,1-25.4,1.1-29.4,1.1,1,5.6,2.5,11.3,4.4,16.6,1.2,3.4,2.8,6.3,4.6,9.1,6-9.4,17-7.5,22.6-6.5,1.1.2,2.1.4,2.9.4,1.7.2,2.9,1.6,2.7,3.3-.1,1-.7,1.9-1.6,2.4-.5.3-1.1.4-1.7.3-1,0-2.1-.3-3.3-.5-8.1-1.4-14.5-1.8-17.7,6.2,1.9,2.6,3.8,5.1,5.6,7.8.2-.9.4-1.7.8-2.6.5-1.2,1.4-2.4,2.3-3.3.9-1,2-1.8,3.2-2.5,1.2-.7,2.5-1.1,3.9-1.4,1.4-.2,2.7-.3,4,0,2.7.3,5.1,1.3,7.4,2.5-.4,0-.8-.1-1.2-.2,3.3,1.5,6,3.9,7.3,6.9,1.6,3.7.4,7.5-2.1,10.7-.8,1.3-1.8,2.5-3,3.6-1.5,1.3-3.1,2.4-4.9,3.1-1.8.8-3.8,1.2-5.8,1.2-1,0-2,0-2.9-.3-.8-.2-1.6-.5-2.3-1.1-.2,0-.4-.2-.6-.3.1,1,.2,2.1.3,3.2,1.1,26.5,19.9,38.3,41.7,44.9,11.6,3.5,23.7,3.6,35,.6,4.3-1.2,8.6-2.8,12.6-4.9,5.5-2.8,11.2-7.5,16.5-13.1ZM418.7,540.8c1.2-1,2.8-2.5,4.6-4.1,5.4-5.1,12.1-11.4,17.9-12.1,1.7-.2,3.2,1,3.4,2.6.1,1.1-.3,2.2-1.2,2.8-.4.3-.9.5-1.4.6-3.9.5-10.3,6.5-14.5,10.5-1.9,1.8-3.5,3.3-4.9,4.4-1.3,1-3.2.8-4.2-.5-1-1.3-.8-3.2.5-4.2ZM414.4,601.9c-1.7-.1-3.4-.5-5.1-1.6-.8-.5-1.6-1.3-2-2.3l-.2-.4c0-.1-.1-.4-.2-.5,0-.3,0-.6-.1-.9,0-.5,0-1,0-1.4.2-1.7.6-3.2.9-4.8l1.1-4.5c.3-1.5.7-3,.8-4.5.1-1.5.1-3-.7-4.4.7.4,1.2,1.2,1.5,1.9.3.8.5,1.6.7,2.4.2,1.6.2,3.3,0,4.9-.1,1.6-.4,3.2-.7,4.7-.3,1.5-.6,3.1-.8,4.5,0,.3,0,.7,0,1,0,.1,0,.2,0,.3,0,0,0,0,0,0v.2c.3.5.6.9,1.1,1.2.9.7,2.3,1.2,3.7,1.6,1.4.3,2.9.5,4.5.6,1.5,0,3.1,0,4.6-.2-.6.5-1.4.8-2.2,1.1-.8.3-1.6.5-2.4.6-1.6.3-3.2.4-4.9.3ZM440.1,608.9l-6.9,2.6c-2.3.9-4.5,1.7-6.8,2.7-2.2,1-4.4,2-6.7,3.2,1.3-2.3,3.2-4.1,5.4-5.7,2.1-1.5,4.5-2.7,6.9-3.6,2.4-.9,4.9-1.6,7.4-2,2.5-.4,5.1-.6,7.7-.2-2.3,1.1-4.7,2.1-7,3ZM438.8,568.1c-3,.6-6.2.7-9-.4.5,0,1,0,1.4,0-2.7-.6-5.1-2-6.6-4.3-1-1.6-1.5-3.5-1.6-5.4,0,0,0,.2,0,.2,0-3.9.4-8,2.3-11.6,1.8-3.7,5-6.8,8.8-8.3,3.9-1.6,8.2-1.6,12.1-.5,2.9.8,5.6,2.2,7.8,4.3.8.7,1.5,1.5,2,2.3,1.7,2.6,1.8,5.5,1,8.4.3-.6.6-1.3.8-1.9-.1,3-1.4,6-3.4,8.3-1.9,2.4-4.4,4.3-7.1,5.8-2.7,1.5-5.5,2.6-8.5,3.1Z" style="fill: #ffe1d9; stroke-width: 0px;"/>
    <path d="M415.8,445.9s25.4-7.6,37.2,6.2c9.6,11.2,3.1,39.7.3,50.1,5.3,3.6,9.7,8.5,12.9,14l15.4,26.2s.3-.9.3-3.2c.2.2.3.3.5.5.7-10.9,7.1-19.5,15.1-19.6,8.6-.1,15.7,9.5,15.9,21.5.2,10.4-4.9,19.2-11.8,21.4-.6.2-1.2.3-1.8.4,4.5,10.6,6.6,19.3,7.3,22.1.1.6.2.9.2.9,0,0,18.6-42.9,6.4-98-2.1-9.5-7.8-64.3-91.6-61.8,9.2.5,14,3,14,3l-20.3,16.2Z" style="fill: #562a19; stroke-width: 0px;"/>
    <path d="M505.5,548.2c-.2-10.3-5-18.7-10.8-18.6-5.8.1-10.3,8.6-10.2,18.9,0,1.9.2,3.8.6,5.5,2.9,5.9,7.7,9.7,13.2,9.6.5,0,1.1,0,1.6-.1.6,0,1.2-.2,1.8-.4,2.4-3.5,3.9-8.9,3.8-14.9Z" style="fill: #edbbab; stroke-width: 0px;"/>
    <path d="M423.8,599.9c-1.6.3-3.1.3-4.6.2-1.5,0-3-.2-4.5-.6-1.4-.3-2.8-.8-3.7-1.6-.5-.4-.8-.8-1-1.2v-.2c0,0,0,0,0,0,0,0,0-.2,0-.3,0-.3,0-.6,0-1,.2-1.4.5-3,.8-4.5.3-1.5.5-3.1.7-4.7.1-1.6.2-3.3,0-4.9-.1-.8-.3-1.6-.7-2.4-.3-.8-.9-1.5-1.5-1.9.8,1.4.8,2.9.7,4.4-.1,1.5-.5,3-.8,4.5l-1.1,4.5c-.4,1.5-.7,3.1-.9,4.8,0,.4,0,.9,0,1.4,0,.3,0,.5.1.9,0,.1,0,.4.2.5l.2.4c.5,1,1.2,1.8,2,2.3,1.6,1.1,3.4,1.4,5.1,1.6,1.7.1,3.3,0,4.9-.3.8-.2,1.6-.4,2.4-.6.8-.3,1.5-.6,2.2-1.1Z" style="fill: #edbbab; stroke-width: 0px;"/>
    <path d="M438.8,566.3c-4.4.5-8.9-1.5-11.5-5.5-3.6-5.6-1.9-13.1,3.7-16.7s13.1-1.9,16.7,3.7c3.3,5.2,2.1,12.1-2.6,15.9.4-.2.8-.4,1.1-.6,2.5-1.4,4.8-3,6.8-5,1.5-1.5,2.9-3.3,3.8-5.3.9-2.9.7-5.8-1-8.4-.5-.9-1.2-1.6-2-2.3.7.7,1.4,1.5,2,2.3-2.9-2.7-6.5-4.2-10.1-5-3.7-.7-7.5-.6-10.9.9-3.4,1.3-6.2,3.9-8.2,7.1-1.9,3.2-2.8,6.9-3.7,10.6,0,2,.6,3.9,1.6,5.4,1.5,2.3,3.8,3.7,6.6,4.3,2.5,0,4.8-.6,7.1-1.3.1,0,.2,0,.4-.1Z" style="fill: #fff; stroke-width: 0px;"/>
    <path d="M447.7,547.8c-3.6-5.6-11.1-7.3-16.7-3.7s-7.3,11.1-3.7,16.7c2.6,4,7.1,6,11.5,5.5,2.2-.7,4.4-1.6,6.4-2.7,4.7-3.8,5.9-10.7,2.6-15.9ZM443.1,564.1c-4.7,3-10.9,1.6-13.9-3.1-3-4.7-1.6-10.9,3.1-13.9s10.9-1.6,13.9,3.1c3,4.7,1.6,10.9-3.1,13.9Z" style="fill: #a67c52; stroke-width: 0px;"/>
    <path d="M446.2,550.2c-3-4.7-9.2-6.1-13.9-3.1s-6.1,9.2-3.1,13.9c3,4.7,9.2,6.1,13.9,3.1,4.7-3,6.1-9.2,3.1-13.9ZM439.9,562.8c-1.8,1.1-4.1.6-5.2-1.2-1.1-1.8-.6-4.1,1.2-5.2s4.1-.6,5.2,1.2c1.1,1.8.6,4.1-1.2,5.2Z" style="fill: #2b1407; stroke-width: 0px;"/>
    <path d="M435.8,556.4c-1.8,1.1-2.3,3.5-1.2,5.2,1.1,1.8,3.5,2.3,5.2,1.2,1.8-1.1,2.3-3.5,1.2-5.2-1.1-1.8-3.5-2.3-5.2-1.2Z" style="fill: #f2f2f2; stroke-width: 0px;"/>
    <path d="M434.9,540.2c3.4-1.4,7.2-1.5,10.9-.9,3.7.7,7.3,2.3,10.1,5-.6-.8-1.3-1.6-2-2.3-2.1-2-4.9-3.5-7.8-4.3-3.9-1.1-8.2-1.1-12.1.5-3.9,1.5-7,4.6-8.8,8.3-1.8,3.7-2.2,7.7-2.3,11.6,0,0,0-.2,0-.2.8-3.8,1.8-7.4,3.7-10.6,1.9-3.2,4.7-5.8,8.2-7.1Z" style="fill: #42210b; stroke-width: 0px;"/>
    <path d="M454.4,559.1c1.9-2.4,3.2-5.3,3.4-8.3-.2.7-.5,1.3-.8,1.9-1,2-2.3,3.8-3.8,5.3-2,2-4.3,3.7-6.8,5-.4.2-.8.4-1.1.6-2,1.1-4.2,1.9-6.4,2.7-.1,0-.2,0-.4.1-2.3.7-4.7,1.2-7.1,1.3-.5,0-1,0-1.4,0,2.8,1.1,6,1,9,.4,3-.6,5.9-1.7,8.5-3.1,2.6-1.5,5.1-3.4,7.1-5.8Z" style="fill: #42210b; stroke-width: 0px;"/>
    <path d="M380.5,592.3c.9.3,1.8.4,2.7.4.2,0,.3,0,.5,0-3.5-.9-6.5-3.3-8-6.9-2.5-6,.4-12.8,6.4-15.3,6-2.5,12.8.4,15.3,6.4,1.6,4,.9,8.3-1.5,11.5,1.5-1,2.9-2.1,4.3-3.3-.2.3-.3.7-.5,1,2.5-3.2,3.7-7,2.1-10.7-1.3-3-4-5.4-7.3-6.9-2.2-.4-4.3-.8-6.3-.8-2.4,0-4.8.5-6.9,1.6-1.1.5-2,1.3-2.9,2.1-.9.8-1.7,1.7-2.3,2.7-1.2,2-1.8,4.4-2.1,6.9.2,1.7.7,3.5,1.4,5.2.3.7.6,1.3,1,1.9,1.1,1.8,2.4,3.2,3.9,4.1.2.1.4.2.6.3,0,0-.2-.1-.3-.2Z" style="fill: #fff; stroke-width: 0px;"/>
    <path d="M389.1,591.7c-4.7,1.3-9.6-1.1-11.5-5.7-2.1-5,.3-10.7,5.3-12.7s10.7.3,12.7,5.3c2,4.9-.2,10.4-4.9,12.6.1,0,.3,0,.4-.2.8-.3,1.6-.7,2.4-1.2.8-.4,1.6-.9,2.3-1.4,0,0,0,0,.1,0,2.4-3.2,3.1-7.5,1.5-11.5-2.5-6-9.3-8.8-15.3-6.4-6,2.5-8.8,9.3-6.4,15.3,1.5,3.6,4.5,6,8,6.9.7,0,1.5,0,2.2-.2,1.1-.2,2.1-.4,3.2-.8Z" style="fill: #a67c52; stroke-width: 0px;"/>
    <path d="M395.6,578.6c-2.1-5-7.8-7.4-12.7-5.3s-7.4,7.8-5.3,12.7c1.9,4.6,6.9,7,11.5,5.7.5-.2,1.1-.4,1.6-.6,4.7-2.2,6.9-7.7,4.9-12.6ZM387,589.9c-1.9.8-4-.1-4.8-2-.8-1.9.1-4,2-4.8,1.9-.8,4,.1,4.8,2,.8,1.9-.1,4-2,4.8Z" style="fill: #2b1407; stroke-width: 0px;"/>
    <path d="M384.2,583.2c-1.9.8-2.8,2.9-2,4.8.8,1.9,2.9,2.8,4.8,2,1.9-.8,2.8-2.9,2-4.8-.8-1.9-2.9-2.8-4.8-2Z" style="fill: #f2f2f2; stroke-width: 0px;"/>
    <path d="M395.9,588.4s0,0-.1,0c-.8.5-1.5,1-2.3,1.4-.8.4-1.6.8-2.4,1.2-.1,0-.3,0-.4.2-.5.2-1,.4-1.6.6-1,.3-2.1.6-3.2.8-.7.1-1.5.2-2.2.2-.2,0-.3,0-.5,0-.9,0-1.8,0-2.7-.4,0,0,.2.2.3.2.7.5,1.5.8,2.3,1.1,1,.2,1.9.3,2.9.3,2,0,3.9-.4,5.8-1.2,1.8-.7,3.5-1.8,4.9-3.1,1.2-1,2.2-2.2,3-3.6.2-.3.4-.7.5-1-1.4,1.2-2.8,2.3-4.3,3.3Z" style="fill: #42210b; stroke-width: 0px;"/>
    <path d="M374,581.3c0,0,0-.2,0-.2.2-2.5.9-4.9,2.1-6.9.6-1,1.4-1.9,2.3-2.7.9-.8,1.9-1.5,2.9-2.1,2.1-1.1,4.5-1.6,6.9-1.6,2.1,0,4.2.4,6.3.8.4,0,.8.1,1.2.2-2.3-1.2-4.7-2.2-7.4-2.5-1.3-.2-2.7-.1-4,0-1.3.3-2.7.7-3.9,1.4-1.2.7-2.3,1.5-3.2,2.5-.9.9-1.8,2.1-2.3,3.3-.4.8-.7,1.7-.8,2.6,0,.4-.2.9-.2,1.3-.1,1.3,0,2.6.2,3.9Z" style="fill: #42210b; stroke-width: 0px;"/>
    <path d="M453,452.1c-11.9-13.8-37.2-6.2-37.2-6.2l20.3-16.2s-4.8-2.4-14-3c-9.1-.5-22.5.9-39.8,8.4-11.6,5.1-21,10.1-28.6,14.8,1.5-1.6,3.1-3.1,4.6-4.7,5-4.9,10.2-9.8,15.5-14.9-3.6.9-7.1,2.3-10.4,3.9-3.3,1.6-6.5,3.5-9.6,5.5-6.1,4.1-11.8,9.1-16.6,15-1.2,1.5-2.3,3-3.4,4.6-1,1.6-2.1,3.2-2.9,4.9-.2.4-.5.8-.7,1.3l-.6,1.3c-.4.9-.8,1.7-1.1,2.7-.3.9-.7,1.8-1,2.7l-.4,1.3c-6.4,9.5-5.1,15.5-5.1,15.5l-5.6-25.5s-8,15.7-4.4,32.3c4.2,19.1,14.5,29.3,23.9,34.9,9.8,5.8,18.7,6.4,18.7,6.4,0,0,.3,0,.8,0,4,0,22.6,0,29.4-1.1,22.1-3.4,50.8-13.5,50.8-13.5l-23.3-10.7,14.2-2c3.6.5,7.2,1.2,11,1.9-1.3-1.1-2.6-2-4-2.9l18.7-2.7s.5-1.4,1.1-3.9c2.8-10.4,9.3-39-.3-50.1Z" style="fill: #6e391f; stroke-width: 0px;"/>
    <path d="M325.5,486.5c.3,3.8,1.1,7.6,2.6,10.9.4-3.7,1-7.2,1.8-10.5.9-3.3,2.1-6.5,3.5-9.5,1.4-3,3.1-5.9,4.9-8.7,1.8-2.8,3.8-5.5,6-8.1,2.9-3.6,6.1-7.1,9.4-10.5,1.5-1.6,3.1-3.1,4.6-4.7,5-4.9,10.2-9.8,15.5-14.9-3.6.9-7.1,2.3-10.4,3.9-3.3,1.6-6.5,3.5-9.6,5.5-6.1,4.1-11.8,9.1-16.6,15-1.2,1.5-2.3,3-3.4,4.6-1,1.6-2.1,3.2-2.9,4.9-.2.4-.5.8-.7,1.3l-.6,1.3c-.4.9-.8,1.7-1.1,2.7-.3.9-.7,1.8-1,2.7l-.4,1.3-.4,1.4c-.9,3.8-1.4,7.6-1.2,11.4Z" style="fill: #7f3e25; stroke-width: 0px;"/>
    <path d="M359.8,467.1c5.5-6.3,11.5-12.1,17.8-17.7,6.4-5.6,13-10.9,20.1-16.3-2.2.4-4.3,1-6.4,1.8-2.1.7-4.2,1.5-6.2,2.4-4.1,1.8-8,3.9-11.7,6.3-7.5,4.8-14.5,10.6-20.4,17.4-5.9,6.8-10.9,14.5-14.4,22.8l-.7,1.6-.6,1.6c-.4,1.1-.8,2.1-1.1,3.2-.6,2.2-1.3,4.3-1.7,6.5-.2,1.1-.5,2.2-.6,3.3-.1,1.1-.3,2.2-.4,3.3,0,.6-.1,1.1-.2,1.7v1.7c0,1.1-.1,2.2-.1,3.3,3.6-8.1,7.2-15.8,11.7-22.9,4.4-7.1,9.4-13.8,14.9-20Z" style="fill: #7f3e25; stroke-width: 0px;"/>
    <path d="M359.8,502.6c6.7-6.1,13.9-11.6,21.6-16.3,3.8-2.3,7.8-4.5,11.8-6.5,4.1-2,8.2-3.8,12.5-5.4,4.3-1.7,8.6-3.2,13-4.5,4.4-1.3,9-2.5,13.6-3.6-2.4-.5-4.8-.7-7.2-.9-2.4-.1-4.8-.1-7.2,0-4.8.2-9.6,1-14.4,2-4.7,1.1-9.4,2.6-13.9,4.4-4.5,1.9-8.9,4.1-13.1,6.7-8.4,5.1-15.8,11.7-22,19.2-6.1,7.6-11,16-14,25.2,6.3-7.2,12.5-14.1,19.2-20.3Z" style="fill: #7f3e25; stroke-width: 0px;"/>
    <path d="M427.3,505.4c-3.7-1.7-7.5-3.1-11.4-4.1-7.9-2-16.3-2.6-24.5-1.4-4.1.6-8.2,1.7-12.1,3.2-1,.4-1.9.8-2.9,1.2-.5.2-1,.4-1.4.6l-1.4.7c-.9.5-1.9.9-2.7,1.5l-2.6,1.7c-3.4,2.4-6.5,5-9.2,8.1-2.7,3-5,6.4-6.8,9.9,6.5-4.7,12.8-8.8,19.5-11.9,3.3-1.5,6.8-2.8,10.2-3.8,3.5-1,7-1.7,10.6-2.3,7.2-1.1,14.5-1.1,22-.6,3.9.3,7.9.8,11.9,1.4,3.6.5,7.3,1.2,11,1.9-1.3-1.1-2.6-2-4-2.9-.3-.2-.6-.4-.9-.5-1.7-1.1-3.5-2-5.3-2.8Z" style="fill: #7f3e25; stroke-width: 0px;"/>
    <path d="M545,1138.5c5.2,0,11.9,1,13.1,2,.9.7,1.3,3.3,1.3,6.2,3.3,1.3,6.3,3.3,8.9,5.7h0c.4.4.8.8,1.2,1.2v-15.9c0,0-24.5-2.7-24.5-2.7v3.4Z" style="fill: #ffe1d9; stroke-width: 0px;"/>
    <path d="M552.3,1145.3c2.5,0,4.9.6,7.2,1.5,0-3-.5-5.5-1.3-6.2-1.2-1-7.9-2-13.1-2-3.7,0-6.6.5-6.4,2,.4,2.8.7,5,.8,7,3.5-1.5,7.8-2.3,12.8-2.1Z" style="fill: #74777b; stroke-width: 0px;"/>
    <path d="M562.4,1170.8c-6.6-2.6-1.6-12.2,5.9-18.4-2.6-2.5-5.6-4.5-8.9-5.7-2.3-.9-4.7-1.4-7.2-1.5-5-.1-9.3.7-12.8,2.1-4.1,1.7-7.2,4.3-9.6,7.3,5.9,6.1,9,13.8,3.2,16-2.9,1.1-6.3,1.4-9.5,1.2-.2,1.8-.2,3.5,0,5l55.1.2c.3-.6.5-1.3.5-2,0-1.3-.1-2.5-.3-3.9-4.1.8-11.2,1.6-16.4-.5ZM559.4,1150l1.5.2c-.1.9-.4,1.7-.9,2.5l-1.3-.8c.4-.6.6-1.2.7-1.8ZM555.3,1154.6l.7,1.4c-1.4.7-3.1,1.2-4.9,1.4l-.2-1.5c1.7-.3,3.2-.7,4.5-1.3ZM541.4,1155.2c1.3.5,2.9.8,4.6.9v1.5c-2-.1-3.7-.5-5.1-1l.5-1.4ZM536.5,1153.5c-.5-.7-.9-1.5-1-2.4l1.5-.3c.1.6.4,1.2.8,1.8l-1.2.9Z" style="fill: #f1f2f2; stroke-width: 0px;"/>
    <polygon points="523.1 1177 523.9 1184.7 578.1 1184.8 578.9 1177.2 578.6 1177.2 523.5 1177 523.1 1177" style="fill: #74777b; stroke-width: 0px;"/>
    <path d="M568.3,1152.5h0c-7.5,6.2-12.5,15.8-5.9,18.4,5.2,2.1,12.2,1.3,16.4.5-1-6.1-4.4-12.7-9.3-17.7-.4-.4-.8-.8-1.2-1.2Z" style="fill: #74777b; stroke-width: 0px;"/>
    <path d="M533.1,1170.7c5.8-2.3,2.7-9.9-3.2-16-4,5.1-5.8,11.5-6.3,17.2,3.2.1,6.6-.1,9.5-1.2Z" style="fill: #74777b; stroke-width: 0px;"/>
    <path d="M535.5,1151.2c.2.9.5,1.7,1,2.4l1.2-.9c-.4-.5-.7-1.2-.8-1.8l-1.5.3Z" style="fill: #74777b; stroke-width: 0px;"/>
    <path d="M555.9,1156l-.7-1.4c-1.3.6-2.9,1.1-4.5,1.3l.2,1.5c1.8-.3,3.5-.8,4.9-1.4Z" style="fill: #74777b; stroke-width: 0px;"/>
    <path d="M545.9,1157.7v-1.5c-1.6-.1-3.2-.4-4.5-.9l-.5,1.4c1.5.6,3.2.9,5,1Z" style="fill: #74777b; stroke-width: 0px;"/>
    <path d="M560,1152.6c.5-.8.8-1.6.9-2.5l-1.5-.2c0,.6-.3,1.3-.7,1.8l1.3.8Z" style="fill: #74777b; stroke-width: 0px;"/>
    <path d="M466.6,827c-1-.4-1.7-1.4-1.6-2.6v-.9c-.9.1-1.8.3-2.8.4-.4,2.5-1.1,4.3,0,4.5,1.1.3,2.6.3,4.1-1.1.1-.1.2-.2.3-.4Z" style="fill: #edbbab; stroke-width: 0px;"/>
    <path d="M440.7,810.1h0s-.4,0-.4,0h0c0-.1-3.5-1.7-3.5-1.7-2.1.6-4.2,1.3-6.2,1.9-.4,0-.8.3-.8.7,0,.4.3.7.6.7l7.5,2h0c0,.1.4.1.4.1h0s-.2,1.5,4.6,1.5c-.2-1-.3-2.2-.3-3.5-2.2-.8-1.9-1.7-1.9-1.7Z" style="fill: #eba13a; stroke-width: 0px;"/>
    <path d="M445,812.3c-1-.2-1.7-.4-2.3-.6,0,1.3.1,2.5.3,3.5.3,0,.6,0,.9,0,.3,0,.8,0,1.4,0,0-1,0-1.9,0-2.9,0,0-.2,0-.3,0Z" style="fill: #fcd29c; stroke-width: 0px;"/>
    <path d="M447.8,812.7h-.5c0,0,0,0,0,0-.5,0-.9-.1-1.2-.2,0,.9,0,1.9,0,2.8h-.4c2.8,0,7.6,0,13.1-.2.1-.2.3-.4.4-.5-4.8-.8-9-1.4-11.5-1.8Z" style="fill: #fcd29c; stroke-width: 0px;"/>
    <path d="M466.6,806.4h-3.5s2.9.5,2.9.5c.2-.2.4-.3.6-.5Z" style="fill: #fcd29c; stroke-width: 0px;"/>
    <path d="M446.1,812.5c0,0-.2,0-.2,0-.2,0-.4,0-.6,0,0,1,0,1.9,0,2.9h0s.4,0,.4,0h.4c0-.9,0-1.8,0-2.8Z" style="fill: #eba13a; stroke-width: 0px;"/>
    <path d="M441.2,810.1h-.4c0,0,0,0,0,0,0,0-.3.9,1.9,1.7.6.2,1.3.4,2.3.6,0,0,.2,0,.3,0,.2,0,.4,0,.6,0,0,0,.1,0,.2,0,.3,0,.7.1,1.2.2.2-1.1.4-2.3.6-3.5.3-1.6.6-3.3.9-5.1l-2-.3c-5.1-1.5-4.9.3-4.9.3h.4c0,0-1.1,6-1.1,6Z" style="fill: #3f8cff; stroke-width: 0px;"/>
    <path d="M440.4,809.9l1.1-5.7c-2.6.3-5.2.7-7.7,1-.4,0-.8.2-.9.6,0,.4.1.7.5.8l3.5,1.6,3.5,1.6Z" style="fill: #3f8cff; stroke-width: 0px;"/>
    <path d="M448.7,809.4c-.2,1.2-.4,2.3-.6,3.4h-.4c2.5.3,6.6,1,11.5,1.7,2-2.6,4.1-5,5.6-6.6.4-.4.7-.7,1.1-1.1l-2.9-.5-2.6-.4-11.2-1.8h.4c-.3,1.8-.6,3.5-.9,5.1Z" style="fill: #3f8cff; stroke-width: 0px;"/>
    <polygon points="440.4 809.9 440.3 810 440.7 810.1 441.2 810.1 442.3 804.3 441.9 804.2 441.5 804.1 441.4 804.2 440.4 809.9" style="fill: #0c6ed6; stroke-width: 0px;"/>
    <path d="M447.9,809.2c-.2,1.2-.4,2.3-.6,3.5,0,0,0,0,0,0h.5c0,0,.4.1.4.1.2-1.1.4-2.3.6-3.4.3-1.6.6-3.3.9-5.1h-.4c0,0-.4-.2-.4-.2,0,0,0,0,0,0-.3,1.7-.6,3.4-.9,5.1Z" style="fill: #0c6ed6; stroke-width: 0px;"/>
    <path d="M433.4,823c-.4,0-.7.4-.7.8,0,.4.3.7.7.7l7.7,1-.6-5.7c-2.4,1.1-4.7,2.2-7.1,3.3Z" style="fill: #ff5a5a; stroke-width: 0px;"/>
    <path d="M445.4,817.7c-5.3.1-4.6,1.8-4.6,1.8,0,0,0,0,0,0h.4s.7,5.9.7,5.9h-.4s0,0,0,0c0,0,0,1.5,4.7.9-.7-2.2-1.3-5.4-.8-8.6Z" style="fill: #ff5a5a; stroke-width: 0px;"/>
    <path d="M447.8,817.4h-.4c0,0,0,0,0,0l-2,.3c-.5,3.2.1,6.4.8,8.6.3,0,.6,0,.9-.1.3,0,.8-.1,1.4-.2,0,0,0,0,0,0h.5c.9-.2,1.9-.4,3.2-.5,1.3-2.8,3.6-6.3,6-9.6l-10.4,1.5Z" style="fill: #e51f38; stroke-width: 0px;"/>
    <path d="M465.5,819.9c-1.7.1-3.4,2.1-5.1,4.4.6,0,1.2-.2,1.8-.3.9-.1,1.9-.3,2.9-.4l.4-3.7Z" style="fill: #e51f38; stroke-width: 0px;"/>
    <path d="M483.4,816.2c-1.2.7-2.4,1.5-3.7,2.1l-.9,3.2c3.1-.5,6.1-.9,8.6-1.3-1.3-1-2.7-2.4-4-4Z" style="fill: #e51f38; stroke-width: 0px;"/>
    <polygon points="441.3 819.5 440.8 819.5 440.4 819.6 440.4 819.7 441.1 825.4 441.1 825.5 441.5 825.5 441.9 825.4 441.3 819.5" style="fill: #e51f38; stroke-width: 0px;"/>
    <path d="M465.5,819.9l-.4,3.7v.9c-.2,1.2.4,2.2,1.5,2.6.2,0,.4.2.7.2.9,0,1.7-.3,2.3-1.1.2-.2.3-.6.5-1,.4.5,1,.9,1.8,1,.9,0,1.7-.3,2.3-1.1.2-.3.4-.7.5-1.2v-1.2c.4.3.8.5,1.2.6,1,.3,2.1-.1,2.7-1,.1-.2.3-.5.4-.8h0c0,0,.9-3.3.9-3.3,1.3-.6,2.6-1.4,3.7-2.1-3.5-4.4-6.9-10.4-8.4-14.6-3.1,1-5.9,2.6-8.4,4.7-.2.2-.4.3-.6.5-.4.3-.8.7-1.1,1.1-1.6,1.6-3.6,4-5.6,6.6-.1.2-.3.4-.4.5-.2.3-.4.5-.6.8-2.4,3.3-4.7,6.8-6,9.6-1.2,2.7-1.6,4.7-.3,5.2,3.2,1.3,5.9-2.9,8.5-6.4,1.7-2.3,3.3-4.3,5.1-4.4Z" style="fill: #ffe1d9; stroke-width: 0px;"/>
    <path d="M483.4,816.2c1.3,1.6,2.7,3.1,4,4,.7.5,1.4.9,2.1,1.2.2,0,.3.1.5.2.8.2,1.8,0,2.9-.2.6-.2,1.1-.4,1.7-.6-2.4-3-7.4-9.5-9.4-12.1-2.8-3.9-6.6-10.8-8.5-14.3-1.4,1.2-2.5,2.4-2.7,3.3-.2.7.2,2.2.9,4.1,1.6,4.1,4.9,10.2,8.4,14.6Z" style="fill: #fff; stroke-width: 0px;"/>
    <path d="M597.4,740.8c-8.5-52.1-26.6-91.2-37.9-98.6-9.1-5.9-51-4.5-64.5-4l25.6,123.3c-1.1.7-2.2,1.5-3.3,2.2-3.1,2.1-6.1,4.1-9.1,6.1-1.2.8-2.4,1.6-3.5,2.4-1.1.7-2.1,1.4-3.1,2.1-4.7,3.2-9,6.1-12.8,8.6-.6.4-1.2.8-1.8,1.2-.5.3-.9.6-1.4.9-1.2.8-2.2,1.5-3.2,2.2l-28.7-138.1c-10.5,8-20.9,13.2-24.1,19.3-15.6,15.8-36.5,57.3-47.6,80.7-2.5-1-5.1-2.1-7.7-3.2-16.1-6.6-35.2-14.4-50.6-20.6-16.7-6.8-29.1-11.8-29.1-11.8,0,0-.5.9-1.2,2.3-1.9,3.6-5.5,10.6-7.1,15.1-1.1,3.1-3.7,10.9-4.9,14.5-.4,1.2-.6,2-.6,2,0,0,1.4.8,3.8,2.1,2,1.1,4.8,2.7,8.1,4.5,7.8,4.3,18.8,10.2,30.7,16.1,0,0,.2,0,.2,0,.2,0,.5,0,.7.1.3,0,.6.1.9.2,4.3.9,10.6,2.4,16.8,5.9.3.2.6.4.9.5,2.6,1.6,5.1,3.5,7.4,5.8,0,0,0,0,0,0,19.6,8.3,37.6,13.7,44.4,9.9,2.8-1.6,5.1-3.5,6.9-5.6h0s.3-.4.9-1.2c0,0,0,0,0,0,2.9-3.6,11.8-14.9,19.6-27.5,5.2-8.4,12.2-17.5,19-26.6,5.9,23.7,12.9,50.6,19.3,74.2l2.6.4h3.5c2.5-2.1,5.3-3.8,8.4-4.8-.7-1.9-1.1-3.4-.9-4.1.2-.9,1.3-2.1,2.7-3.3,1.9,3.6,5.7,10.4,8.5,14.3,1.9,2.7,7,9.1,9.4,12.1.8,1,1.3,1.7,1.3,1.7,0,0,1.1-.5,3.1-1.5,2.7-1.3,7-3.5,12.3-6.3,4.4-2.3,9.6-5,15.1-8.1,1-.6,2.1-1.1,3.2-1.7l11.5,55.5h3.8c8.2-1.9,24.7-5.6,27.6-6.9,2.5-1.1,4.7-2.4,6.5-3.6,5.4-3.7,7.7-7.3,7.7-7.3l-11.4-66.1c12.4-9,21.3-17.5,21.7-23.5,0,0,0-.2,0-.3.9-3,1.1-6.8.3-11.8ZM565.9,804.9l-15.8-5.4,1-2.9,15.8,5.4-1,2.9Z" style="fill: #183b59; stroke-width: 0px;"/>
    <path d="M508.2,769.8c-1.2.8-2.4,1.6-3.5,2.4-1.1.7-2.1,1.4-3.1,2.1,22.7-7.2,39-23.4,45.3-30.5-8.3,5.5-17.4,11.7-26.3,17.7-1.1.7-2.2,1.5-3.3,2.2-3.1,2.1-6.1,4.1-9.1,6.1Z" style="fill: #1d4766; stroke-width: 0px;"/>
    <path d="M364.2,571.3c1.6.5,3.3-.3,3.8-1.9.1-.4.3-.7.4-1.1,3.2-8,9.6-7.6,17.7-6.2,1.2.2,2.3.4,3.3.5.6,0,1.2,0,1.7-.3.9-.5,1.5-1.3,1.6-2.4.2-1.7-1-3.1-2.7-3.3-.8,0-1.7-.2-2.9-.4-5.7-1-16.7-2.9-22.6,6.5-.9,1.4-1.6,3-2.2,4.8-.5,1.6.3,3.3,1.9,3.8Z" style="fill: #42210b; stroke-width: 0px;"/>
    <path d="M422.4,545.5c1.4-1.1,3-2.6,4.9-4.4,4.3-4,10.7-10,14.5-10.5.5,0,1-.3,1.4-.6.8-.6,1.3-1.7,1.2-2.8-.2-1.7-1.7-2.8-3.4-2.6-5.8.7-12.5,7-17.9,12.1-1.7,1.6-3.3,3.1-4.6,4.1-1.3,1-1.5,2.9-.5,4.2,1,1.3,2.9,1.5,4.2.5Z" style="fill: #42210b; stroke-width: 0px;"/>
    <path d="M439.4,606.2c-2.5.4-5,1-7.4,2-2.4.9-4.8,2.1-6.9,3.6-2.1,1.5-4.1,3.4-5.4,5.7,2.3-1.2,4.5-2.2,6.7-3.2,2.2-1,4.5-1.8,6.8-2.7l6.9-2.6c2.3-.9,4.6-1.8,7-3-2.6-.3-5.2-.1-7.7.2Z" style="fill: #edbbab; stroke-width: 0px;"/>
  </g>
  <g>
    <path d="M744.6,105.6v265.3c0,3.2-2.6,5.9-5.9,5.9h-237.7c-.3,0-.5,0-.7,0,.5,2.8,2.9,4.9,5.8,4.9h237.7c3.2,0,5.9-2.6,5.9-5.9V98.6c0,3.2-2.1,6-5,7Z" style="fill: #74777b; stroke-width: 0px;"/>
    <path d="M738.8,376.8c3.2,0,5.9-2.6,5.9-5.9V105.6c-.7.3-1.5.4-2.4.4h-4.8v259.4c0,3.2-2.6,5.9-5.9,5.9h-236.4c.2,2.8,2.4,5.1,5.1,5.5.2,0,.5,0,.7,0h237.7Z" style="fill: #97999c; stroke-width: 0px;"/>
    <path d="M731.6,371.3c3.2,0,5.9-2.6,5.9-5.9V106h-4.7v254.6c0,3.2-2.6,5.9-5.9,5.9h-237.7c-.4,0-.7,0-1.1-.1.5,2.8,2.9,4.9,5.8,4.9h237.7Z" style="fill: #b9bbbd; stroke-width: 0px;"/>
    <path d="M726.8,366.5c3.2,0,5.9-2.6,5.9-5.9V106h-4.4v251.2c0,3.2-2.6,5.9-5.9,5.9h-237.7c-.3,0-.6,0-.9,0,.8,1.8,2.4,3.1,4.3,3.4.3,0,.7.1,1.1.1h237.7Z" style="fill: #dcddde; stroke-width: 0px;"/>
    <path d="M722.4,363c3.2,0,5.9-2.6,5.9-5.9V106h-249.5v251.2c0,2.9,2.2,5.3,4.9,5.8.3,0,.6,0,.9,0h237.7ZM603.4,313.6h-9.6v26.2h-5.6v-26.2h-9.6v-4.7h24.7v4.7ZM630.9,339.8h-5.6v-11.3h-5.7l-6.1,11.3h-6.2l6.7-12.3c-.2,0-.4-.1-.6-.2-1.6-.8-2.9-1.9-3.7-3.4-.8-1.5-1.3-3.2-1.3-5.2s.4-3.7,1.2-5.2c.8-1.5,2.1-2.6,3.7-3.5s3.6-1.2,6-1.2h11.6v30.9ZM697.5,327.3c-1.6-.8-2.9-1.9-3.7-3.4-.8-1.5-1.3-3.2-1.3-5.2s.4-3.7,1.2-5.2c.8-1.5,2.1-2.6,3.7-3.5s3.6-1.2,6-1.2h11.6v30.9h-5.6v-11.3h-5.7l-6.1,11.3h-6.2l6.7-12.3c-.2,0-.4-.1-.6-.2ZM664.8,308.9h11.6c2.4,0,4.4.4,6,1.3,1.6.9,2.8,2.1,3.7,3.6s1.2,3.3,1.2,5.3-.4,3.7-1.3,5.3-2.1,2.7-3.7,3.6-3.6,1.3-6,1.3h-5.9v10.4h-5.6v-30.9ZM637,308.9h19.9v4.7h-14.3v7.2h6c2.4,0,4.4.4,6.1,1.2,1.7.8,3,1.9,3.9,3.3.9,1.4,1.4,3,1.4,4.9s-.5,3.6-1.4,5c-.9,1.4-2.2,2.6-3.9,3.4-1.7.8-3.7,1.2-6.1,1.2h-11.6v-30.9ZM570.2,163l31.2-19.1h31.7v126.7h-34.4v-95h-.7l-27.7,16.6v-29.2ZM548.5,308.9h5.6v13.1h14.3v-13.1h5.6v30.9h-5.6v-13.1h-14.3v13.1h-5.6v-30.9ZM522.6,308.9h20.1v4.7h-14.5v8.4h13.5v4.7h-13.5v8.4h14.6v4.7h-20.2v-30.9ZM492.1,315.8c1.2-2.4,2.9-4.2,5.1-5.4,2.1-1.3,4.5-1.9,7.2-1.9s3.3.2,4.8.7c1.5.5,2.8,1.2,4,2.1,1.2.9,2.1,2.1,2.9,3.4.7,1.3,1.2,2.9,1.5,4.6h-5.6c-.2-.9-.5-1.7-.9-2.5-.4-.7-1-1.3-1.6-1.8-.6-.5-1.4-.9-2.2-1.1-.8-.3-1.7-.4-2.6-.4-1.7,0-3.2.4-4.5,1.3s-2.3,2.1-3,3.7c-.7,1.6-1.1,3.6-1.1,5.9s.4,4.4,1.1,6,1.8,2.8,3,3.7c1.3.8,2.8,1.2,4.4,1.2s1.8-.1,2.6-.4c.8-.2,1.5-.6,2.2-1.1.6-.5,1.2-1.1,1.6-1.8.4-.7.8-1.5.9-2.4h5.6c-.2,1.5-.7,2.9-1.4,4.2-.7,1.3-1.6,2.4-2.7,3.4-1.1,1-2.4,1.7-4,2.3-1.5.5-3.2.8-5,.8-2.7,0-5.1-.6-7.3-1.9-2.1-1.3-3.8-3.1-5-5.4-1.2-2.4-1.8-5.2-1.8-8.5s.6-6.2,1.9-8.5Z" style="fill: #fff; stroke-width: 0px;"/>
    <path d="M614.8,316c-.4.8-.6,1.7-.6,2.8s.2,2,.6,2.8c.4.8,1.1,1.3,2,1.7.9.4,2,.6,3.4.6h5.2v-10.3h-5.1c-1.4,0-2.5.2-3.4.6-.9.4-1.5,1-2,1.8Z" style="fill: #fff; stroke-width: 0px;"/>
    <path d="M651.8,334.5c.9-.5,1.5-1.1,2-1.9.4-.8.7-1.6.7-2.5,0-1.3-.5-2.4-1.5-3.3-1-.9-2.4-1.4-4.3-1.4h-6v9.8h6c1.2,0,2.3-.2,3.2-.7Z" style="fill: #fff; stroke-width: 0px;"/>
    <path d="M675.6,324.8c1.4,0,2.5-.2,3.4-.7s1.5-1.1,2-2,.6-1.8.6-2.9-.2-2.1-.6-2.9c-.4-.8-1.1-1.5-2-2-.9-.5-2-.7-3.4-.7h-5.1v11.2h5.2Z" style="fill: #fff; stroke-width: 0px;"/>
    <path d="M700.8,323.3c.9.4,2,.6,3.4.6h5.2v-10.3h-5.1c-1.4,0-2.5.2-3.4.6-.9.4-1.5,1-2,1.8s-.6,1.7-.6,2.8.2,2,.6,2.8c.4.8,1.1,1.3,2,1.7Z" style="fill: #fff; stroke-width: 0px;"/>
    <path d="M742.3,53.7h-16.5c1.9,0,3.4,1.6,3.4,3.4v45.4c0,1.9-1.6,3.4-3.4,3.4h16.5c.8,0,1.6-.1,2.4-.4,2.9-1,5-3.8,5-7v-37.5c0-4.1-3.3-7.4-7.4-7.4Z" style="fill: #555; stroke-width: 0px;"/>
    <path d="M725.8,106c1.9,0,3.4-1.6,3.4-3.4v-45.4c0-1.9-1.6-3.4-3.4-3.4h-248.3c-1.9,0-3.4,1.6-3.4,3.4v45.4c0,1.9,1.6,3.4,3.4,3.4h248.3Z" style="fill: #74777b; stroke-width: 0px;"/>
    <polygon points="598.7 175.7 598.7 270.7 633.1 270.7 633.1 144 601.4 144 570.2 163 570.2 192.2 597.9 175.7 598.7 175.7" style="fill: #e13; stroke-width: 0px;"/>
    <path d="M497.1,338.4c2.1,1.3,4.6,1.9,7.3,1.9s3.5-.3,5-.8c1.5-.5,2.8-1.3,4-2.3,1.1-1,2-2.1,2.7-3.4.7-1.3,1.2-2.7,1.4-4.1h-5.6c-.2.9-.5,1.7-.9,2.4-.4.7-1,1.3-1.6,1.8-.6.5-1.4.8-2.2,1.1-.8.2-1.7.4-2.6.4-1.7,0-3.2-.4-4.4-1.2-1.3-.8-2.3-2-3-3.7s-1.1-3.6-1.1-6,.4-4.3,1.1-5.9c.7-1.6,1.8-2.8,3-3.7s2.8-1.3,4.5-1.3,1.8.1,2.6.4c.8.3,1.6.6,2.2,1.1.6.5,1.2,1.1,1.6,1.8.4.7.7,1.5.9,2.5h5.6c-.2-1.7-.7-3.3-1.5-4.6-.8-1.3-1.7-2.5-2.9-3.4-1.2-.9-2.5-1.6-4-2.1-1.5-.5-3.1-.7-4.8-.7-2.7,0-5.1.6-7.2,1.9-2.1,1.3-3.8,3.1-5.1,5.4-1.2,2.4-1.9,5.2-1.9,8.5s.6,6.2,1.8,8.5c1.2,2.4,2.9,4.2,5,5.4Z" style="fill: #e13; stroke-width: 0px;"/>
    <polygon points="542.9 335.2 528.2 335.2 528.2 326.7 541.7 326.7 541.7 322 528.2 322 528.2 313.6 542.7 313.6 542.7 308.9 522.6 308.9 522.6 339.8 542.9 339.8 542.9 335.2" style="fill: #e13; stroke-width: 0px;"/>
    <polygon points="554.1 326.7 568.4 326.7 568.4 339.8 574 339.8 574 308.9 568.4 308.9 568.4 322 554.1 322 554.1 308.9 548.5 308.9 548.5 339.8 554.1 339.8 554.1 326.7" style="fill: #e13; stroke-width: 0px;"/>
    <polygon points="578.7 313.6 588.3 313.6 588.3 339.8 593.8 339.8 593.8 313.6 603.4 313.6 603.4 308.9 578.7 308.9 578.7 313.6" style="fill: #e13; stroke-width: 0px;"/>
    <path d="M613.4,310.2c-1.6.8-2.8,2-3.7,3.5-.8,1.5-1.2,3.2-1.2,5.2s.4,3.7,1.3,5.2c.8,1.5,2.1,2.6,3.7,3.4.2,0,.4.2.6.2l-6.7,12.3h6.2l6.1-11.3h5.7v11.3h5.6v-30.9h-11.6c-2.4,0-4.4.4-6,1.2ZM625.3,313.6v10.3h-5.2c-1.4,0-2.5-.2-3.4-.6-.9-.4-1.5-1-2-1.7-.4-.7-.6-1.7-.6-2.8s.2-2,.6-2.8,1.1-1.4,2-1.8c.9-.4,2-.6,3.4-.6h5.1Z" style="fill: #e13; stroke-width: 0px;"/>
    <path d="M654.7,338.6c1.7-.8,3-1.9,3.9-3.4.9-1.4,1.4-3.1,1.4-5s-.5-3.5-1.4-4.9c-.9-1.4-2.2-2.5-3.9-3.3-1.7-.8-3.7-1.2-6.1-1.2h-6v-7.2h14.3v-4.7h-19.9v30.9h11.6c2.4,0,4.4-.4,6.1-1.2ZM642.6,325.4h6c1.9,0,3.3.5,4.3,1.4,1,.9,1.5,2,1.5,3.3s-.2,1.7-.7,2.5c-.4.8-1.1,1.4-2,1.9-.9.5-1.9.7-3.2.7h-6v-9.8Z" style="fill: #e13; stroke-width: 0px;"/>
    <path d="M670.4,329.4h5.9c2.4,0,4.4-.4,6-1.3s2.9-2.1,3.7-3.6,1.3-3.3,1.3-5.3-.4-3.7-1.2-5.3-2.1-2.8-3.7-3.6c-1.6-.9-3.6-1.3-6-1.3h-11.6v30.9h5.6v-10.4ZM675.6,313.6c1.4,0,2.5.2,3.4.7.9.5,1.5,1.1,2,2,.4.8.6,1.8.6,2.9s-.2,2.1-.6,2.9-1.1,1.5-2,2-2,.7-3.4.7h-5.2v-11.2h5.1Z" style="fill: #e13; stroke-width: 0px;"/>
    <path d="M697.6,339.8l6.1-11.3h5.7v11.3h5.6v-30.9h-11.6c-2.4,0-4.4.4-6,1.2s-2.8,2-3.7,3.5c-.8,1.5-1.2,3.2-1.2,5.2s.4,3.7,1.3,5.2c.8,1.5,2.1,2.6,3.7,3.4.2,0,.4.2.6.2l-6.7,12.3h6.2ZM698.8,316c.4-.8,1.1-1.4,2-1.8.9-.4,2-.6,3.4-.6h5.1v10.3h-5.2c-1.4,0-2.5-.2-3.4-.6-.9-.4-1.5-1-2-1.7-.4-.7-.6-1.7-.6-2.8s.2-2,.6-2.8Z" style="fill: #e13; stroke-width: 0px;"/>
  </g>
</svg>