<?xml version="1.0" encoding="UTF-8"?>
<svg xmlns="http://www.w3.org/2000/svg" xmlns:xlink="http://www.w3.org/1999/xlink" viewBox="0 0 800 1247">
  <defs>
    <linearGradient id="linear-gradient" x1="-583.5" y1="810.8" x2="-604.5" y2="729" gradientTransform="translate(1302.7 367.9) rotate(45)" gradientUnits="userSpaceOnUse">
      <stop offset=".2" stop-color="#183b59"/>
      <stop offset="1" stop-color="#002747"/>
    </linearGradient>
    <linearGradient id="linear-gradient-2" x1="349.7" y1="454.2" x2="464.6" y2="454.2" gradientUnits="userSpaceOnUse">
      <stop offset="0" stop-color="#183b59"/>
      <stop offset="1" stop-color="#002747"/>
    </linearGradient>
    <linearGradient id="linear-gradient-3" y1="458.2" y2="458.2" xlink:href="#linear-gradient-2"/>
    <linearGradient id="linear-gradient-4" y1="454.5" y2="454.5" xlink:href="#linear-gradient-2"/>
    <linearGradient id="linear-gradient-5" y1="623.3" y2="623.3" xlink:href="#linear-gradient-2"/>
    <linearGradient id="linear-gradient-6" y1="456.5" y2="456.5" xlink:href="#linear-gradient-2"/>
    <linearGradient id="linear-gradient-7" y1="466.6" y2="466.6" xlink:href="#linear-gradient-2"/>
    <linearGradient id="linear-gradient-8" y1="604.7" y2="604.7" xlink:href="#linear-gradient-2"/>
    <linearGradient id="linear-gradient-9" y1="449.2" y2="449.2" xlink:href="#linear-gradient-2"/>
    <linearGradient id="linear-gradient-10" y1="460.6" y2="460.6" xlink:href="#linear-gradient-2"/>
    <linearGradient id="linear-gradient-11" x1="426.9" y1="449" x2="426.9" y2="449" xlink:href="#linear-gradient-2"/>
    <linearGradient id="linear-gradient-12" x1="327.2" y1="516.1" x2="524.6" y2="516.1" xlink:href="#linear-gradient-2"/>
    <linearGradient id="linear-gradient-13" x1="299.8" y1="501.7" x2="488" y2="501.7" xlink:href="#linear-gradient-2"/>
    <linearGradient id="linear-gradient-14" x1="421.5" y1="670.5" x2="374.5" y2="977.6" gradientUnits="userSpaceOnUse">
      <stop offset="0" stop-color="#08b"/>
      <stop offset="1" stop-color="#33a0c9"/>
    </linearGradient>
    <linearGradient id="linear-gradient-15" x1="421.5" y1="670.5" x2="374.5" y2="977.6" xlink:href="#linear-gradient-14"/>
    <linearGradient id="linear-gradient-16" x1="404.4" y1="667.9" x2="357.4" y2="975" xlink:href="#linear-gradient-14"/>
    <linearGradient id="linear-gradient-17" x1="406.9" y1="720" x2="-467.3" y2="6437.7" xlink:href="#linear-gradient-14"/>
    <linearGradient id="linear-gradient-18" x1="409.9" y1="668.8" x2="363" y2="975.8" xlink:href="#linear-gradient-14"/>
    <linearGradient id="linear-gradient-19" x1="419" y1="670.2" x2="372.1" y2="977.2" xlink:href="#linear-gradient-14"/>
    <linearGradient id="linear-gradient-20" x1="425.7" y1="671.2" x2="378.8" y2="978.3" xlink:href="#linear-gradient-14"/>
    <linearGradient id="linear-gradient-21" x1="426.2" y1="671.3" x2="379.3" y2="978.3" xlink:href="#linear-gradient-14"/>
    <linearGradient id="linear-gradient-22" x1="418.6" y1="670.1" x2="371.6" y2="977.2" xlink:href="#linear-gradient-14"/>
    <linearGradient id="linear-gradient-23" x1="389.3" y1="665.6" x2="342.4" y2="972.7" xlink:href="#linear-gradient-14"/>
    <linearGradient id="linear-gradient-24" x1="417.6" y1="670" x2="370.7" y2="977" xlink:href="#linear-gradient-14"/>
    <linearGradient id="linear-gradient-25" x1="411.3" y1="669" x2="364.4" y2="976.1" xlink:href="#linear-gradient-14"/>
    <linearGradient id="linear-gradient-26" x1="420.7" y1="670.4" x2="373.8" y2="977.5" xlink:href="#linear-gradient-14"/>
    <linearGradient id="linear-gradient-27" x1="417.4" y1="669.9" x2="370.5" y2="977" xlink:href="#linear-gradient-14"/>
    <linearGradient id="linear-gradient-28" x1="401.4" y1="667.5" x2="354.5" y2="974.5" xlink:href="#linear-gradient-14"/>
  </defs>
  <g style="isolation: isolate;">
    <g id="Layer_1" data-name="Layer 1">
      <rect width="800" height="1247" rx="20" ry="20" style="fill: #fff; stroke-width: 0px;"/>
      <g>
        <path d="M368.7,776c-.2,2-1.1,5.7-1.4,7.6-.1.6-.2,1.1-.3,1.6l8.1,48.4,6.9-27.6h0c-.9-14.4,3.5-26.8,8-35,0,0,.3-.3.9-.7l24.2-97.3c-.8,0-1.6-.2-2.4-.3l-43.6,101.6c0,.6,0,1.1-.1,1.7Z" style="fill: none; stroke-width: 0px;"/>
        <path d="M465.2,253.4c4.2.3,7.4,4,7.1,8.2,0,1.3-.5,2.4-1.1,3.4,0,0,0,0,0,0,.7-1,1.1-2.2,1.2-3.5.3-4.2-2.8-7.9-7.1-8.2-.5,0-1,0-1.5,0,.5,0,.9,0,1.4,0Z" style="fill: none; stroke-width: 0px;"/>
        <path d="M345.8,856.9l-9.2-55.4c-8.2-15.3-6.2-30.9,2.1-41.8l34.1-113.5.5-9.6h-.8c0,0-1-12.2-1-12.2l2-.2c0,0,0-.1,0-.2-1.9.4-3.8.5-5.8.4l-50.5-2.6-51.9,254.1c3.4.7,8.9,1.9,14,3.9,22-8.3,44.3-16,66.6-23Z" style="fill: none; stroke-width: 0px;"/>
        <path d="M463.9,257.5c1.5.2,2.8.7,3.9,1.6-1.1-.9-2.5-1.5-4-1.6,0,0,0,0,0,0Z" style="fill: none; stroke-width: 0px;"/>
        <path d="M800.6,931.6s.4-62.5-.1-90.5c-193.4,35.5-344.1,239-402.7,405.9-16.4.2-32.4.4-47.8.6,111.2.7,310.2,1.4,450.8-.6-57.9-32.5-94.7-215-.2-315.4Z" style="fill: #555; stroke-width: 0px;"/>
        <path d="M800.4,841.1c.1,0,.2,0,.3,0,0,0-.2-3.9-.7-12.5,0,4.7-.2,7.7-.2,7.7-232.7,47.9-376,246.9-425.1,410.7-61.2.9-119.3,1.2-170.6,1.3,41.1,0,90.1-.1,145.7-.7,15.4-.2,31.4-.4,47.8-.6,58.6-166.9,209.3-370.4,402.7-405.9Z" style="fill: #e6e6e6; stroke-width: 0px;"/>
        <path d="M194.9,1070.3c0-.2,0-.4,0-.6,0,.2,0,.4,0,.6Z" style="fill: #74777b; stroke-width: 0px;"/>
        <path d="M195.6,1086.6c0,.2,0,.3,0,.5,0-.2,0-.3,0-.5Z" style="fill: #74777b; stroke-width: 0px;"/>
        <path d="M195.3,1082.5c0,.1,0,.2,0,.4,0-.1,0-.2,0-.4Z" style="fill: #74777b; stroke-width: 0px;"/>
        <path d="M331.3,987.6c-.1-.6-.2-1.2-.3-1.8-.2-1.3,2.2-1.9,5.3-2.1l-.7-1.6s.3,0,.9,0c-2.6-5.2-5.8-15.5-1.7-23,2.2-3.9,6.2-5.2,10.4-5.3l10-40.4-9.4-56.5c-22.3,7-44.6,14.6-66.6,23,.7.3,1.3.6,2,.9,0,0,0,0,.1,0,.8.4,1.5.8,2.3,1.2,0,0,.1,0,.2.1.4.2.7.4,1,.6,12.9,8.3,28.7,27.7,31.1,60.8,1.1,14.7,1.9,29.4,2.8,44,.1,1.9.2,3.9.4,5.8l12.2-5.8Z" style="fill: #74777b; stroke-width: 0px;"/>
        <path d="M194.9,1074.2c0,.2,0,.3,0,.5,0-.2,0-.3,0-.5Z" style="fill: #74777b; stroke-width: 0px;"/>
        <path d="M197.7,1102.6s0,0,0,0c0,0,0,0,0,0Z" style="fill: #74777b; stroke-width: 0px;"/>
        <path d="M195,1065.3c0,.2,0,.4,0,.7,0-.2,0-.4,0-.7Z" style="fill: #74777b; stroke-width: 0px;"/>
        <path d="M196.5,1094.8c0,0,0,.2,0,.2,0,0,0-.2,0-.2Z" style="fill: #74777b; stroke-width: 0px;"/>
        <path d="M198.5,1106.2c0,0,0,.1,0,.2,0,0,0-.1,0-.2Z" style="fill: #74777b; stroke-width: 0px;"/>
        <path d="M199.3,1109.9s0,0,0,.1c0,0,0,0,0-.1Z" style="fill: #74777b; stroke-width: 0px;"/>
        <path d="M196,1090.7c0,.2,0,.3,0,.5,0-.2,0-.3,0-.5Z" style="fill: #74777b; stroke-width: 0px;"/>
        <path d="M576.6,847.4l-17.9,3,9.9,3c3.7-2,6.4-4.1,8-6Z" style="fill: #74777b; stroke-width: 0px;"/>
        <path d="M624.1,863.6c0,0-.1,0-.2.1.1,0,.2,0,.3,0,2.8.7,1.9,2.8-1.9,4.6-3.8,1.9-9.2,2.8-12,2.1-2.8-.7-1.9-2.8,1.9-4.6,1.3-.6,2.7-1.1,4.1-1.5,0-.1.1-.2.3-.4l10-8.3c-8.7,1-18.4,3.7-25.9,7.4-12.6,6.1-15.5,13-6.4,15.2,9.1,2.3,26.8-.9,39.5-7s15.5-13,6.4-15.2c-1.8-.4-4-.7-6.6-.7l-9.5,8.3Z" style="fill: #74777b; stroke-width: 0px;"/>
        <path d="M434.6,997.3c0,0,0,.1.1.2,0,0,0-.1-.1-.2Z" style="fill: #74777b; stroke-width: 0px;"/>
        <path d="M431.8,987.2c0,.2,0,.4,0,.6,0-.2,0-.4,0-.6Z" style="fill: #74777b; stroke-width: 0px;"/>
        <path d="M432.2,989.7c0,.1,0,.3,0,.4,0-.1,0-.3,0-.4Z" style="fill: #74777b; stroke-width: 0px;"/>
        <path d="M582.3,854.1l19.8-4.3,33.7-7.4-17.3-.6-5.3-.2c-.8,0-2.2,0-3.1.2l-12.6,2c-.6,0-1.6.5-1.9.7l-13.2,9.5Z" style="fill: #74777b; stroke-width: 0px;"/>
        <path d="M563.2,856l-10.7-3.3s0,0,0,0c-3.4,1.2-7.3,1.7-9.5,1.1-2.8-.7-1.9-2.8,1.9-4.6,3.8-1.9,9.2-2.8,12-2.1.8.2,1.3.5,1.5,1,0,0,.2,0,.2,0l19.4-3.2c.6-2.5-1.2-4.4-5.2-5.4-9.1-2.3-26.8.9-39.5,7-12.6,6.1-15.5,13-6.4,15.2,8.3,2.1,23.8-.4,36.3-5.6Z" style="fill: #74777b; stroke-width: 0px;"/>
        <path d="M374.7,1247c49.2-163.8,192.5-362.8,425.1-410.7,0,0,0-3,.2-7.7.2-11.3.5-32.4-.2-45.4-74.3,1.7-227.2,13.1-386.8,54.5l-22.6,79.3c5.2-4.4,14-11.5,18.4-13.8,2.5-1.3,33.4,0,51,1.6.4,0,.7,0,1.1,0,.7,0,1.4.1,2,.2,2.6.3,4.8.5,6.3.8.4,0,.7.1,1,.2.5,0,.8.2,1.1.3,2.7.9,1.8,40.9-.4,48.6-1.4,5-8.8,11.4-13.9,15.2-2.7,18.6-10.4,32.8-17.3,31.9-.7,0-1.3-.3-2-.7l-17.6-4.2s0,0,0,0h-.6c-12.9,13.9-25.9,27.8-39.1,41.5-5.1,5.3-10.2,10.6-15.4,15.8-1.3,1.3-2.6,2.6-4,3.9-.7.7-1.3,1.2-2.4,2.1-.7.5-1.1.7-1.5,1l-1.3.7c-3.5,1.8-7.2,3.3-11.5,3.9-3.1.5-6.6.3-9.8-.8l-44.6-7.2c0,1.9-.2,3.7-.3,5.6-3.8,53.1-28,94.7-54.1,92.8-2.6-.2-5.1-.8-7.5-1.8l-69.1-9.8c-23.1-1.7-39.1-43.6-35.8-93.7,3.3-50.1,24.7-89.3,47.7-87.7h10c0,.1,0,.1,0,.1h1.6c1.1-4,2.2-7.8,3.2-11.2,1.2-4.2,3.4-7.8,6.3-10.8-1-6.3-1.9-11.8-2.9-16.1h0c0-.3-.1-.7-.2-1-.3-1.5-.8-2.9-1.3-4.3,0-.1,0-.2-.1-.4-71.6,35.7-136.8,80.5-187.7,136.6v190.7s83.5,1.4,204.1,1.3c51.3,0,109.4-.4,170.6-1.3ZM520,865c-11.9-2.9-8.2-11.8,8.3-19.8,16.4-8,39.5-12.1,51.3-9.1,5.4,1.3,7.7,3.9,6.7,7.4l5.5-.9c.6-.1,1.6-.5,2-.7l14.7-10.6c.5-.4,1.3-.7,2.2-.9.2,0,.3,0,.4,0h-2.1c0-.1,0-.1,0-.1-.9,0-2.2-.4-2.2-.4-1.8-.4-2.5-1-2.1-1.6.1-.3.5-.7,1.6-1.2.5-.3,1.9-1,3.6-1.4,1.4-.3,2.7-.3,3.9,0,.3,0,.5.1.7.2,0,0,.2,0,.2.1,0,0,.7.5,2.9,1.1,2.1.5,4.8.9,8,1,.2,0,.3,0,.4,0,0,0,.2,0,.2,0,.5.3.9.6,1.1.8.2.3-.2.7-1,1.1-.8.4-1.9.6-2.7.6-.7,0-1.6,0-2.7-.2-3.6-.2-4.8,0-4.9,0-.4,0-1,.1-1.3.1h-1.3c.7.2.6.9-.2,1.5l-8.5,6.1c-.2.2-.2.3,0,.4l19.7.7,20.8.7c.1,0,.3,0,.4,0,.2,0,.3-.1.4-.2l1.3-1.1c.3-.3.6-.5.8-.6.6-.4,1.7-.8,2.6-.9.7,0,1.6-.2,1.8-.2l11.1-1.5c.8-.1,1.6,0,2.1,0,.5.1.8.4.8.7v.3c0,.3-.4.7-1.1,1.1-.7.4-1.7.6-2.6.8l-10.1,1.4c-.5,0-1.3.4-1.6.6,0,0-8.5,7.4-13.5,11.7,3.7,0,6.8.3,9.3.9,11.9,2.9,8.2,11.8-8.3,19.8-16.4,8-39.5,12.1-51.3,9.1-11.9-2.9-8.2-11.8,8.3-19.8,10.1-4.9,23.5-8.6,35.1-9.7,0,0,0,0,0,0l8.3-6.9-49,10.5-12.7,2.7c-1.5.3-4.8.5-6.6,0-.3,0-.6-.2-.8-.3l-2.2-.7c-16.3,7-36.8,10.3-47.8,7.5Z" style="fill: #74777b; stroke-width: 0px;"/>
        <path d="M573.3,854.8s0,0,0,0c.7.2,1.6.5,1.6.5l14-10-3.8.7s0,0,0,0c-2.1,2.9-6.1,6-11.7,8.9Z" style="fill: #74777b; stroke-width: 0px;"/>
        <path d="M432,988.5c0,.2,0,.3,0,.5,0-.2,0-.3,0-.5Z" style="fill: #74777b; stroke-width: 0px;"/>
        <path d="M436,999.4s0,0,0,0c0,0,0,0,0,0Z" style="fill: #74777b; stroke-width: 0px;"/>
        <path d="M433.9,995.7c0,0,0,.1,0,.2,0,0,0-.1,0-.2Z" style="fill: #74777b; stroke-width: 0px;"/>
        <path d="M434.2,996.5c0,0,0,.2.1.2,0,0,0-.1-.1-.2Z" style="fill: #74777b; stroke-width: 0px;"/>
        <path d="M431.7,986.5c0-.2,0-.4,0-.6,0,0,0,0,0,0,0,.2,0,.4,0,.6Z" style="fill: #74777b; stroke-width: 0px;"/>
        <path d="M435.1,998.1c0,0,0,.1.1.2,0,0,0-.1-.1-.2Z" style="fill: #74777b; stroke-width: 0px;"/>
        <path d="M432.4,990.9c0,.1,0,.2,0,.3,0-.1,0-.2,0-.3Z" style="fill: #74777b; stroke-width: 0px;"/>
        <path d="M435.5,998.8s0,0,0,.1c0,0,0,0,0-.1Z" style="fill: #74777b; stroke-width: 0px;"/>
        <path d="M433.6,994.8s0,0,0,.1c0,0,0,0,0-.1Z" style="fill: #74777b; stroke-width: 0px;"/>
        <path d="M432.7,992s0,0,0,0c0,0,0,0,0,0Z" style="fill: #74777b; stroke-width: 0px;"/>
        <path d="M351.7,465.7l8.9-6.3c-2.9,1.6-5.9,3.7-8.9,6.3Z" style="fill: url(#linear-gradient); stroke-width: 0px;"/>
        <path d="M340.8,568.8c-1.1.6-2.1,1.3-3.2,2,1.1-.6,2.2-1.3,3.2-2Z" style="fill: #183b59; stroke-width: 0px;"/>
        <path d="M282.4,574.7s0,0,0,0c0,0,0,0,0,0,.4.2.8.4,1.2.6,0,0,0,0,.1,0,.3.2.7.4,1,.6,0,0,0,0,.1,0,.3.2.6.4.9.6,0,0,0,0,0,0,1.2.9,2.2,1.9,2.8,2.7,0,0,0,0,0,0,.2.2.3.4.4.6,0,0,0,0,0,0,.6.8.9,1.6,1.1,2.1,0,0,0,0,0,0,0,.1,0,.2.1.3,0,0,0,0,0,0,0,0,0,.1,0,.2,0,0,0,0,0,0,0,0,0,0,0,0h23c1.7-.6,3.3-1.2,4.9-1.8,3.1-1.1,11.3-5.5,19.2-10.2,0-2,.2-3.9.5-5.7-8.1-8.9-19.5-26.2-19.5-26.2,0,0,.2-.2.6-.7-22.7,10.6-54.9,27.9-54.9,27.9,0,0,.2,2.7.4,5.9,8.3-.4,13.9.8,17.7,2.6Z" style="fill: #183b59; stroke-width: 0px;"/>
        <path d="M349.8,467.5c-3.7,3.7-7.4,8.4-11,14.3-2.5,4-16,48.4-16.9,52.1-.1.5-.2,1-.3,1.4,1.1.1,2.1.2,3.2.4.6,0,1.2.1,1.7.2,9.7,1.3,19.8,3.6,25.7,5.1,1.1-.9,2.2-1.8,3.3-2.7-3.6-23.4-6.1-48.3-5.7-70.7Z" style="fill: #183b59; stroke-width: 0px;"/>
        <path d="M338,565.1c1.6-10.7,7-17.9,14.1-24.1-5.9-1.5-16-3.8-25.7-5.1-.6,0-1.2-.2-1.7-.2-1.1-.1-2.2-.3-3.2-.4-.1,0-.3,0-.4,0-.7,1.4-1.4,2.3-1.9,2.9-.4.4-.6.7-.6.7,0,0,11.4,17.3,19.5,26.2Z" style="fill: #333; stroke-width: 0px;"/>
        <path d="M337.6,570.8c1.1-.7,2.2-1.3,3.2-2,.2-.1.4-.2.6-.4.7-.4,1.3-.8,2-1.1,3.8-2.1,7.2-4.1,9.9-7.2,1.5-1.7,2.7-3.7,3.7-6.2.3-.7.5-1.4.7-2.2-.8-4.5-1.5-9-2.2-13.6-1.1.9-2.2,1.8-3.3,2.7-7.2,6.3-12.6,13.4-14.1,24.1-.3,1.8-.4,3.7-.5,5.7h0s0,0,0,0Z" style="fill: #ff5a5a; stroke-width: 0px;"/>
        <path d="M418.6,449.1c-3.3-1.5-7.3-2.4-11.7-2.8l1.2,14.8c5.4-4.6,9.1-9.9,10.4-12Z" style="fill: #edbbab; stroke-width: 0px;"/>
        <path d="M378.5,465.6c2.4,1.5,5.3,2.6,9.1,2.9,6.8.6,12.7-1.8,17.6-5.2l-26.7,2.2Z" style="fill: #edbbab; stroke-width: 0px;"/>
        <path d="M378.5,465.6l-1.3-15.6c-2.6,1.1-5,2.4-7.1,4,.7,2.5,2.8,8.1,8.4,11.7Z" style="fill: #edbbab; stroke-width: 0px;"/>
        <path d="M378.5,465.6s0,0,0,0l26.7-2.2c1.1-.7,2.1-1.5,3-2.3l-1.2-14.8-1.4-16.4c-4.8,1.7-9.6,2.9-13.9,3.3-5.4.4-10.8,0-16-.9l1.5,17.7,1.3,15.6Z" style="fill: #edbbab; stroke-width: 0px;"/>
        <path d="M370.1,453.9c-.2-.7-.3-1.2-.3-1.2l-2.1,1.5c0,.5.1,1,.2,1.5.7-.6,1.4-1.2,2.1-1.8Z" style="fill: url(#linear-gradient-2); stroke-width: 0px;"/>
        <path d="M363.7,457.1l-3.1,2.2c1.1-.6,2.3-1.2,3.4-1.6,0-.2-.2-.4-.3-.6Z" style="fill: url(#linear-gradient-3); stroke-width: 0px;"/>
        <path d="M367.2,454.6c.1,0,.2-.2.3-.2l-.3.2Z" style="fill: url(#linear-gradient-4); stroke-width: 0px;"/>
        <path d="M378.3,623.8v-1.4c-1.6.7-3.2,1.3-4.9,1.6,0,0,0,.1,0,.2l4.9-.4Z" style="fill: url(#linear-gradient-5); stroke-width: 0px;"/>
        <path d="M364,456.9c.4-.3.7-.5,1.1-.8l-1.1.8Z" style="fill: url(#linear-gradient-6); stroke-width: 0px;"/>
        <path d="M349.8,467.1c0,.2,0,.3,0,.5.6-.6,1.3-1.3,1.9-1.8l-1.9,1.4Z" style="fill: url(#linear-gradient-7); stroke-width: 0px;"/>
        <path d="M410,597c-7.9,1.7-14.8,3.1-19.9,4.2,0,2.6-.3,5.4-1,8.1h0c-1,3.7-3.1,7-5.7,9.5h.5s.4,4.5.4,4.5l7-.6-.4-4.2,26-2.2.4,4.2,11.5-1-.4-4.6,6-.5.4,4.6,26.3-2.2c.1-6,.3-17.4.6-30.7-.5.1-1.1.2-1.7.3-15.9,3.4-34.7,7.4-49.9,10.6Z" style="fill: url(#linear-gradient-8); stroke-width: 0px;"/>
        <path d="M422,448.4c-1.7-.2-2.8-.3-2.8-.3,0,0-.2.3-.6.9.8.4,1.5.7,2.2,1.2.4-.6.8-1.2,1.2-1.8Z" style="fill: url(#linear-gradient-9); stroke-width: 0px;"/>
        <path d="M420.8,450.2c-.7-.4-1.4-.8-2.2-1.2-1.3,2.1-5,7.4-10.4,12-1,.8-2,1.6-3,2.3-4.8,3.3-10.8,5.7-17.6,5.2-3.8-.3-6.7-1.4-9.1-2.9,0,0,0,0,0,0-5.6-3.5-7.7-9.2-8.4-11.7-.8.6-1.5,1.2-2.1,1.8,2.9,12.7,28.4,32.2,52.8-5.5Z" style="fill: #edbbab; stroke-width: 0px;"/>
        <path d="M420.8,450.2c-.7-.4-1.4-.8-2.2-1.2-1.3,2.1-5,7.4-10.4,12-1,.8-2,1.6-3,2.3-4.8,3.3-10.8,5.7-17.6,5.2-3.8-.3-6.7-1.4-9.1-2.9,0,0,0,0,0,0-5.6-3.5-7.7-9.2-8.4-11.7-.8.6-1.5,1.2-2.1,1.8,2.9,12.7,28.4,32.2,52.8-5.5Z" style="fill: url(#linear-gradient-10); stroke-width: 0px;"/>
        <g>
          <polygon points="426.9 449 426.9 449 426.9 449 426.9 449" style="fill: url(#linear-gradient-11); stroke-width: 0px;"/>
          <path d="M457.9,457.6c-6.8-4.8-21.8-7.4-31-8.6-.8,1.5-1.7,2.9-2.6,4.3-17.5,27.8-46.2,32.2-59.5,6.2-.3-.6-.6-1.2-.9-1.9-1.1.5-2.3,1-3.4,1.6l-8.9,6.3c-.6.6-1.3,1.2-1.9,1.8-.3,22.4,2.2,47.3,5.7,70.7.7,4.6,1.4,9.1,2.2,13.6,1.2,6.9,2.4,13.6,3.7,20,1.8.4,3.4,1,4.8,1.6,0,0,0,0,0,0,0,0,0,0,0,0,.4.2.8.4,1.2.6,0,0,0,0,.1,0,.3.2.7.4,1,.6,0,0,0,0,.1,0,.3.2.6.4.9.6,0,0,0,0,0,0,1.2.9,2.2,1.9,2.8,2.7,0,0,0,0,0,0,.2.2.3.4.4.6,0,0,0,0,0,0,.6.8.9,1.6,1.1,2.1,0,0,0,0,0,0,0,.1,0,.2.1.3,0,0,0,0,0,0,0,0,0,.1,0,.2,0,0,0,0,0,0,0,0,0,.1,0,.1,0,0,0,0,0,0,0,0,0,0,0,0-3.5,0-8.3,0-8.3,0-.3.2-.6.4-.9.7,0,.1-.2.2-.3.4h9.2c.7,0,1.4.2,2,.3-.8-5.1-1.9-13.7-1.9-13.7,0,0,35-12.8,65.6-20h0s1.2-1.7,2.1-4.7c0,0,0,0,0,0-5.7-10.9-11.1-21.8-11.7-24.1-9.4-38.3,12-50.5,22.1-59.6,2.4-2.2,4.9-2.8,7.1-2.1-.5-.6-1-1.1-1.5-1.5Z" style="fill: url(#linear-gradient-12); stroke-width: 0px;"/>
        </g>
        <polygon points="435.8 631.3 460.9 629.2 463.2 629 462.1 616.7 461 616.8 434.7 619 435.8 631.3" style="fill: #998675; stroke-width: 0px;"/>
        <rect x="384.8" y="623" width="7" height="12.3" transform="translate(-51.5 34.8) rotate(-4.8)" style="fill: #998675; stroke-width: 0px;"/>
        <rect x="417.7" y="620" width="11.6" height="12.3" transform="translate(-51.1 37.8) rotate(-4.8)" style="fill: #998675; stroke-width: 0px;"/>
        <polygon points="378.3 623.8 373.4 624.2 371.5 624.4 372.5 636.6 373.3 636.6 379.3 636.1 378.3 623.8" style="fill: #998675; stroke-width: 0px;"/>
        <polygon points="429.8 631.8 430.2 636.4 436.2 635.9 435.8 631.3 434.7 619 434.4 614.5 428.4 615 428.8 619.5 429.8 631.8" style="fill: #555; stroke-width: 0px;"/>
        <path d="M379.3,636.1l.4,4.6,6-.5-.4-4.6-1-12.3-.4-4.6h-.5c-1.5,1.5-3.3,2.7-5.2,3.7v1.4c.1,0,1.2,12.3,1.2,12.3Z" style="fill: #555; stroke-width: 0px;"/>
        <polygon points="392.3 635 392.6 639.1 418.6 636.9 418.2 632.8 417.2 620.5 416.9 616.3 390.9 618.5 391.2 622.7 392.3 635" style="fill: #b3b3b3; stroke-width: 0px;"/>
        <path d="M338.7,759.7s6.6-6.2,21.3,0c8.1,3.2,9.2,8.3,8.8,14.5l43.6-101.6,3.3-7.7-42.1-21.7-.9,2.9-34.1,113.5h0Z" style="fill: #08b; stroke-width: 0px;"/>
        <path d="M361.8,794.9c-6.9,8.1-18,6.6-25.3,6.6h0l9.2,55.4,9.4,56.5,19.8-79.9-8.1-48.4c-.9,3.6-2.5,6.1-5.1,9.7Z" style="fill: #08b; stroke-width: 0px;"/>
        <path d="M480.7,514.1c-4.5-14.7-8.3-26.7-8.7-29.5-1.8-13.3-6.7-23.7-12.6-25.5-2.3-.7-4.7-.2-7.1,2.1-10.1,9.1-31.4,21.3-22.1,59.6.5,2.2,6,13.1,11.7,24.1,6.7-.7,14.1-.9,20.8-.8,5.6,0,10.8.2,14.8.4,2.9-2,6.4-3.8,10.6-5.2-2.4-8.5-5-17.1-7.4-25Z" style="fill: url(#linear-gradient-13); stroke-width: 0px;"/>
        <path d="M464.9,572.9c-11.1-8.9-25.1-23.4-25.1-23.4-30.7,7.2-65.6,20-65.6,20,0,0,1.1,8.6,1.9,13.7,9,1.6,13.8,9.1,14.1,18,5.1-1.1,12-2.5,19.9-4.2,15.2-3.2,34-7.2,49.9-10.6.6-.1,1.1-.2,1.7-.3,2.1-.4,4-.8,5.8-1.1-.5-1.5-2-6.2-2.5-12.1Z" style="fill: #183b59; stroke-width: 0px;"/>
        <path d="M329.2,351.1c0,0,0,.1-.1.2.2-1.2.7-2.3,1.2-3.4.2-.4.4-.7.6-1-.6-3.5-1.6-7-2.4-10.6-1.4-.2-2.5-1.2-2.8-2.6-.3-1.5.4-2.9,1.6-3.6-.3-2.4-.5-4.9-.4-7.6.3-5.2,1.1-10.7,2.2-15.9-.4-.2-.7-.3-.7-.3,0,0-8.9.5-14.3-6.9-1.5,22,6.1,42.9,14.4,58.6,0-.6-.1-1.3-.1-2,0-1.7.2-3.4.7-5Z" style="fill: #562a19; stroke-width: 0px;"/>
        <path d="M382.7,398.8c.2-.1.5-.2.7-.4-.2.1-.4.2-.7.4Z" style="fill: #ffe1d9; stroke-width: 0px;"/>
        <path d="M381.8,399.2c.2,0,.4-.2.6-.3-.2,0-.4.2-.6.3Z" style="fill: #ffe1d9; stroke-width: 0px;"/>
        <path d="M378.2,400.3c.3,0,.6-.1.8-.2-.3,0-.5.1-.8.2Z" style="fill: #ffe1d9; stroke-width: 0px;"/>
        <path d="M377,400.6c.2,0,.4,0,.6-.1-.2,0-.4,0-.6.1Z" style="fill: #ffe1d9; stroke-width: 0px;"/>
        <path d="M375.8,400.8c.2,0,.4,0,.6,0-.2,0-.4,0-.6,0Z" style="fill: #ffe1d9; stroke-width: 0px;"/>
        <path d="M379.4,400c.3,0,.6-.2,1-.3-.3.1-.6.2-1,.3Z" style="fill: #ffe1d9; stroke-width: 0px;"/>
        <path d="M380.7,399.6c.2,0,.4-.2.6-.2-.2,0-.4.2-.6.2Z" style="fill: #ffe1d9; stroke-width: 0px;"/>
        <path d="M441.6,392.4c-3,3.1-8.2,4.8-8.2,4.8-2.7,13.9-16.3,27.6-19,29,8.2-4,15.8-9.3,20.9-14.7,2.5-2.7,4.9-5.5,7.1-8.5.7-2.1,2-6.6,2.9-12.6-1.9,1.1-3.2,1.7-3.7,2.1Z" style="fill: #ffe1d9; stroke-width: 0px;"/>
        <path d="M442.5,381.2c-4.7-1.9-7.5-6.9-7.8-13-.2-3.5-.3-7.4,1.2-11.2l-2.4-18.4c-2.9,23.7-1.6,43.3-1.4,45.8l7.2,1.7c1-.8,3.1-2,5.9-4.3-.9-.1-1.7-.3-2.6-.7Z" style="fill: #ffe1d9; stroke-width: 0px;"/>
        <polygon points="432.2 396.8 433.4 397.2 433.4 397.2 432.2 396.8" style="fill: #ffe1d9; stroke-width: 0px;"/>
        <path d="M414.2,426.2c-2,1-3.3,1.6-8.1,3.5,2.7-1,5.4-2.2,8.1-3.5Z" style="fill: #ffe1d9; stroke-width: 0px;"/>
        <path d="M385.5,396.7c0-.1.2-.3.3-.4,0,.1-.2.3-.3.4Z" style="fill: #ffe1d9; stroke-width: 0px;"/>
        <path d="M385.3,396.9c0,.1-.2.2-.3.3.1,0,.2-.2.3-.3Z" style="fill: #ffe1d9; stroke-width: 0px;"/>
        <path d="M384.4,397.7c.1,0,.3-.2.4-.3-.1.1-.2.2-.4.3Z" style="fill: #ffe1d9; stroke-width: 0px;"/>
        <path d="M383.5,398.3c.2-.1.4-.3.6-.4-.2.1-.4.3-.6.4Z" style="fill: #ffe1d9; stroke-width: 0px;"/>
        <path d="M374.7,401c.1,0,.3,0,.4,0-.1,0-.3,0-.4,0Z" style="fill: #ffe1d9; stroke-width: 0px;"/>
        <path d="M354.4,398.8c-.7-.3-1.4-.6-2-1,.6.3,1.2.7,2,1Z" style="fill: #ffe1d9; stroke-width: 0px;"/>
        <path d="M351.6,397.3c-.5-.3-.9-.7-1.3-1.1.4.4.8.7,1.3,1.1Z" style="fill: #ffe1d9; stroke-width: 0px;"/>
        <path d="M372.7,401.2s0,0,0,0c0,0,.2,0,.3,0,0,0-.2,0-.3,0Z" style="fill: #ffe1d9; stroke-width: 0px;"/>
        <path d="M350.2,396.1c-.1-.2-.3-.3-.4-.5.1.2.3.3.4.5Z" style="fill: #ffe1d9; stroke-width: 0px;"/>
        <path d="M352.4,397.8c-.3-.2-.5-.3-.8-.5.2.2.5.3.8.5Z" style="fill: #ffe1d9; stroke-width: 0px;"/>
        <path d="M359.2,400.3c-.3,0-.5-.1-.7-.2.2,0,.5.1.7.2Z" style="fill: #ffe1d9; stroke-width: 0px;"/>
        <path d="M360.2,400.5c-.2,0-.3,0-.5,0,.1,0,.3,0,.5,0Z" style="fill: #ffe1d9; stroke-width: 0px;"/>
        <path d="M356.9,399.7c-.4-.1-.8-.3-1.2-.4.4.1.8.3,1.2.4Z" style="fill: #ffe1d9; stroke-width: 0px;"/>
        <path d="M358,400c-.4-.1-.8-.2-1.1-.3.4.1.7.2,1.1.3Z" style="fill: #ffe1d9; stroke-width: 0px;"/>
        <path d="M355.6,399.2c-.4-.1-.7-.3-1-.4.3.1.7.3,1,.4Z" style="fill: #ffe1d9; stroke-width: 0px;"/>
        <path d="M391.7,433.2c4.3-.3,9-1.5,13.9-3.3.2,0,.3-.1.5-.2,16.5-14.9,19.5-35,19.5-35l-.9-6.8h0s.6-.3.6-.3c-1.9-28.4-1.5-33.4,2.1-64.1-6.5-1.3-16.9-3.4-29-6.1l5.1,5.6s-28.4-1.7-48.6-6.8c-6.2-1.6-22.2-8.3-25.7-9.7-1.1,5.2-2,10.6-2.2,15.9-.1,2.6,0,5.1.4,7.6.3-.2.6-.3,1-.4,3.3-.7,6.8-1.2,10.1-1.4,3.4-.2,8.2-.1,11.8,1.1,1.8.6,2.7,2.6,2,4.3-.5,1.3-1.6,2.1-2.9,2.2-.5,0-1,0-1.4-.2-1.9-.7-5.2-1-9.1-.7-3,.2-6.1.6-9,1.2-.4,0-.8,0-1.2,0,.8,3.6,1.8,7,2.4,10.6.5-.7,1-1.3,1.6-1.9.9-.9,2.1-1.5,3.2-2,1.2-.5,2.4-.8,3.7-1,1.3-.1,2.6,0,3.8.2,1.2.3,2.4.8,3.5,1.4,2.2,1.2,3.9,3,5.5,4.8-.3-.2-.6-.4-.9-.6,2.3,2.5,3.8,5.5,3.8,8.5,0,3.7-2.4,6.6-5.7,8.4-1.2.9-2.5,1.5-3.9,2-1.7.6-3.5.9-5.4.9-1.8,0-3.7-.4-5.4-1.1-.9-.3-1.7-.8-2.4-1.3-.6-.5-1.2-1.1-1.6-1.8-.1-.2-.2-.3-.4-.5-.3.9-.6,1.9-.9,2.9-8.7,23.2,3.2,40.2,19.6,53.7,7.8,6.5,16.9,10.8,26.5,12.7,5.3,1,10.6,1.4,16,.9ZM412.3,355.5c-1.2,2.5-3.4,4.6-5.9,6-2.5,1.4-5.4,2.1-8.2,2.4-2.8.3-5.7.2-8.5-.4-2.7-.6-5.6-1.6-7.6-3.6.4.2.8.4,1.2.6-2.1-1.5-3.6-3.6-4.1-6.1-.3-1.7,0-3.5.6-5.3,0,0,0,.1-.1.2,1.4-3.3,3.3-6.7,6.2-9.2,2.9-2.5,6.7-4,10.6-3.9,3.9,0,7.6,1.6,10.6,4,2.2,1.7,4,4,5.1,6.5.4.9.7,1.8.9,2.7.5,2.8-.4,5.4-2.2,7.6.5-.4.9-.9,1.4-1.4ZM379.4,327c6.8-3.8,24-4.4,32-2.1,1.8.5,2.8,2.4,2.3,4.2-.4,1.4-1.6,2.3-3,2.4-.4,0-.8,0-1.2-.1-6.4-1.8-21.6-1.4-26.8,1.5-1.6.9-3.7.3-4.6-1.3-.9-1.6-.3-3.7,1.3-4.6ZM357.7,367.8c.8-1.2,1.7-2.3,2.3-3.6.7-1.2,1.2-2.5,1-4,.4.6.6,1.4.6,2.2,0,.8-.1,1.6-.3,2.3-.4,1.5-1,2.9-1.7,4.2-.7,1.3-1.5,2.6-2.3,3.8-.8,1.2-1.6,2.4-2.3,3.6-.2.3-.3.6-.4.8,0,.1,0,.2,0,.3,0,0,0,0,0,0v.2c0,.5.1.9.4,1.4.5,1,1.5,1.9,2.6,2.7,1.1.8,2.3,1.5,3.6,2.1,1.3.6,2.6,1.2,4.1,1.5-.7.2-1.5.2-2.3.1-.8,0-1.5-.2-2.3-.3-1.5-.3-3-.8-4.4-1.5-1.4-.7-2.8-1.7-3.8-3.2-.5-.8-.9-1.7-.9-2.7v-.4c0-.1,0-.4,0-.5,0-.3.1-.6.2-.8.2-.4.4-.8.6-1.2.8-1.4,1.7-2.6,2.5-3.8l2.6-3.5ZM354.3,403c-4.5-3.9-6.9-8.5-6.9-8.5,0,0,.7.2,2,.5,0,.2.2.4.3.6-.1-.2-.2-.4-.3-.6,3.1.7,9.7,1.9,17.7,2.2,8,.3,15.2-.5,18.7-1,0,0,0,0,0,0,1.5-.2,2.3-.3,2.3-.3,0,0-3.4,5-8.9,8.7-3.3,2.2-7.4,3.9-12,3.8-5.3-.2-9.7-2.6-12.9-5.4Z" style="fill: #ffe1d9; stroke-width: 0px;"/>
        <path d="M450.6,273.6c0,0,.1,0,.2,0,0,0-.1,0-.2,0Z" style="fill: #562a19; stroke-width: 0px;"/>
        <path d="M468.1,290.7c-.5-.8-.8-1.8-.9-2.8.1,1,.5,2,.9,2.8Z" style="fill: #562a19; stroke-width: 0px;"/>
        <path d="M473.6,283.2c-.7,0-1.3,0-1.9.1.6-.1,1.3-.2,1.9-.1,4.2.3,7.4,4,7.1,8.2,0,.1,0,.2,0,.3-1.1,1.4-2.7,2.3-4.5,2.6,1.8-.3,3.4-1.3,4.5-2.6,0-.1,0-.2,0-.3.3-4.2-2.9-7.9-7.1-8.2Z" style="fill: #562a19; stroke-width: 0px;"/>
        <path d="M480,281.3c1.2,1.2,2.1,2.8,2.3,4.5-.2-1.8-1.1-3.3-2.3-4.5Z" style="fill: #562a19; stroke-width: 0px;"/>
        <path d="M467.2,287.9c0-.3,0-.5,0-.8,0,.3,0,.5,0,.8Z" style="fill: #562a19; stroke-width: 0px;"/>
        <path d="M457.5,285.7c0-.3,0-.5,0-.8,0,.3,0,.5,0,.8,0,.1,0,.2,0,.3-1.5,1.8-3.9,2.9-6.4,2.7-1.1,0-2-.4-2.9-.8.9.5,1.9.7,2.9.8,2.5.2,4.9-.9,6.4-2.7.5-.6.9-1.3,1.2-2-.3.7-.7,1.4-1.2,2,0-.1,0-.2,0-.3Z" style="fill: #562a19; stroke-width: 0px;"/>
        <path d="M470.6,265.6c0,0,0,.1,0,.2.2-.2.4-.5.6-.8,0,0,0,0,0,0-.1.2-.3.5-.5.7Z" style="fill: #562a19; stroke-width: 0px;"/>
        <path d="M458.6,278c.2.4.4.9.5,1.4-.1-.5-.3-1-.5-1.4Z" style="fill: #562a19; stroke-width: 0px;"/>
        <path d="M459.2,281.7c0,.8-.3,1.6-.6,2.3.3-.7.5-1.5.6-2.3,0-.8,0-1.6-.2-2.3.2.7.2,1.5.2,2.3Z" style="fill: #562a19; stroke-width: 0px;"/>
        <path d="M457.1,260.5c0-.1,0-.2,0-.3,1.5-1.8,3.9-2.9,6.4-2.7,0,0,.2,0,.3,0,0,0,0,0,0,0,0,0-.2,0-.3,0-2.5-.2-4.8.9-6.3,2.6,0,0,0,0,0,.1,0,.1,0,.2,0,.3,0,.5,0,1,0,1.5,0-.5,0-1,0-1.5Z" style="fill: #562a19; stroke-width: 0px;"/>
        <path d="M445,277.5c.2-.4.5-.8.8-1.2-.3.4-.6.8-.8,1.2Z" style="fill: #562a19; stroke-width: 0px;"/>
        <path d="M468.1,283.2c-.5.8-.8,1.8-.9,2.8h0c.1-1,.4-1.9.9-2.8Z" style="fill: #562a19; stroke-width: 0px;"/>
        <path d="M479.9,281.3c-1.2-1.1-2.8-1.9-4.6-2-.3,0-.5,0-.8,0,.3,0,.5,0,.8,0,1.8.1,3.4.9,4.6,2Z" style="fill: #562a19; stroke-width: 0px;"/>
        <path d="M445.3,390.3c-.9,6-2.2,10.6-2.9,12.6-.3.8-.4,1.2-.4,1.2,0,0,28.1-26.9,39.3-73.5-.5.1-1.1.2-1.8.3-10.4,42-26.7,54.9-34.2,59.4Z" style="fill: #562a19; stroke-width: 0px;"/>
        <path d="M437.7,353.2c4.9-8,13.4-12.3,19.9-9.7,3.6,1.4,6,4.7,7.2,8.8,2.5-6,5-13.2,7.4-21.7-1.3-.4-2.4-1.2-3.1-2.3-.9-1.3-1.2-2.9-.8-4.6.8-3.1-1.1-6.2-4.2-7l-15.6-.4c-2.4-.6-4.9.5-6.2,2.5,0,1,0,1.9,0,2.9-.4,17.6-2.7,26.9-4.4,31.4Z" style="fill: #562a19; stroke-width: 0px;"/>
        <path d="M352,376.2c0,.2-.2.5-.2.8,0,.1,0,.4,0,.5v.4c0,1,.4,2,.9,2.7,1,1.5,2.4,2.5,3.8,3.2,1.4.7,2.9,1.2,4.4,1.5.7.1,1.5.3,2.3.3.8,0,1.5,0,2.3-.1-1.5-.3-2.8-.9-4.1-1.5-1.3-.6-2.5-1.3-3.6-2.1-1.1-.8-2.1-1.7-2.6-2.7-.3-.5-.4-1-.4-1.4v-.2c0,0,0,0,0,0,0,0,0-.2,0-.3,0-.2.2-.5.4-.8.7-1.2,1.5-2.4,2.3-3.6.8-1.2,1.6-2.5,2.3-3.8.7-1.3,1.3-2.7,1.7-4.2.2-.8.3-1.5.3-2.3,0-.8-.2-1.6-.6-2.2.2,1.5-.3,2.8-1,4-.6,1.2-1.5,2.4-2.3,3.6l-2.6,3.5c-.9,1.2-1.7,2.4-2.5,3.8-.2.4-.4.7-.6,1.2Z" style="fill: #edbbab; stroke-width: 0px;"/>
        <path d="M325.7,333.6c.3,1.4,1.5,2.4,2.8,2.6.4,0,.8,0,1.2,0,3-.6,6.1-1.1,9-1.2,3.9-.2,7.2,0,9.1.7.5.2,1,.2,1.4.2,1.3-.1,2.4-.9,2.9-2.2.6-1.8-.3-3.7-2-4.3-3.5-1.3-8.3-1.3-11.8-1.1-3.3.2-6.8.6-10.1,1.4-.3,0-.7.2-1,.4-1.3.7-2,2.2-1.6,3.6Z" style="fill: #42210b; stroke-width: 0px;"/>
        <path d="M382.7,333c5.2-2.9,20.4-3.4,26.8-1.5.4.1.8.2,1.2.1,1.4-.1,2.6-1.1,3-2.4.5-1.8-.5-3.7-2.3-4.2-7.9-2.3-25.2-1.7-32,2.1-1.6.9-2.2,3-1.3,4.6.9,1.6,3,2.2,4.6,1.3Z" style="fill: #42210b; stroke-width: 0px;"/>
        <path d="M413.1,349.3c-1.5-3.4-4.1-6-6.9-7.9-2.9-1.9-6.3-3.2-9.7-3.2-3.4,0-6.8,1.1-9.6,3.2-2.8,2.1-4.9,4.9-7,7.8-.6,1.7-.9,3.5-.6,5.3.4,2.5,1.9,4.6,4.1,6.1,2.1.9,4.4,1.2,6.6,1.5.1,0,.2,0,.3,0-4-1.2-7.1-4.5-7.9-8.9-1.1-6.2,3.1-12,9.2-13.1,6.2-1.1,12,3.1,13.1,9.2,1,5.7-2.5,11.2-8,12.8.4,0,.8,0,1.2-.1,2.7-.3,5.3-.9,7.7-1.9,1.9-.8,3.7-1.8,5.2-3.2,1.8-2.2,2.7-4.7,2.2-7.6Z" style="fill: #fff; stroke-width: 0px;"/>
        <path d="M412.2,346.5c.4.9.7,1.8.9,2.7-.2-.9-.5-1.8-.9-2.7Z" style="fill: #fff; stroke-width: 0px;"/>
        <path d="M396.8,362c5.4-1.6,8.9-7,8-12.8-1.1-6.2-6.9-10.3-13.1-9.2-6.2,1.1-10.3,6.9-9.2,13.1.7,4.4,3.9,7.7,7.9,8.9,2.2.2,4.3.2,6.5,0ZM383.9,353.9c-.9-5.1,2.6-10,7.7-10.9,5.1-.9,10,2.6,10.9,7.7.9,5.1-2.6,10-7.7,10.9-5.1.9-10-2.6-10.9-7.7Z" style="fill: #a67c52; stroke-width: 0px;"/>
        <path d="M402.5,350.7c-.9-5.1-5.7-8.6-10.9-7.7-5.1.9-8.6,5.7-7.7,10.9.9,5.1,5.7,8.6,10.9,7.7,5.1-.9,8.6-5.7,7.7-10.9ZM392.5,359.3c-1.9.3-3.8-1-4.1-2.9-.3-1.9,1-3.8,2.9-4.1,1.9-.3,3.8,1,4.1,2.9.3,1.9-1,3.8-2.9,4.1Z" style="fill: #2b1407; stroke-width: 0px;"/>
        <path d="M395.4,355.3c-.3-1.9-2.2-3.2-4.1-2.9-1.9.3-3.2,2.2-2.9,4.1.3,1.9,2.2,3.2,4.1,2.9,1.9-.3,3.2-2.2,2.9-4.1Z" style="fill: #f2f2f2; stroke-width: 0px;"/>
        <path d="M386.9,341.3c2.8-2,6.2-3.2,9.6-3.2,3.4,0,6.8,1.3,9.7,3.2,2.9,2,5.4,4.6,6.9,7.9-.2-.9-.5-1.8-.9-2.7-1.1-2.5-2.9-4.8-5.1-6.5-3-2.3-6.7-3.9-10.6-4-3.9,0-7.7,1.4-10.6,3.9-2.9,2.5-4.7,5.8-6.2,9.2,0,0,0-.1.1-.2,2.1-2.9,4.2-5.7,7-7.8Z" style="fill: #42210b; stroke-width: 0px;"/>
        <path d="M398,361.9c-.4,0-.8,0-1.2.1-2.1.2-4.3.2-6.5,0-.1,0-.2,0-.3,0-2.2-.3-4.5-.6-6.6-1.5-.4-.2-.8-.4-1.2-.6,2,2,4.8,3,7.6,3.6,2.8.6,5.6.7,8.5.4,2.8-.3,5.6-1.1,8.2-2.4,2.5-1.3,4.7-3.4,5.9-6-.4.5-.9.9-1.4,1.4-1.6,1.4-3.4,2.4-5.2,3.2-2.5,1-5.1,1.6-7.7,1.9Z" style="fill: #42210b; stroke-width: 0px;"/>
        <path d="M330.7,363.2c.7.6,1.4,1,2.2,1.3.1,0,.3.1.4.2-2.7-2-4.4-5.2-4.4-8.8,0-6,5-10.9,11-10.9,6,0,10.9,5,10.9,11,0,4-2.2,7.5-5.4,9.3,1.6-.3,3.3-.7,4.9-1.3-.3.2-.5.5-.8.7,3.3-1.8,5.7-4.7,5.7-8.4,0-3-1.5-6.1-3.8-8.5-1.7-1.1-3.4-2.2-5.2-3-2.1-.9-4.3-1.3-6.5-1.1-1.1,0-2.2.4-3.3.7-1.1.4-2,.9-3,1.5-1.8,1.3-3.2,3.1-4.3,5.1-.5,1.6-.7,3.3-.7,5,0,.7,0,1.3.1,2,.3,1.9.9,3.6,1.9,4.9.1.2.2.3.4.5,0,0-.1-.2-.2-.3Z" style="fill: #fff; stroke-width: 0px;"/>
        <path d="M338.3,365.8c-4.5-.6-7.9-4.5-7.9-9.1,0-5,4.2-9.1,9.2-9,5,0,9.1,4.2,9,9.2,0,4.9-3.9,8.9-8.8,9,.1,0,.3,0,.4,0,.8,0,1.7,0,2.5-.1.8,0,1.7-.2,2.5-.3,0,0,0,0,.1,0,3.2-1.9,5.4-5.4,5.4-9.3,0-6-4.8-11-10.9-11-6,0-11,4.8-11,10.9,0,3.6,1.7,6.8,4.4,8.8.6.3,1.3.5,2,.6,1,.2,2,.4,3,.5Z" style="fill: #a67c52; stroke-width: 0px;"/>
        <path d="M348.7,356.8c0-5-4-9.1-9-9.2-5,0-9.1,4-9.2,9,0,4.6,3.4,8.5,7.9,9.1.5,0,1,0,1.6,0,4.9-.2,8.8-4.1,8.8-9ZM337.2,363.4c-1.9,0-3.4-1.6-3.4-3.4,0-1.9,1.6-3.4,3.4-3.4s3.4,1.6,3.4,3.4c0,1.9-1.6,3.4-3.4,3.4Z" style="fill: #2b1407; stroke-width: 0px;"/>
        <path d="M337.2,356.6c-1.9,0-3.4,1.5-3.4,3.4,0,1.9,1.5,3.4,3.4,3.4,1.9,0,3.4-1.5,3.4-3.4,0-1.9-1.5-3.4-3.4-3.4Z" style="fill: #f2f2f2; stroke-width: 0px;"/>
        <path d="M345.4,365.4s0,0-.1,0c-.8.1-1.7.3-2.5.3-.8,0-1.7.1-2.5.1-.1,0-.3,0-.4,0-.5,0-1,0-1.6,0-1,0-2-.2-3-.5-.7-.2-1.3-.4-2-.6-.1,0-.3,0-.4-.2-.8-.3-1.5-.7-2.2-1.3,0,.1.1.2.2.3.4.7,1,1.3,1.6,1.8.7.6,1.5,1,2.4,1.3,1.7.7,3.5,1.1,5.4,1.1,1.8,0,3.7-.3,5.4-.9,1.4-.5,2.7-1.1,3.9-2,.3-.2.6-.4.8-.7-1.7.6-3.3,1-4.9,1.3Z" style="fill: #42210b; stroke-width: 0px;"/>
        <path d="M329.1,351.3c0,0,0-.1.1-.2,1.1-2,2.5-3.9,4.3-5.1.9-.7,1.9-1.1,3-1.5,1.1-.4,2.2-.6,3.3-.7,2.2-.2,4.4.2,6.5,1.1,1.8.8,3.5,1.9,5.2,3,.3.2.6.4.9.6-1.5-1.8-3.3-3.6-5.5-4.8-1.1-.6-2.3-1.1-3.5-1.4-1.2-.3-2.5-.4-3.8-.2-1.3.1-2.5.5-3.7,1-1.1.5-2.3,1.1-3.2,2-.6.6-1.2,1.2-1.6,1.9-.2.3-.5.7-.6,1-.6,1.1-1,2.2-1.2,3.4Z" style="fill: #42210b; stroke-width: 0px;"/>
        <path d="M433.4,338.6l2.4,18.4c.5-1.3,1.2-2.6,1.9-3.8,1.7-4.5,4.1-13.8,4.4-31.4,0-1,0-2,0-2.9-.3.5-.6,1.1-.8,1.8-.7,2.8-3.4,4.7-6.2,4.4h.3c-.9,4.6-1.5,9.2-2.1,13.6Z" style="fill: #562a19; stroke-width: 0px;"/>
        <path d="M328.6,306.3s.3.1.7.3c3.5,1.5,19.5,8.2,25.7,9.7,20.2,5.1,48.6,6.8,48.6,6.8l-5.1-5.6c-30.6-6.8-71.8-17.1-86.4-26.5-.5-.4-1-.7-1.5-1,.6,4.1,2,7.2,3.7,9.5,5.4,7.3,14.3,6.9,14.3,6.9Z" style="fill: #6e391f; stroke-width: 0px;"/>
        <path d="M463.5,367.8c-3.6,9-11.2,14.7-17.9,14.2-.2,0-.4,0-.6,0-2.7,2.3-4.8,3.5-5.9,4.3l2.4,6.3h0c.5-.4,1.9-1,3.7-2.1,7.5-4.5,23.7-17.4,34.2-59.4-.6,0-1.3.2-2.1.2h-3.4c0,0-1.5-.4-1.5-.4,0,0-.2,0-.3,0-2.3,8.5-4.8,15.6-7.4,21.7,1.2,4.5.9,10-1.3,15.4Z" style="fill: #74777b; stroke-width: 0px;"/>
        <path d="M434.6,368.2c.3-1.6.9-3.3,1.5-5,3.6-9,10.6-14.6,15.6-12.6,5,2,6.1,10.9,2.5,19.9-2.1,5.2-5.4,9.3-8.7,11.4,6.8.5,14.3-5.2,17.9-14.2,2.2-5.4,2.5-10.9,1.3-15.4-1.1-4.1-3.6-7.4-7.2-8.8-6.5-2.6-15.1,1.7-19.9,9.7-.7,1.2-1.3,2.4-1.9,3.8-1.5,3.8-1.4,7.7-1.2,11.2Z" style="fill: #ffe1d9; stroke-width: 0px;"/>
        <path d="M454.3,370.5c3.6-9,2.5-17.9-2.5-19.9-5-2-12,3.6-15.6,12.6-.7,1.7-1.2,3.3-1.5,5,.3,6.1,3.1,11.1,7.8,13,.8.3,1.7.6,2.6.7.2,0,.4,0,.6,0,3.3-2.1,6.6-6.2,8.7-11.4Z" style="fill: #edbbab; stroke-width: 0px;"/>
        <path d="M385.7,396.3c0,.1-.2.3-.3.4,0,0-.1.1-.2.2,0,.1-.2.2-.3.3,0,0-.2.1-.2.2-.1.1-.2.2-.4.3,0,0-.2.1-.2.2-.2.1-.4.3-.6.4,0,0-.1,0-.2.1-.2.1-.4.2-.7.4-.1,0-.2.1-.3.2-.2,0-.4.2-.6.3-.1,0-.2.1-.4.2-.2,0-.4.2-.6.2-.1,0-.2,0-.4.1-.3.1-.6.2-1,.3-.1,0-.3,0-.4.1-.3,0-.5.1-.8.2-.2,0-.4,0-.5.1-.2,0-.4,0-.6.1-.2,0-.4,0-.6.1-.2,0-.4,0-.6,0-.2,0-.5,0-.7.1-.1,0-.3,0-.4,0-.6,0-1.2.1-1.8.2,0,0-.2,0-.3,0,2.6.9,4.9,2.1,6.5,3.4,5.5-3.7,8.9-8.7,8.9-8.7,0,0-.8.1-2.3.3,0,0,0,0,0,0,0,0,0,0,0,0,0,0,0,0-.1.1Z" style="fill: #7a0a0a; stroke-width: 0px;"/>
        <path d="M360.2,400.5c-.2,0-.3,0-.5,0-.2,0-.4,0-.6-.1-.3,0-.5-.1-.7-.2-.1,0-.3,0-.4-.1-.4-.1-.8-.2-1.1-.3,0,0,0,0,0,0-.4-.1-.8-.3-1.2-.4,0,0,0,0-.1,0-.4-.1-.7-.3-1-.4,0,0,0,0,0,0-.7-.3-1.4-.6-2-1,0,0,0,0,0,0-.3-.2-.5-.3-.8-.5,0,0,0,0,0,0-.5-.3-.9-.7-1.3-1.1,0,0,0,0,0,0-.1-.2-.3-.3-.4-.5,0,0,0,0,0-.1-.1-.2-.3-.4-.3-.6-1.2-.3-2-.5-2-.5,0,0,2.4,4.6,6.9,8.5,1.8-.9,4.2-1.8,6.6-2.4-.2,0-.5,0-.7-.1Z" style="fill: #7a0a0a; stroke-width: 0px;"/>
        <path d="M372.7,401.2s0,0,0,0c-1.7.1-3.4.2-5.2.1-2.3,0-4.5-.3-6.5-.7-2.4.6-4.8,1.5-6.6,2.4,3.2,2.8,7.5,5.2,12.9,5.4,4.6.1,8.7-1.6,12-3.8-1.7-1.3-4-2.5-6.5-3.4Z" style="fill: #ad3434; stroke-width: 0px;"/>
        <path d="M350.2,396.1s0,0,0,0c.4.4.8.7,1.3,1.1,0,0,0,0,0,0,.2.2.5.3.8.5,0,0,0,0,0,0,.6.3,1.2.7,2,1,0,0,0,0,0,0,.3.1.7.3,1,.4,0,0,0,0,.1,0,.4.1.8.3,1.2.4,0,0,0,0,0,0,.4.1.7.2,1.1.3.1,0,.3,0,.4.1.2,0,.5.1.7.2.2,0,.4,0,.6.1.1,0,.3,0,.5,0,.2,0,.5,0,.7.1,2,.4,4.2.6,6.5.7,1.8,0,3.6,0,5.2-.1,0,0,.2,0,.3,0,.6,0,1.2-.1,1.8-.2.1,0,.3,0,.4,0,.2,0,.5,0,.7-.1.2,0,.4,0,.6,0,.2,0,.4,0,.6-.1.2,0,.4,0,.6-.1.2,0,.4,0,.5-.1.3,0,.6-.1.8-.2.1,0,.3,0,.4-.1.3,0,.6-.2,1-.3.1,0,.2,0,.4-.1.2,0,.4-.2.6-.2.1,0,.2,0,.4-.2.2,0,.4-.2.6-.3.1,0,.2,0,.3-.2.2-.1.5-.2.7-.4,0,0,.1,0,.2-.1.2-.1.4-.3.6-.4,0,0,.2-.1.2-.2.1,0,.3-.2.4-.3,0,0,.2-.1.2-.2.1,0,.2-.2.3-.3,0,0,.1-.1.2-.2,0-.1.2-.3.3-.4,0,0,0,0,.1-.1,0,0,0,0,0,0-3.5.5-10.8,1.3-18.7,1-8-.3-14.6-1.5-17.7-2.2,0,.2.2.4.3.6,0,0,0,0,0,.1.1.2.3.3.4.5Z" style="fill: #fff; stroke-width: 0px;"/>
        <path d="M431.4,384.2h.6c-.2-2.4-1.5-21.9,1.4-45.7.5-4.4,1.2-8.9,2.1-13.5h-.3c-.3,0-.5-.1-.8-.2,0,0-2.6-.5-7-1.3-3.6,30.7-4,35.7-2.1,64.1l6-3.4h0Z" style="fill: #74777b; stroke-width: 0px;"/>
        <path d="M433.4,397.2l-1.2-.4-6.5-2.1h0s-3.1,20.2-19.5,35h0s0,0,0,0c4.8-1.9,6.1-2.5,8.1-3.5,0,0,0,0,.1,0,0,0,0,0,0,0,2.7-1.3,16.3-15,19-29Z" style="fill: #74777b; stroke-width: 0px;"/>
        <path d="M432.2,396.8l1.2.4h0s5.1-1.8,8.2-4.8h0s-2.4-6.3-2.4-6.3l-7.2-1.7h-.6c0-.1,0-.1,0-.1l-6,3.4-.6.3h0s.9,6.8.9,6.8h0s6.5,2.1,6.5,2.1Z" style="fill: #ff5a5a; stroke-width: 0px;"/>
        <path d="M398.4,317.5c12.1,2.7,22.6,4.8,29,6.1,4.4.9,7,1.3,7,1.3.3,0,.5.1.8.1,2.8.3,5.5-1.5,6.2-4.4.2-.7.4-1.2.8-1.8,1.3-2,3.8-3.1,6.2-2.5l15.6.4c3.1.8,5,3.9,4.2,7-.4,1.6,0,3.3.8,4.6.7,1.1,1.8,1.9,3.1,2.3,0,0,.2,0,.3,0l1.5.4h3.4c.8,0,1.4,0,2.1-.1.6,0,1.2-.2,1.8-.3,2.8-.6,4.3-1.6,5.4-4.2,3.8-9.7,6-20.2,6.3-31.3,1.4-48-34.6-89.8-82.2-95.7-50.6-6.2-95.8,28.7-104,77.3-.2,1.2-.4,3.4-.7,5.6-.3,3.6.3,4.7,4.5,7.5.5.3,1,.6,1.5,1,14.6,9.4,55.8,19.8,86.4,26.5ZM459.2,281.7c0,.8-.3,1.6-.6,2.3s-.7,1.4-1.2,2c-1.5,1.8-3.9,2.9-6.4,2.7-1.1,0-2-.4-2.9-.8-.2-.1-.4-.2-.6-.4-.4-.3-.8-.6-1.2-.9-.2-.2-.3-.3-.5-.5-1.3-1.5-2-3.4-1.8-5.5,0-.1,0-.2,0-.3h0c.1-1,.4-1.9.9-2.8.2-.4.5-.8.8-1.2.6-.7,1.3-1.3,2.2-1.8.8-.4,1.7-.7,2.6-.9,0,0,.1,0,.2,0,.5,0,1,0,1.4,0,2.1.2,3.9,1.1,5.2,2.6.5.6.9,1.2,1.2,1.8.2.4.4.9.5,1.4.2.7.2,1.5.2,2.3ZM476,294.4c-.6.1-1.2.1-1.9,0-2.1-.2-3.9-1.1-5.2-2.6-.3-.4-.6-.8-.8-1.2-.5-.8-.8-1.8-.9-2.8,0-.3,0-.5,0-.8s0-.5,0-.8c0-.1,0-.2,0-.3,0,0,0,0,0,0,.1-1,.4-1.9.9-2.8.5-.8,1.1-1.6,1.8-2.2.4-.3.8-.6,1.2-.8.4-.2.9-.4,1.3-.6.7-.2,1.4-.4,2.2-.4.3,0,.5,0,.8,0,1.8.1,3.4.9,4.6,2,0,0,0,0,0,0,1.2,1.2,2.1,2.8,2.3,4.5,0,.5,0,1,0,1.5-.1,1.7-.8,3.1-1.8,4.3h0c-1.1,1.4-2.7,2.3-4.5,2.6ZM465.3,253.4c4.2.3,7.4,4,7.1,8.2,0,1.3-.5,2.5-1.2,3.5-.2.3-.4.5-.6.8,0,0,0,0,0,.1-1.5,1.8-3.9,2.9-6.4,2.7-3.7-.3-6.6-3.1-7-6.7,0-.5,0-1,0-1.5,0-.1,0-.2,0-.3,0,0,0,0,0-.1,0,0,0,0-.1.1.4-3.5,3.2-6.3,6.7-6.7.5,0,1,0,1.5,0ZM355.3,217.2c21.3-13.9,47.2-13.9,54.1-4.3,6.9,9.6,7.4,26-18.4,45.3-20.3,15.3-51.9,14.5-58.7,4.9-6.9-9.6,1.7-32.1,23-45.9Z" style="fill: #ff5a5a; stroke-width: 0px;"/>
        <path d="M332.3,263.1c6.9,9.6,38.4,10.3,58.7-4.9,25.8-19.4,25.3-35.7,18.4-45.3-6.9-9.6-32.8-9.6-54.1,4.3-21.3,13.9-29.9,36.3-23,45.9Z" style="fill: #ff5a5a; stroke-width: 0px;"/>
        <path d="M332.3,263.1c6.9,9.6,38.4,10.3,58.7-4.9,25.8-19.4,25.3-35.7,18.4-45.3-6.9-9.6-32.8-9.6-54.1,4.3-21.3,13.9-29.9,36.3-23,45.9Z" style="fill: #fff; mix-blend-mode: overlay; opacity: .3; stroke-width: 0px;"/>
        <path d="M463.5,257.4c0,0,.2,0,.3,0,1.5.2,2.9.8,4,1.6,1.9,1.5,3.1,3.9,2.9,6.6,0,0,0,0,0,0,.2-.2.3-.4.5-.7.6-1,1-2.2,1.1-3.4.3-4.2-2.8-7.9-7.1-8.2-.5,0-1,0-1.4,0-3.5.4-6.3,3.1-6.7,6.7,0,0,0,0,.1-.1,1.5-1.7,3.8-2.8,6.3-2.6Z" style="fill: #e13; stroke-width: 0px;"/>
        <path d="M470.6,265.6c.2-2.6-1-5.1-2.9-6.6-1.1-.8-2.4-1.4-3.9-1.6,0,0-.2,0-.3,0-2.5-.2-4.9.9-6.4,2.7,0,.1,0,.2,0,.3,0,.5,0,1,0,1.5.4,3.6,3.3,6.4,7,6.7,2.5.2,4.9-.9,6.4-2.7,0,0,0,0,0-.1,0,0,0-.1,0-.2,0,0,0,0,0,0Z" style="fill: #383838; stroke-width: 0px;"/>
        <path d="M459.1,279.4c-.1-.5-.3-1-.5-1.4-.3-.7-.7-1.3-1.2-1.8-1.3-1.5-3.1-2.5-5.2-2.6-.5,0-1,0-1.4,0,0,0-.1,0-.2,0-.9.1-1.8.4-2.6.9-.8.5-1.6,1.1-2.2,1.8-.3.4-.6.8-.8,1.2-.5.8-.8,1.8-.9,2.8,1.5-1.8,3.9-2.9,6.4-2.7,3.9.3,7,3.5,7.1,7.4,0,.3,0,.5,0,.8,0,.1,0,.2,0,.3.5-.6.9-1.3,1.2-2s.5-1.5.6-2.3c0-.8,0-1.6-.2-2.3Z" style="fill: #e13; stroke-width: 0px;"/>
        <path d="M457.5,286c0-.1,0-.2,0-.3,0-.3,0-.5,0-.8-.1-3.9-3.1-7.1-7.1-7.4-2.5-.2-4.9.9-6.4,2.7h0c0,.1,0,.2,0,.3-.2,2.1.6,4.1,1.8,5.5.2.2.3.4.5.5.4.3.7.6,1.2.9.2.1.4.3.6.4.9.5,1.9.7,2.9.8,2.5.2,4.9-.9,6.4-2.7Z" style="fill: #383838; stroke-width: 0px;"/>
        <path d="M480.6,291.7c0-.1,0-.2,0-.3.3-4.2-2.9-7.9-7.1-8.2-.7,0-1.3,0-1.9.1-1.8.3-3.4,1.3-4.5,2.6h0s0,0,0,0c0,0,0,0,0,0,0,.1,0,.2,0,.3,0,.3,0,.5,0,.8s0,.5,0,.8c.1,1,.5,2,.9,2.8.2.4.5.8.8,1.2,1.3,1.5,3.1,2.5,5.2,2.6.6,0,1.3,0,1.9,0,1.8-.3,3.4-1.3,4.5-2.6Z" style="fill: #383838; stroke-width: 0px;"/>
        <path d="M482.3,287.4c0-.5,0-1,0-1.5-.2-1.8-1.1-3.3-2.3-4.5,0,0,0,0,0,0-1.2-1.1-2.8-1.9-4.6-2-.3,0-.5,0-.8,0-.8,0-1.5.1-2.2.4-.5.2-.9.3-1.3.6-.4.2-.8.5-1.2.8-.7.6-1.3,1.3-1.8,2.2-.5.8-.8,1.8-.9,2.8h0c1.1-1.3,2.7-2.3,4.5-2.6.6-.1,1.3-.2,1.9-.1,4.2.3,7.4,4,7.1,8.2,0,.1,0,.2,0,.3h0c1-1.2,1.6-2.7,1.8-4.3Z" style="fill: #e13; stroke-width: 0px;"/>
        <path d="M364.8,459.6c13.2,26,42,21.5,59.5-6.2.9-1.4,1.7-2.8,2.6-4.3h0s-2.3-.4-4.9-.6h0c-.4.6-.8,1.2-1.2,1.8-24.4,37.7-50,18.2-52.8,5.5-.1-.5-.2-1-.2-1.5h0s-.1,0-.2.2c0,0-.2.1-.3.2-.5.3-1.2.9-2,1.4-.4.3-.7.5-1.1.8-.1,0-.2.2-.4.3h0c0,.2.2.4.3.6.3.6.6,1.3.9,1.9Z" style="fill: #0c6ed6; stroke-width: 0px;"/>
        <path d="M419.7,996.9h.6c-.1,0-.2-.1-.3-.3,0,0-.2.2-.3.3Z" style="fill: #222322; stroke-width: 0px;"/>
        <path d="M436,999.5s0,0,0,0c-.1-.2-.2-.3-.4-.5,0,0,0,0,0-.1-.1-.2-.2-.3-.3-.5,0,0,0-.1-.1-.2-.1-.2-.2-.4-.3-.5,0,0,0-.1-.1-.2,0-.2-.2-.4-.3-.6,0,0,0-.1-.1-.2,0-.2-.2-.4-.3-.6,0,0,0-.1,0-.2,0-.2-.2-.5-.3-.7,0,0,0,0,0-.1-.3-.9-.6-1.8-.9-2.8,0,0,0,0,0,0,0-.3-.1-.5-.2-.8,0-.1,0-.2,0-.3,0-.2-.1-.5-.2-.7,0-.1,0-.3,0-.4,0-.2,0-.5-.1-.7,0-.2,0-.3,0-.5,0-.2,0-.5-.1-.7,0-.2,0-.4,0-.6,0-.2,0-.5,0-.7,0-.2,0-.4,0-.6-.9-.1-1.4-.2-1.4-.2v-.2c-3.4,3.7-6.8,7.4-10.2,11.1.1.1.2.3.3.4,0,0,0,0,0,0l17.6,4.2c-.7-.4-1.3-1-1.9-1.8Z" style="fill: #0d0e0d; stroke-width: 0px;"/>
        <path d="M456.2,973.3v.3s0,0,0,0c-1.1,5.9-2.7,11.4-4.6,15.6-2.4,5.2-5,8-7.6,8.2-.3,0-.6,0-.9,0-2-.3-3.6-2-4.7-5.2-.7-1.9-1.1-4-1.5-6.2-2,.1-3.9,0-5.2-.2,0,.2,0,.4,0,.6,0,.2,0,.5,0,.7,0,.2,0,.4,0,.6,0,.2,0,.5.1.7,0,.2,0,.3,0,.5,0,.2,0,.5.1.7,0,.1,0,.3,0,.4,0,.2.1.5.2.7,0,.1,0,.2,0,.3,0,.3.1.5.2.8,0,0,0,0,0,0,.3,1,.5,1.9.9,2.8,0,0,0,0,0,.1,0,.2.2.5.3.7,0,0,0,.1,0,.2,0,.2.2.4.3.6,0,0,0,.2.1.2,0,.2.2.4.3.6,0,0,0,.1.1.2.1.2.2.4.3.5,0,0,0,.1.1.2.1.2.2.4.3.5,0,0,0,0,0,.1.1.2.2.3.4.5,0,0,0,0,0,0,.6.7,1.2,1.3,1.9,1.8.6.4,1.3.6,2,.7,6.9,1,14.6-13.3,17.3-31.9-.2.1-.3.3-.5.4-.1,1-.3,1.9-.5,2.9Z" style="fill: #222322; stroke-width: 0px;"/>
        <path d="M441.2,991.8c.7,1.7,1.5,2.7,2.2,2.8,1.1.2,3.2-1.5,5.5-6.5,1.4-3.1,2.6-6.8,3.6-11-1.4,1.2-3,2.7-4.6,4-1.9,5.9-4.4,10-6.7,10.8Z" style="fill: #555; stroke-width: 0px;"/>
        <polygon points="451.4 961.2 451.9 961.2 451.4 961.1 451.4 961.2" style="fill: #555; stroke-width: 0px;"/>
        <path d="M451.4,961.2s0,0,0,0l-5.7-.3s0,0,0,0l5.7.3Z" style="fill: #74777b; stroke-width: 0px;"/>
        <path d="M441.2,991.8c2.3-.8,4.8-4.8,6.7-10.8-2.2,1.8-4.3,3.3-5.7,3.9-.8.3-1.6.6-2.5.8.3,2,.7,3.8,1.3,5.6,0,.2.1.3.2.5Z" style="fill: #74777b; stroke-width: 0px;"/>
        <path d="M445.7,960.9s0,0,0,0h-1.3c0,0,0,0,0,0h1.3Z" style="fill: #0d0e0d; stroke-width: 0px;"/>
        <path d="M456.6,970.4c-.2.1-.4.3-.5.4v2.5c.2-.9.4-1.9.5-2.9Z" style="fill: #74777b; stroke-width: 0px;"/>
        <path d="M452.5,977.1c-1,4.2-2.2,7.9-3.6,11-2.3,5.1-4.4,6.7-5.5,6.5-.8-.1-1.6-1.1-2.2-2.8,0-.2-.1-.3-.2-.5-.6-1.7-1-3.6-1.3-5.6-.9.2-1.9.3-2.8.4.3,2.2.8,4.3,1.5,6.2,1.1,3.2,2.7,4.9,4.7,5.2.3,0,.6,0,.9,0,2.6-.2,5.3-3,7.6-8.2,1.9-4.2,3.5-9.6,4.6-15.6-.3.3-1.8,1.7-3.6,3.4Z" style="fill: #74777b; stroke-width: 0px;"/>
        <path d="M323.4,999.2c2.1-2.8,4.9-5.3,8.5-7-.2-1.3-.4-2.9-.7-4.6l-12.2,5.8c.2,2.6.4,5.1.5,7.7l3.9-1.9Z" style="fill: #222322; stroke-width: 0px;"/>
        <path d="M429.9,981.2h0s0-.1,0-.1l8.3-8.1.7-1.6h-2.6c-1.9,0-1.3.8-1.2,1.1,1,2.9-5.9,2.7-6.3,1.2-.3-1.2,1.1-1.4,1.8-2,.6-.5,0-.6-.5-.7l-22.6-1c0,.3,0,.7,0,1l16.8,1.2c2.1.1,2.9,2.7,1.4,4.1-19.1,17.5-65.3,59.7-68.9,62-14,9.1-24.7,7.7-30.3,5.7.8,2.3,1.8,4.6,2.9,6.7,1.6,2.9,3.6,5.3,6,6.8,2.4,1.5,5.2,1.9,8.3,1.5,3.1-.4,6.2-1.6,9.3-3.1l1.1-.6c.4-.2.8-.4.8-.5.4-.3,1.2-1,1.8-1.5l4-3.7c5.3-5,10.5-10.2,15.7-15.3l53.6-53h0c0,0,0,0,0,0Z" style="fill: #222322; stroke-width: 0px;"/>
        <polygon points="444.4 960.8 444.4 960.7 444.4 960.7 444.4 960.8 444.4 960.8" style="fill: #222322; stroke-width: 0px;"/>
        <path d="M407.4,969.9l22.6,1c.6.1,1.2.2.5.7-.7.5-2.1.8-1.8,2,.4,1.5,7.4,1.7,6.3-1.2-.1-.3-.7-1.1,1.2-1.2h2.6c0,0,4.3-10.5,4.3-10.5h1.2c0,0,0,0,0,0l-38.2-2.2c.7,1.9,1.2,4.1,1.3,6.8,0,1.7,0,3.2,0,4.6Z" style="fill: #e13; stroke-width: 0px;"/>
        <path d="M369.5,981.1c.4,0,.7,0,1.1-.1-2.2,0-4.2,0-5.3.5h0c1.5,0,2.9-.2,4.2-.4Z" style="fill: #515151; stroke-width: 0px;"/>
        <path d="M323.3,999.4c0,0,.1-.1.2-.2l-3.9,1.9c.3,4.2.7,8.3,1.1,12.4-.2-2.7-.4-5.3-.6-7.9.8-2.2,1.9-4.3,3.2-6.2Z" style="fill: #515151; stroke-width: 0px;"/>
        <path d="M356.7,1038.2c3.6-2.4,49.8-44.6,68.9-62,1.5-1.4.6-3.9-1.4-4.1l-16.8-1.2c-.1,1.4-.3,2.6-.5,3.6.6-.1.9-.2.9-.2l-.4,8.2-24.1,2.3s-11.3,1.1-18.5,1.7l-1.8,13c3.4,4.1,5.8,8.9,6.8,13.5.3,1.2.4,2.4.5,3.6,0,.7-.1,1.3-.4,1.9h.3s-.4,7.2-.4,7.2l-47,1.8c.2,1.1.4,2.3.6,3.4.9,4.5,1.9,8.9,3.3,13.1,5.5,1.9,16.3,3.4,30.3-5.7Z" style="fill: #515151; stroke-width: 0px;"/>
        <path d="M471.3,906.6s-19.1,15.4-19,21.4c.1,6.9-.5,33.1-.5,33.1l6.6-14.4s.8,1.6.8,2.8c.1,5.1-7,20-7,20h3.7c0,0,0,0,0,0v1.3c.2-.1.4-.3.6-.4.2-.1.3-.2.5-.4,5.1-3.8,12.5-10.1,13.9-15.2,2.1-7.8,3.1-47.7.4-48.6l-.6.4h.5Z" style="fill: #e13; stroke-width: 0px;"/>
        <path d="M397.8,934.7l-5.5,2.3-1.2.5,8.3,14.4c.9-.6,1.5-1,1.5-1,0,0,3.3,2.3,5.3,7.6l38.2,2.2h0s1.3,0,1.3,0l5.7.3h.5s.6-26.2.5-33.1c-.1-6,19-21.4,19-21.4h-.5c0,0-20.3,16.3-20.3,16.3l-58.5-2.2,5.8,13.9Z" style="fill: #ff5a5a; stroke-width: 0px;"/>
        <polygon points="389.2 922 391.8 920.8 389.4 920.7 389 922.1 389.2 922" style="fill: #ff5a5a; stroke-width: 0px;"/>
        <path d="M389.4,920.7h2.4c0,0,.2,0,.2,0h0c0,0,58.5,2.3,58.5,2.3l20.3-16.3.6-.4c-.3,0-.6-.2-1.1-.3-.3,0-.6-.1-1-.2-1.5-.2-3.7-.5-6.3-.8-.7,0-1.3-.1-2-.2-.4,0-.7,0-1.1,0-17.6-1.5-48.5-2.8-51-1.6-4.4,2.3-13.2,9.5-18.4,13.8l-1,3.6Z" style="fill: #e13; stroke-width: 0px;"/>
        <path d="M386.4,953.7c2,1.1,4.4,2.3,5.7,2.2,1.4-.1,5.2-2.5,7.3-4l-8.3-14.4-7.4,3.1-1.6,5.5c2.1,1.2,4.4,4.4,4.2,7.6Z" style="fill: #ffe1d9; stroke-width: 0px;"/>
        <path d="M342.7,977.6l-5.9-.2.4-16.3,4.6.4h1.4c0,.1,1.9-7.6,1.9-7.6-4.2,0-8.2,1.4-10.4,5.3-4.1,7.5-.9,17.8,1.7,23,1.1,0,3.1,0,5.6,0l.6-4.6Z" style="fill: #f1f2f2; stroke-width: 0px;"/>
        <path d="M386.4,953.7c0,.9-.3,1.8-.8,2.6-1.6,2.6-4.5,2.9-7.1,2.6l-1.1,3.8c3.7.5,7,.8,7.1,2.4,0,1.4-1.2,3.1-3.3,4.9l-2.7,8.6h-3.1c0,0-6.7-.3-6.7-.3h-3c0,0-.4,3.1-.4,3.1,1.2-.4,3.1-.5,5.3-.5,14.6-1.8,32.1-5.6,36.2-6.5.2-1.1.4-2.3.5-3.6,0-.3,0-.6,0-1,0-1.4.1-2.9,0-4.6-.1-2.7-.6-4.9-1.3-6.8-1.9-5.3-5.3-7.6-5.3-7.6,0,0-.6.4-1.5,1-2.1,1.4-5.9,3.8-7.3,4-1.3.1-3.7-1-5.7-2.2Z" style="fill: #f1f2f2; stroke-width: 0px;"/>
        <polygon points="389.2 922 389 922.1 383.7 940.7 391.1 937.5 392.3 937 397.8 934.7 392 920.8 392 920.7 391.8 920.8 389.2 922" style="fill: #0be; stroke-width: 0px;"/>
        <path d="M378.5,959c2.6.3,5.5,0,7.1-2.6.5-.8.8-1.7.8-2.6.2-3.2-2.2-6.4-4.2-7.6l-3.7,12.8Z" style="fill: #74777b; stroke-width: 0px;"/>
        <path d="M369.5,981.1c-1.3.2-2.7.3-4.2.4l-.7,5c7.2-.6,18.5-1.7,18.5-1.7l24.1-2.3.4-8.2s-.3,0-.9.2c-4.1.9-21.6,4.7-36.2,6.5-.4,0-.7,0-1.1.1Z" style="fill: #74777b; stroke-width: 0px;"/>
        <path d="M341.9,983.7l.2-1.5c-2.6,0-4.5,0-5.6,0-.6,0-.9,0-.9,0l.7,1.6c1.8-.1,3.7,0,5.6,0Z" style="fill: #74777b; stroke-width: 0px;"/>
        <path d="M377.9,964.3l5,.4-1.7,5.4c2.1-1.8,3.3-3.6,3.3-4.9-.1-1.6-3.3-2-7.1-2.4l-.4,1.5h.9Z" style="fill: #74777b; stroke-width: 0px;"/>
        <path d="M305.1,600.7s13.5,2.1,14.2,10.2l-2.2,11,50.5,2.6c2,.1,3.9,0,5.8-.4,1.7-.4,3.3-.9,4.8-1.6,1.9-.9,3.7-2.2,5.2-3.6,2.7-2.5,4.7-5.7,5.7-9.5h0c.8-2.7,1.1-5.5,1-8.1-.2-8.9-5.1-16.4-14.1-18-.7-.1-1.3-.2-2-.3h-9.2c0,0-.1.1-.2.2-.1.2-.2.5-.3.7-1.1,2.6-1.2,7-6.8,10.4-1.1.6-2.3,1.3-3.8,1.8-8,3-16.2,2.6-23.2,4.4-.2,0-.3,0-.5,0,0,0,0,0-.1,0-.1,0-.3,0-.4-.1,0,0,0,0,0,0-.2,0-.3-.2-.5-.3,0,0,0,0-.1,0-.1,0-.3-.2-.4-.3,0,0,0,0-.1-.1-.2-.2-.3-.3-.5-.5,0,0,0-.1-.1-.2-.1-.1-.2-.3-.3-.4,0,0-.1-.2-.2-.3,0-.1-.2-.3-.3-.4,0-.2-.2-.3-.3-.5,0-.1-.1-.3-.2-.4,0-.1-.1-.3-.2-.4,0,0,0-.2-.1-.3-.2-.5-.4-1.1-.5-1.6,0,0,0-.1,0-.2-.4-1.6-.4-3.1.1-3.8,1.9-2.6,3.8-5.2,5.7-7.6h-17.9s-23,0-23,0c0,0,0,0,0,.1,0,0,0,0,0,0,0,0,0,0,0,0-3.5,0-8.3,0-8.3,0-.3.2-.6.4-.9.7s-.3.4-.4.6c-.1.2-.2.5-.3.7-1.2,2.9-1.2,7.8-8.6,11.3-.6.3-1.3.6-2.1.9-1,.4-2,.6-3.1.8-7.4,1.3-15.8-2-21.4-5-.6-.2-1.1-.6-1.6-1.1-1.1-1.1-1.4-2.4-1.5-4,0-.3,0-.7,0-1,0-.4,0-.8,0-1.3,0,0,0,0,.1,0,.1-.6.3-1.2.6-1.6-4.5,1.9-7.8,5.7-9.7,11.2-2.2,11.7,1.6,22.1,15.1,23l37.9,1.9,2.4-11.8c1.6-8,10.4-8.8,16.3-7.8ZM362.2,602.6c.6-9.2,6.9-16.2,14.1-15.8,7.2.4,12.6,8.2,12,17.4-.6,9.2-6.9,16.2-14.1,15.8-7.2-.4-12.6-8.2-12-17.4Z" style="fill: #0d0e0d; stroke-width: 0px;"/>
        <path d="M374.2,620c7.2.4,13.5-6.6,14.1-15.8.6-9.2-4.8-16.9-12-17.4-7.2-.4-13.5,6.6-14.1,15.8-.6,9.2,4.8,16.9,12,17.4Z" style="fill: #515151; stroke-width: 0px;"/>
        <path d="M293.7,606.2c1.2-5.7,5.6-4.3,10.5-4.7-.2.5-.3.9-.4,1.5l-55,272.1c5.6,0,9.8.2,11.9.2.2,0,.4,0,.6,0,.5,0,.9,0,.9,0,0,0,.2,0,.3,0,0,0,.1,0,.2,0,0,0,0,0,.1,0,.6.1,1.4.3,2.4.5l51.9-254.1,2.2-11c-.7-8-14.2-10.2-14.2-10.2-5.8-1-14.6-.2-16.3,7.8l-2.4,11.8-51.4,254.6c1.6,0,3.1,0,4.5,0l54.1-268.8Z" style="fill: #555; stroke-width: 0px;"/>
        <path d="M303.8,603c.1-.5.2-1,.4-1.5-4.8.3-9.3-1.1-10.5,4.7l-54.1,268.8c3.4,0,6.4.1,9.2.1l55-272.1Z" style="fill: #e13; stroke-width: 0px;"/>
        <path d="M185.8,915.4l16-.2c-.5-1.8-.7-3.8-.5-5.9l-18.9.3c-5.4-7.9-12.9-12-20.1-14.1,16,6.3,22.7,17.7,25.3,24.2,0,.1,0,.2.1.4-.6-1.6-1.2-3.2-2-4.7Z" style="fill: #ff5a5a; stroke-width: 0px;"/>
        <path d="M210.2,933.8h8.1c.4-1.9.8-3.9,1.3-6l-8.8-.2s-1.2-.9-2.7-2.4l-18.8.2c1,4.3,1.9,9.8,2.9,16.1,4.6-4.8,11.1-7.6,18.1-7.7Z" style="fill: #ff5a5a; stroke-width: 0px;"/>
        <path d="M296,913.9c-1.7-2.2-3.6-4.1-5.4-5.8l-14.1.2c1.4,1.6,2.6,3.6,3.3,5.8l16.2-.2Z" style="fill: #ff5a5a; stroke-width: 0px;"/>
        <path d="M271.4,963.4v.6c.5-4-1.4-7.8-4.6-9.8,0,0-.1,0-.2,0-.2-.1-.5-.3-.7-.4-.1,0-.2-.1-.3-.2-.2,0-.4-.2-.6-.2-.2,0-.3-.1-.5-.2-.2,0-.3-.1-.5-.1-.2,0-.5,0-.7-.1-.1,0-.3,0-.4,0-.4,0-.8,0-1.2,0l-52.4.7c-1.7,0-3.2.7-4.3,1.9-.7.7-1.1,1.6-1.4,2.5l-1.5,5.8,41.8.5c1.9-.3,3.8-.4,5.7-.3,7,.5,13.4,4.1,19,10.1.9-3.1,1.7-6,2.5-8.9.2-.6.3-1.2.3-1.8Z" style="fill: #ff5a5a; stroke-width: 0px;"/>
        <path d="M322.9,1054.2c-3.9-7.1-5.8-14.6-7.3-21.9-2.9-14.8-4-29.5-5.2-44.2-1-14.7-2.2-34.6-3.4-49.2-1-5.5-2.5-10.3-4.5-14.5l-23.8.2c-.4.9-1,1.7-1.6,2.6h-.2c-.3.5-.6,1-1,1.5l-18.6-.3-.8,5h11.8c23.3,2.5,23.9,20.3,22.4,28.4l-9.1,34.5c6.3,16.5,9.6,38.1,8.6,61.6l44.6,7.2c-1.1-.4-2.2-.9-3.2-1.5-3.9-2.3-6.6-5.9-8.7-9.3Z" style="fill: #ff5a5a; stroke-width: 0px;"/>
        <path d="M201.9,915.2l-16,.2c.7,1.5,1.4,3.1,2,4.7.5,1.4.9,2.8,1.3,4.3,0,.3.1.6.2,1h0s18.8-.2,18.8-.2c-2.1-2.2-4.9-5.7-6.2-10Z" style="fill: #e13; stroke-width: 0px;"/>
        <path d="M278.7,924.6l23.8-.2c-1.9-4-4.1-7.5-6.5-10.5l-16.2.2c1,3,.9,6.6-1.1,10.5Z" style="fill: #e13; stroke-width: 0px;"/>
        <path d="M182.5,909.5l18.9-.3c.2-1.9.7-3.8,1.8-5.8h.2c.3-.5.6-1,1-1.5l65,.3s4,2.2,7.2,6l14.1-.2c-2.5-2.3-5.1-4.2-7.6-5.7-2.8-1.7-5.6-3.1-8.1-4.2h0c-1.6-.6-3-1.2-4.3-1.6h0c-.6-.2-1.1-.4-1.7-.5,0,0-.1,0-.2,0-.5-.1-1-.3-1.4-.4h0c-2.3-.6-3.8-.8-3.8-.8h-.2s0,0,0,0l-108.9-1c2.5.3,5.3.8,8.1,1.7,7.2,2.1,14.7,6.2,20.1,14.1Z" style="fill: #e13; stroke-width: 0px;"/>
        <path d="M143.1,873.7h0s1.4,0,4,0c-2.6,0-4,0-4,0Z" style="fill: #ff8d8d; stroke-width: 0px;"/>
        <path d="M159.4,873.9c.7,0,1.5,0,2.2,0-.8,0-1.5,0-2.2,0Z" style="fill: #ff8d8d; stroke-width: 0px;"/>
        <path d="M150.8,873.8c1,0,2.1,0,3.3,0-1.2,0-2.3,0-3.3,0Z" style="fill: #ff8d8d; stroke-width: 0px;"/>
        <path d="M284.8,882.7c-.3-.2-.7-.4-1-.6.4.2.7.4,1,.6Z" style="fill: #ff8d8d; stroke-width: 0px;"/>
        <path d="M283.5,882c-.7-.4-1.5-.8-2.3-1.2.8.4,1.5.8,2.3,1.2Z" style="fill: #ff8d8d; stroke-width: 0px;"/>
        <path d="M430.2,985.5l-.3-4.3-53.6,53c-5.2,5.1-10.4,10.3-15.7,15.3l-4,3.7c-.6.6-1.4,1.2-1.8,1.5,0,0-.4.3-.8.5l-1.1.6c-3.1,1.5-6.2,2.7-9.3,3.1-3.1.4-5.9,0-8.3-1.5-2.4-1.5-4.4-3.9-6-6.8-1.1-2.1-2.1-4.3-2.9-6.7-1.4-4.2-2.5-8.6-3.3-13.1-.2-1.1-.4-2.2-.6-3.4h-.1c-.4-2.3-.7-4.7-1-7.1-.2-1.6-.4-3.1-.5-4.7,0-.7-.1-1.4-.2-2.1-.4-4.1-.8-8.3-1.1-12.4-.2-2.6-.4-5.1-.5-7.7-.1-1.9-.3-3.9-.4-5.8-.9-14.6-1.7-29.3-2.8-44-2.4-33.1-18.2-52.6-31.1-60.8,1.2.8,2.4,1.6,3.6,2.6l-5.4,17.1s0,0,0,0c2.5,1.6,5.1,3.5,7.6,5.7,1.9,1.7,3.7,3.6,5.4,5.8,2.4,3,4.6,6.5,6.5,10.5,1.9,4.2,3.5,9,4.5,14.5,1.2,14.6,2.4,34.5,3.4,49.2,1.1,14.7,2.3,29.4,5.2,44.2,1.5,7.4,3.4,14.8,7.3,21.9,2,3.5,4.7,7,8.7,9.3,1,.6,2.1,1.1,3.2,1.5,3.2,1.1,6.7,1.3,9.8.8,4.2-.6,8-2.2,11.5-3.9l1.3-.7c.4-.2.8-.4,1.5-1,1.1-.8,1.6-1.4,2.4-2.1,1.4-1.3,2.7-2.6,4-3.9,5.2-5.2,10.3-10.5,15.4-15.8,13.2-13.7,26.2-27.6,39.1-41.6,0,0,.2-.2.3-.3,3.4-3.7,6.8-7.4,10.2-11.1Z" style="fill: #ff8d8d; stroke-width: 0px;"/>
        <path d="M429.9,981.2h0s0,0,0,0c0,0,0,0,0,0Z" style="fill: #ff8d8d; stroke-width: 0px;"/>
        <path d="M262.6,875.5c0,0-.1,0-.2,0,0,0,.1,0,.2,0Z" style="fill: #ff8d8d; stroke-width: 0px;"/>
        <path d="M279.9,880.2c.4.2.8.4,1.2.5-.7-.3-1.3-.6-2-.9-5.1-2-10.6-3.2-14-3.9-1-.2-1.8-.3-2.4-.5.8.2,2,.4,3.6.7l-3.2,18.6h.2s1.4.2,3.8.8l3.6-18.4c1.2.3,2.4.6,3.7,1l-4,18.3c1.3.4,2.8,1,4.3,1.6l5.1-18Z" style="fill: #ff8d8d; stroke-width: 0px;"/>
        <path d="M268.8,896.1c0,0-.1,0-.2,0,0,0,.1,0,.2,0Z" style="fill: #ff8d8d; stroke-width: 0px;"/>
        <path d="M161.5,1145c-16.2-12-26.6-45.8-25.2-85.5h-.5c-6.4-.5-11.2-6.2-10.4-12.6,9.2-80.9,42.7-83.2,42.7-83.2,0,0,4.5,0,11.4,0,.5-.1,1.1-.2,1.6-.3h-10c-23.1-1.8-44.4,37.5-47.7,87.6-3.3,50.1,12.7,92,35.8,93.7l69.1,9.8h0l-66.7-9.5Z" style="fill: #222322; stroke-width: 0px;"/>
        <path d="M243.6,964.2c0,0,.1,0,.2,0l-41.8-.5h0s-2,0-2,0h-4.5c0,0,0,.2,0,.2l-10.6-.2s0,0,0-.1h-2.2s0,0,0,0h-1.6s0,0,0,0c-.5,0-1.1.2-1.6.3,17.7,0,51,.3,64.1.5Z" style="fill: #0d0e0d; stroke-width: 0px;"/>
        <path d="M136.3,1059.5c-1.4,39.7,9,73.5,25.2,85.5l66.7,9.5c-13-5.4-23.3-21.9-28.8-44.5,0,0,0,0,0-.1-.3-1.1-.5-2.3-.8-3.5,0,0,0-.1,0-.2-.3-1.2-.5-2.4-.7-3.6,0,0,0,0,0,0-.5-2.4-.9-4.9-1.2-7.5,0,0,0-.2,0-.2-.2-1.2-.3-2.4-.5-3.6,0-.2,0-.3,0-.5-.1-1.2-.3-2.4-.4-3.6,0-.2,0-.3,0-.5-.1-1.2-.2-2.5-.3-3.7,0-.1,0-.2,0-.4-.2-2.6-.3-5.2-.3-7.9,0-.2,0-.3,0-.5,0-1.3,0-2.5,0-3.8,0-.2,0-.4,0-.6,0-1.3,0-2.5,0-3.8,0-.2,0-.4,0-.7,0-.6,0-1.1,0-1.7-.3,0-.5,0-.8,0l-57.9-4Z" style="fill: #0d0e0d; stroke-width: 0px;"/>
        <path d="M281.5,996.3l-2.6,9.7c0,.1,0,.2.1.3,3.4,10.9,5.3,24.1,5.7,38.3,1.4,5.5,2,12.3,1.5,19.6-.5,7.6-2.2,14.5-4.6,19.8-5.8,32.5-19,55.6-33.5,56.8-.7,0-1.4,0-2.2,0-5.9-.4-11.3-4.6-15.8-12.1-14.7-24.9-13.2-60-9.4-85.1,2.6-16.7,7.1-37.9,19.3-53.1,5.5-6.8,11.5-10.2,17.3-9.7,2.9.2,5.6,1.3,8.2,3.2.9-3.4,1.9-6.7,2.8-9.9-5.6-6-12-9.6-19-10.1-1.9-.1-3.8,0-5.7.3,0,0-.1,0-.2,0,1.6,0,2.9,0,3.9,0,12.1.4,17.3,7.4,17.3,7.4-20.4-6-36.3,14.4-44.1,33.5-6,14.8-8.8,32.4-10.1,44.6-.8,7.9-7.6,13.8-15.5,13.7,0,.6,0,1.2,0,1.7,0,.2,0,.4,0,.7,0,1.3,0,2.5,0,3.8,0,.2,0,.4,0,.6,0,1.3,0,2.5,0,3.8,0,.2,0,.3,0,.5,0,2.7.2,5.3.3,7.9,0,.1,0,.2,0,.4,0,1.3.2,2.5.3,3.7,0,.2,0,.3,0,.5.1,1.2.2,2.4.4,3.6,0,.2,0,.3,0,.5.1,1.2.3,2.4.5,3.6,0,0,0,.2,0,.2.4,2.6.8,5,1.2,7.5,0,0,0,0,0,0,.2,1.2.5,2.4.7,3.6,0,0,0,.1,0,.2.3,1.2.5,2.3.8,3.5,0,0,0,0,0,.1,5.5,22.6,15.8,39.1,28.8,44.5h0c2.4,1,4.9,1.6,7.5,1.8,26.1,1.9,50.3-39.7,54.1-92.8.1-1.9.2-3.8.3-5.6,1-23.5-2.3-45.1-8.6-61.6Z" style="fill: #222322; stroke-width: 0px;"/>
        <path d="M261.9,1093.1c-.6,0-1.2-.2-1.8-.4-6.1,21.8-16.2,36.3-26.7,35.7,3.8,6,8.2,9.4,12.9,9.7,12.2.8,24.4-18.8,30.9-46.7-2.1,2.3-4.4,3.5-6.8,3.3-.9,0-1.8-.3-2.7-.8-2.2-.2-5.3-.7-5.8-.7Z" style="fill: #333; stroke-width: 0px;"/>
        <path d="M259,1007.8c1.9-6.9,3.9-13.9,5.8-20.8-2.4-2-4.9-3.2-7.6-3.4-.6,0-1.1,0-1.7,0-4.1.3-8.4,3-12.5,7.7,6.4.5,11.9,6.6,15.9,16.5Z" style="fill: #333; stroke-width: 0px;"/>
        <path d="M275.7,1032s0,0,0,0c.2,0,.4.1.6.2,0,0,0,0,0,0,1.9.6,3.7,2.2,5.1,4.6-.6-9.2-2-17.7-4-25.3l-5.2,19.7c1.6.3,2.9.6,3.3.8,0,0,0,0,0,0Z" style="fill: #333; stroke-width: 0px;"/>
        <path d="M260.1,1092.6c-5.1-2-8.7-10.7-9.5-22-1.1-.5-2.1-1.1-3-2.1,0,0,0,0-.1-.1l-3.5-.3c-2.9,20.7-11.1,36.2-19.7,36.5,1.8,8,4.5,15.7,8.6,22.5.2.4.4.7.6,1,10.5.7,20.7-13.9,26.7-35.7Z" style="fill: #74777b; stroke-width: 0px;"/>
        <path d="M245,1055.6h.9c2.5-9.6,7.6-28.1,13.1-47.8-4-9.8-9.4-16-15.9-16.5-.3.3-.5.6-.8.9-5,6.2-8.7,13.5-11.4,21.1,8.8,1.9,14.7,20,14,42.2Z" style="fill: #74777b; stroke-width: 0px;"/>
        <path d="M243.9,1068.2l-15.6-1.1c-3.5-.2-2.6-12.9.9-12.6l15.8,1.1c.7-22.3-5.2-40.3-14-42.2-3.8,10.3-5.8,21.2-7.3,30.6-2.3,14.8-4.4,38.9.5,60.7,8.6-.3,16.8-15.8,19.7-36.5Z" style="fill: #0d0e0d; stroke-width: 0px;"/>
        <path d="M277.2,1091.3c-6.5,27.9-18.8,47.5-30.9,46.7-4.6-.3-9.1-3.7-12.9-9.7-.2-.3-.4-.7-.6-1-4-6.8-6.8-14.5-8.6-22.5-4.9-21.8-2.7-46-.5-60.7,1.4-9.4,3.5-20.3,7.3-30.6,2.8-7.6,6.4-14.9,11.4-21.1.3-.3.5-.6.8-.9,4.1-4.8,8.3-7.4,12.5-7.7.6,0,1.1,0,1.7,0,2.6.2,5.2,1.4,7.6,3.4.3-1,.6-2,.9-3-2.6-1.9-5.3-3-8.2-3.2-5.9-.4-11.9,2.9-17.3,9.7-12.2,15.2-16.8,36.4-19.3,53.1-3.8,25.1-5.3,60.3,9.4,85.1,4.4,7.5,9.9,11.7,15.8,12.1.7,0,1.4,0,2.2,0,14.4-1.2,27.7-24.3,33.5-56.8-1.3,3-2.8,5.4-4.5,7.2Z" style="fill: #555; stroke-width: 0px;"/>
        <path d="M277.6,1011.4c2,7.6,3.3,16.1,4,25.3,1.3,2.1,2.4,4.8,3.2,7.9-.3-14.3-2.2-27.5-5.7-38.3,0-.1,0-.2-.1-.3l-1.4,5.4Z" style="fill: #555; stroke-width: 0px;"/>
        <path d="M196.2,1048c0-.2,0-.4,0-.6,0,.2,0,.4,0,.6Z" style="fill: #74777b; stroke-width: 0px;"/>
        <path d="M196.2,1048c0-.2,0-.4,0-.6,0,.2,0,.4,0,.6Z" style="fill: #fff; opacity: 0; stroke-width: 0px;"/>
        <path d="M196.8,1043.5c0-.2,0-.4,0-.6,0,.2,0,.4,0,.6Z" style="fill: #74777b; stroke-width: 0px;"/>
        <path d="M196.8,1043.5c0-.2,0-.4,0-.6,0,.2,0,.4,0,.6Z" style="fill: #fff; opacity: 0; stroke-width: 0px;"/>
        <path d="M195.8,1052.4c0-.1,0-.2,0-.4,0,.1,0,.2,0,.4Z" style="fill: #74777b; stroke-width: 0px;"/>
        <path d="M195.8,1052.4c0-.1,0-.2,0-.4,0,.1,0,.2,0,.4Z" style="fill: #fff; opacity: 0; stroke-width: 0px;"/>
        <path d="M197.5,1039c0-.2,0-.4,0-.6,0,.2,0,.4,0,.6Z" style="fill: #74777b; stroke-width: 0px;"/>
        <path d="M197.5,1039c0-.2,0-.4,0-.6,0,.2,0,.4,0,.6Z" style="fill: #fff; opacity: 0; stroke-width: 0px;"/>
        <path d="M201.1,1022.1s0,0,0,0c0,0,0,0,0,0Z" style="fill: #74777b; stroke-width: 0px;"/>
        <path d="M201.1,1022.1s0,0,0,0c0,0,0,0,0,0Z" style="fill: #fff; opacity: 0; stroke-width: 0px;"/>
        <path d="M199.1,1030.3c0,0,0-.1,0-.2,0,0,0,.1,0,.2Z" style="fill: #74777b; stroke-width: 0px;"/>
        <path d="M199.1,1030.3c0,0,0-.1,0-.2,0,0,0,.1,0,.2Z" style="fill: #fff; opacity: 0; stroke-width: 0px;"/>
        <path d="M198.3,1034.6c0-.1,0-.3,0-.4,0,.1,0,.3,0,.4Z" style="fill: #74777b; stroke-width: 0px;"/>
        <path d="M198.3,1034.6c0-.1,0-.3,0-.4,0,.1,0,.3,0,.4Z" style="fill: #fff; opacity: 0; stroke-width: 0px;"/>
        <path d="M202.2,1018.2c0,0,0-.1,0-.2,0,0,0,.1,0,.2Z" style="fill: #74777b; stroke-width: 0px;"/>
        <path d="M202.2,1018.2c0,0,0-.1,0-.2,0,0,0,.1,0,.2Z" style="fill: #fff; opacity: 0; stroke-width: 0px;"/>
        <path d="M203.4,1014.3c0,0,0-.1,0-.2,0,0,0,.1,0,.2Z" style="fill: #74777b; stroke-width: 0px;"/>
        <path d="M203.4,1014.3c0,0,0-.1,0-.2,0,0,0,.1,0,.2Z" style="fill: #fff; opacity: 0; stroke-width: 0px;"/>
        <path d="M195.1,1061.4c0-.2,0-.3,0-.5,0,.2,0,.3,0,.5Z" style="fill: #74777b; stroke-width: 0px;"/>
        <path d="M195.1,1061.4c0-.2,0-.3,0-.5,0,.2,0,.3,0,.5Z" style="fill: #fff; opacity: 0; stroke-width: 0px;"/>
        <path d="M204.6,1010.5s0,0,0-.1c0,0,0,0,0,.1Z" style="fill: #ff5a5a; stroke-width: 0px;"/>
        <path d="M204.6,1010.5s0,0,0-.1c0,0,0,0,0,.1Z" style="fill: #fff; opacity: 0; stroke-width: 0px;"/>
        <path d="M179.4,963.8c-6.9,0-11.4,0-11.4,0,0,0-33.5,2.3-42.7,83.2-.7,6.4,4,12.1,10.4,12.6h.5c0-2,.2-4,.3-6.1,3.1-46.9,21.6-84.6,42.9-89.6Z" style="fill: #222322; stroke-width: 0px;"/>
        <path d="M179.4,963.8c-6.9,0-11.4,0-11.4,0,0,0-33.5,2.3-42.7,83.2-.7,6.4,4,12.1,10.4,12.6h.5c0-2,.2-4,.3-6.1,3.1-46.9,21.6-84.6,42.9-89.6Z" style="fill: #fff; opacity: 0; stroke-width: 0px;"/>
        <path d="M179.4,963.8c-21.2,5-39.8,42.7-42.9,89.6-.1,2-.2,4.1-.3,6.1l57.9,4c.3,0,.5,0,.8,0,0-.7,0-1.4,0-2.2,0-.2,0-.3,0-.5,0-1.4.2-2.8.2-4.1.1-1.5.2-2.9.4-4.3,0-.1,0-.2,0-.4.1-1.4.3-2.7.4-4.1,0-.2,0-.4,0-.6.2-1.3.3-2.6.5-3.9,0-.2,0-.4,0-.6.2-1.3.4-2.6.6-3.8,0-.2,0-.4,0-.6.2-1.3.4-2.6.7-3.8,0-.1,0-.3,0-.4.3-1.3.5-2.6.8-3.9,0,0,0-.1,0-.2.6-2.7,1.2-5.4,1.9-8,0,0,0,0,0,0,.3-1.3.7-2.5,1.1-3.8,0,0,0-.1,0-.2.4-1.2.7-2.5,1.1-3.7,0,0,0-.1,0-.2.4-1.2.8-2.4,1.2-3.6,0,0,0,0,0-.1,9-25.7,23.4-43.4,38.9-46.2-13.1-.2-46.5-.4-64.1-.5Z" style="fill: #0d0e0d; stroke-width: 0px;"/>
        <path d="M179.4,963.8c-21.2,5-39.8,42.7-42.9,89.6-.1,2-.2,4.1-.3,6.1l57.9,4c.3,0,.5,0,.8,0,0-.7,0-1.4,0-2.2,0-.2,0-.3,0-.5,0-1.4.2-2.8.2-4.1.1-1.5.2-2.9.4-4.3,0-.1,0-.2,0-.4.1-1.4.3-2.7.4-4.1,0-.2,0-.4,0-.6.2-1.3.3-2.6.5-3.9,0-.2,0-.4,0-.6.2-1.3.4-2.6.6-3.8,0-.2,0-.4,0-.6.2-1.3.4-2.6.7-3.8,0-.1,0-.3,0-.4.3-1.3.5-2.6.8-3.9,0,0,0-.1,0-.2.6-2.7,1.2-5.4,1.9-8,0,0,0,0,0,0,.3-1.3.7-2.5,1.1-3.8,0,0,0-.1,0-.2.4-1.2.7-2.5,1.1-3.7,0,0,0-.1,0-.2.4-1.2.8-2.4,1.2-3.6,0,0,0,0,0-.1,9-25.7,23.4-43.4,38.9-46.2-13.1-.2-46.5-.4-64.1-.5Z" style="fill: #fff; opacity: 0; stroke-width: 0px;"/>
        <path d="M204.7,1010.4s0,0,0,.1c-.4,1.2-.8,2.4-1.2,3.6,0,0,0,.1,0,.2-.4,1.2-.8,2.4-1.1,3.7,0,0,0,.1,0,.2-.4,1.3-.7,2.5-1.1,3.8,0,0,0,0,0,0-.7,2.6-1.3,5.3-1.9,8,0,0,0,.1,0,.2-.3,1.3-.5,2.6-.8,3.9,0,.1,0,.3,0,.4-.2,1.3-.5,2.5-.7,3.8,0,.2,0,.4,0,.6-.2,1.3-.4,2.6-.6,3.8,0,.2,0,.4,0,.6-.2,1.3-.4,2.6-.5,3.9,0,.2,0,.4,0,.6-.2,1.4-.3,2.7-.4,4.1,0,.1,0,.2,0,.4-.1,1.4-.3,2.9-.4,4.3,0,1.4-.2,2.8-.2,4.1,0,.2,0,.3,0,.5,0,.7,0,1.4,0,2.2,7.9.1,14.6-5.8,15.5-13.7,1.3-12.2,4.1-29.8,10.1-44.6,7.8-19.1,23.7-39.5,44.1-33.5,0,0-5.2-7-17.3-7.4-.9,0-2.3,0-3.9,0-15.5,2.7-29.9,20.5-38.9,46.2Z" style="fill: #222322; stroke-width: 0px;"/>
        <path d="M204.7,1010.4s0,0,0,.1c-.4,1.2-.8,2.4-1.2,3.6,0,0,0,.1,0,.2-.4,1.2-.8,2.4-1.1,3.7,0,0,0,.1,0,.2-.4,1.3-.7,2.5-1.1,3.8,0,0,0,0,0,0-.7,2.6-1.3,5.3-1.9,8,0,0,0,.1,0,.2-.3,1.3-.5,2.6-.8,3.9,0,.1,0,.3,0,.4-.2,1.3-.5,2.5-.7,3.8,0,.2,0,.4,0,.6-.2,1.3-.4,2.6-.6,3.8,0,.2,0,.4,0,.6-.2,1.3-.4,2.6-.5,3.9,0,.2,0,.4,0,.6-.2,1.4-.3,2.7-.4,4.1,0,.1,0,.2,0,.4-.1,1.4-.3,2.9-.4,4.3,0,1.4-.2,2.8-.2,4.1,0,.2,0,.3,0,.5,0,.7,0,1.4,0,2.2,7.9.1,14.6-5.8,15.5-13.7,1.3-12.2,4.1-29.8,10.1-44.6,7.8-19.1,23.7-39.5,44.1-33.5,0,0-5.2-7-17.3-7.4-.9,0-2.3,0-3.9,0-15.5,2.7-29.9,20.5-38.9,46.2Z" style="fill: #fff; opacity: 0; stroke-width: 0px;"/>
        <path d="M229.2,1054.5c-3.5-.2-4.4,12.4-.9,12.6l15.6,1.1,3.5.3s0,0,0,0c-2.3-2.4-3.1-5.9-2.3-9.1.3-1,.6-2.2.9-3.6h-.9c0,0-15.8-1.2-15.8-1.2Z" style="fill: #515151; stroke-width: 0px;"/>
        <path d="M268.1,903.8s17.3,9.4,8.8,23.4h.2c.7-.9,1.2-1.8,1.6-2.6,2-3.9,2.1-7.5,1.1-10.5-.7-2.2-1.9-4.2-3.3-5.8-3.2-3.8-7.2-6-7.2-6l-65-.3c-.4.5-.7,1-1,1.5l64.8.3Z" style="fill: #7d7d7d; stroke-width: 0px;"/>
        <path d="M210.7,927.6l8.8.2c.4-1.9.8-3.8,1.2-5.6-1.9-1.9-3-4-2.8-6.1.4-6.3,10.8-10.6,23.1-9.8,12.3.9,21.9,6.7,21.5,13-.2,2.5-2,4.7-4.8,6.4l-.4,2.8,18.6.3c.4-.5.7-1,1-1.5,8.5-14.1-8.8-23.4-8.8-23.4l-64.8-.3h-.2c-1,2-1.6,3.9-1.8,5.8-.2,2.1,0,4,.5,5.9,1.2,4.3,4,7.9,6.2,10,1.5,1.6,2.7,2.4,2.7,2.4Z" style="fill: #515151; stroke-width: 0px;"/>
        <path d="M258.1,918.5c.4.8.4,1.7.3,2.6l-.7,4.5c2.9-1.7,4.6-3.9,4.8-6.4.4-6.3-9.2-12.1-21.5-13-12.3-.9-22.7,3.5-23.1,9.8-.2,2.2.9,4.3,2.8,6.1.6-2.8,1.1-5.2,1.3-6.4,1.5-8.8,29.1-12,36.1,2.8Z" style="fill: #0d0e0d; stroke-width: 0px;"/>
        <path d="M257.7,925.6l.7-4.5c.1-.9,0-1.8-.3-2.6-7-14.8-34.6-11.6-36.1-2.8-.2,1.3-.7,3.7-1.3,6.4-.4,1.8-.8,3.7-1.2,5.6-.4,2.1-.9,4.1-1.3,6h3.8c1.3-6.5,3.1-15.2,3.6-18.3.2-1,.6-2,1.3-2.8,4.7-2.2,11.9-2.9,18.3-1.3l-3.3,22.3h3.2s3.5-21.2,3.5-21.2c2.1.9,4.1,2.1,5.8,3.6l-2.9,17.5h4.9s.8-5.1.8-5.1l.4-2.8Z" style="fill: #515151; stroke-width: 0px;"/>
        <path d="M245.3,911.3c-6.4-1.6-13.6-.9-18.3,1.3-.7.9-1.2,1.8-1.3,2.8-.5,3.1-2.2,11.8-3.6,18.3h19.9c0-.1,3.3-22.4,3.3-22.4Z" style="fill: #7d7d7d; stroke-width: 0px;"/>
        <path d="M254.5,916c-1.7-1.5-3.6-2.7-5.8-3.6l-3.5,21.2h6.4s2.9-17.6,2.9-17.6Z" style="fill: #7d7d7d; stroke-width: 0px;"/>
        <path d="M263.9,953c-.2,0-.5,0-.7-.1.2,0,.5,0,.7.1Z" style="fill: #7d7d7d; stroke-width: 0px;"/>
        <path d="M262.8,952.9c-.4,0-.8,0-1.2,0,.4,0,.8,0,1.2,0Z" style="fill: #7d7d7d; stroke-width: 0px;"/>
        <path d="M264.9,953.3c-.2,0-.3-.1-.5-.2.2,0,.3,0,.5.2Z" style="fill: #7d7d7d; stroke-width: 0px;"/>
        <path d="M266.8,954.2c0,0-.1,0-.2,0,0,0,.1,0,.2,0Z" style="fill: #7d7d7d; stroke-width: 0px;"/>
        <path d="M265.9,953.7c-.1,0-.2-.1-.3-.2.1,0,.2,0,.3.2Z" style="fill: #7d7d7d; stroke-width: 0px;"/>
        <path d="M209.2,953.5c-1.7,0-3.2.7-4.3,1.9,1.1-1.2,2.6-1.9,4.3-1.9l52.4-.7-52.4.7Z" style="fill: #7d7d7d; stroke-width: 0px;"/>
        <path d="M182.7,963.5h2.2c1.1-4,2.2-7.7,3.2-11.1.2-.6.4-1.3.6-1.9,3.4-9,10.3-14.9,19.9-14.9l50.2-.3c24.5-.8,26.3,14.2,24.8,22.3l-19.7,73.2c.9-.3,1.7-.5,2.6-.4.6,0,3.6.4,6,.9l5.2-19.7,1.4-5.4,2.6-9.7,9.1-34.5c1.5-8,.9-25.8-22.4-28.4h-11.8c0,0-4.9.1-4.9.1h-6.4s-3.2,0-3.2,0h-19.9c0,.1-3.8.2-3.8.2h-8.1c-7,0-13.4,3-18.1,7.7-2.9,3-5.1,6.6-6.3,10.8-1,3.4-2.1,7.2-3.2,11.2,0,0,0,0,0,0Z" style="fill: #7d7d7d; stroke-width: 0px;"/>
        <path d="M264.8,987c-1.9,6.9-3.9,13.9-5.8,20.8-5.5,19.8-10.6,38.3-13.1,47.9-.4,1.4-.7,2.6-.9,3.6-.8,3.2,0,6.7,2.3,9.1,0,0,0,0,0,0,0,0,0,0,.1.1.9.9,2,1.6,3,2.1,0-.5,0-1,0-1.4-1.1-.7-2.2-1.6-2.3-1.7-2.3-2.4-2.8-5.2-1.9-8.4,3.4-13,19.8-67.9,27.9-101.1,4.3-17.7-17.9-16-21.2-16l-43.4,1.2c-4.8-.3-10.5,3-11,7.5l-3.2,12.9h4.5c0,0,3.7-12.3,3.7-12.3,0,0,1.7-3.8,6.1-4.2,4.3-.4,50.6-1.1,50.6-1.1,0,0,13.9-.3,12.3,12l-1.2,5.4c0,.6-.1,1.2-.3,1.8-.8,2.9-1.7,5.8-2.5,8.9-.9,3.2-1.9,6.5-2.8,9.9-.3,1-.6,2-.9,3Z" style="fill: #7d7d7d; stroke-width: 0px;"/>
        <path d="M198.7,950.8c.5-4.5,6.1-7.8,11-7.5l43.4-1.2c3.3,0,25.5-1.7,21.2,16-8.1,33.2-24.6,88-27.9,101.1-.8,3.2-.4,6,1.9,8.4,0,0,1.2.9,2.3,1.7-.1-2.7-.1-5.6.1-8.5,1.1-15.3,6.7-27.7,13.2-30l19.7-73.2c1.5-8-.3-23-24.8-22.3l-50.2.3c-9.7,0-16.5,5.9-19.9,14.9-.2.6-.4,1.3-.6,1.9-1,3.4-2,7.1-3.2,11.1,0,0,0,0,0,.1l10.6.2v-.2c0,0,3.3-12.9,3.3-12.9Z" style="fill: #aeaeae; stroke-width: 0px;"/>
        <path d="M204.9,955.4c1.1-1.2,2.6-1.9,4.3-1.9l52.4-.7c.4,0,.8,0,1.2,0,.1,0,.3,0,.4,0,.2,0,.5,0,.7.1.2,0,.3,0,.5.1.2,0,.3,0,.5.2.2,0,.4.2.6.2.1,0,.2,0,.3.2.2.1.5.2.7.4,0,0,.1,0,.2,0,3.2,2,5.1,5.8,4.5,9.8v-.6c.1,0,1.3-5.4,1.3-5.4,1.6-12.3-12.3-12-12.3-12,0,0-46.2.6-50.6,1.1-4.3.4-6.1,4.2-6.1,4.2l-3.7,12.4h2s0,0,0,0l1.5-5.8c.3-1,.7-1.8,1.4-2.5Z" style="fill: #515151; stroke-width: 0px;"/>
        <path d="M250.5,1060.7c-.2,2.9-.2,5.8-.1,8.5,0,.5,0,1,0,1.4.8,11.3,4.5,20,9.5,22,.6.2,1.2.4,1.8.4.5,0,3.6.5,5.8.7-4.4-2.5-7.6-10.2-8.6-20.2,0,0,0-.2,0-.3,0-.3,0-.6,0-.8,0-.2,0-.4,0-.6,0-.3,0-.5,0-.8,0-.2,0-.4,0-.7,0-.2,0-.5,0-.7,0-.2,0-.5,0-.7,0-.2,0-.5,0-.7,0-.3,0-.5,0-.8,0-.2,0-.4,0-.7,0-.3,0-.6,0-.9,0-.2,0-.4,0-.6,0-.3,0-.7,0-1,0-.2,0-.3,0-.5,0-.5,0-1,0-1.5,1.2-17.3,8.3-31,15.8-30.4,0,0,0,0,0,0,.2,0,.5,0,.7,0,0,0,0,0,0,0,0,0,0,0,0,0-.4-.2-1.7-.5-3.3-.8-2.4-.4-5.4-.8-6-.9-.9,0-1.8,0-2.6.4-6.5,2.3-12.1,14.7-13.2,30Z" style="fill: #555; stroke-width: 0px;"/>
        <path d="M275.8,1032c.2,0,.4,0,.6.2-.2,0-.4-.1-.6-.2Z" style="fill: #555; stroke-width: 0px;"/>
        <path d="M281.5,1036.7c-1.5-2.3-3.2-3.9-5.1-4.6,1.4.5,2.8,1.5,3.9,3-.7-.4-1.5-.6-2.3-.7-7.5-.5-14.6,13.1-15.8,30.4-.9,12.7,1.6,23.8,5.9,29.1-4.6-2.2-8-10.1-9-20.4.9,10,4.1,17.7,8.6,20.2.8.5,1.7.8,2.7.8,2.4.2,4.7-1.1,6.8-3.3,1.7-1.8,3.2-4.3,4.5-7.2,2.3-5.3,4-12.2,4.6-19.8.5-7.3,0-14.1-1.5-19.6-.8-3.1-1.9-5.8-3.2-7.9ZM272.8,1084.4c-4.6-.3-7.8-9.3-7-20s5.2-19.1,9.8-18.8c4.6.3,7.8,9.3,7,20-.8,10.7-5.2,19.1-9.8,18.8Z" style="fill: #555; stroke-width: 0px;"/>
        <path d="M274.9,1031.8c.2,0,.5,0,.7,0-.2,0-.5,0-.7,0Z" style="fill: #555; stroke-width: 0px;"/>
        <path d="M259.1,1073.3c0-.3,0-.6,0-.8,0,.3,0,.6,0,.8Z" style="fill: #555; stroke-width: 0px;"/>
        <path d="M259,1071.9c0-.3,0-.5,0-.8,0,.3,0,.5,0,.8Z" style="fill: #555; stroke-width: 0px;"/>
        <path d="M258.9,1069.7c0,.2,0,.5,0,.7,0-.2,0-.5,0-.7Z" style="fill: #555; stroke-width: 0px;"/>
        <path d="M258.9,1069c0-.2,0-.5,0-.7,0,.2,0,.5,0,.7Z" style="fill: #555; stroke-width: 0px;"/>
        <path d="M258.9,1064.3c0-.2,0-.3,0-.5,0,.2,0,.3,0,.5Z" style="fill: #555; stroke-width: 0px;"/>
        <path d="M258.9,1067.5c0-.2,0-.4,0-.7,0,.2,0,.4,0,.7Z" style="fill: #555; stroke-width: 0px;"/>
        <path d="M258.9,1065.9c0-.2,0-.4,0-.6,0,.2,0,.4,0,.6Z" style="fill: #555; stroke-width: 0px;"/>
        <path d="M275.6,1045.6c-4.6-.3-9,8.1-9.8,18.8s2.4,19.7,7,20c4.6.3,9-8.1,9.8-18.8.8-10.7-2.4-19.7-7-20Z" style="fill: #333; stroke-width: 0px;"/>
        <path d="M275.8,1032s0,0,0,0c0,0,0,0,0,0-.2,0-.5,0-.7,0,0,0,0,0,0,0-7.5-.5-14.6,13.1-15.8,30.4,0,.5,0,1,0,1.5,0,.2,0,.3,0,.5,0,.3,0,.7,0,1,0,.2,0,.4,0,.6,0,.3,0,.6,0,.9,0,.2,0,.4,0,.7,0,.3,0,.5,0,.8,0,.2,0,.5,0,.7,0,.2,0,.5,0,.7,0,.2,0,.5,0,.7,0,.2,0,.4,0,.7,0,.3,0,.5,0,.8,0,.2,0,.4,0,.6,0,.3,0,.6,0,.8,0,0,0,.2,0,.3,1,10.3,4.3,18.1,9,20.4-4.3-5.3-6.8-16.4-5.9-29.1,1.2-17.3,8.3-31,15.8-30.4.8,0,1.6.3,2.3.7-1.2-1.5-2.5-2.5-3.9-3,0,0,0,0,0,0-.2,0-.4-.1-.6-.2Z" style="fill: #aeaeae; stroke-width: 0px;"/>
        <path d="M263.2,894.8h0s3.2-18.6,3.2-18.6c-1.5-.3-2.8-.5-3.6-.7,0,0,0,0-.1,0,0,0-.1,0-.2,0,0,0-.2,0-.3,0,0,0-.4,0-.9,0-.2,0-.4,0-.6,0-2.1,0-6.3-.1-11.9-.2-2.8,0-5.9,0-9.2-.1-1.5,0-3,0-4.5,0-22.4-.3-53.7-.8-73.4-1-.8,0-1.5,0-2.2,0-1.9,0-3.7,0-5.3,0-1.2,0-2.3,0-3.3,0-1.4,0-2.6,0-3.7,0-2.6,0-4,0-4,0h0c-2.1-.1-3.9,1.2-4.4,3.1,0,.3-.1.6-.1.9-.6,14,.8,15.9,3.2,16h12.6c0,.1,108.9,1.2,108.9,1.2Z" style="fill: #ffacac; stroke-width: 0px;"/>
        <path d="M274.5,878.3c-1.3-.4-2.5-.7-3.7-1l-3.6,18.4h0c.4.1.9.2,1.4.4,0,0,.1,0,.2,0,.5.2,1.1.3,1.7.5h0s4-18.3,4-18.3Z" style="fill: #ffacac; stroke-width: 0px;"/>
        <path d="M288.4,885.3c-1.2-.9-2.4-1.8-3.6-2.6-.3-.2-.7-.4-1-.6,0,0-.1,0-.2-.1-.7-.4-1.5-.8-2.3-1.2,0,0,0,0-.1,0-.4-.2-.8-.4-1.2-.5l-5.1,18h0c2.5,1,5.3,2.4,8.1,4.2,0,0,0,0,0,0l5.4-17.1Z" style="fill: #ffacac; stroke-width: 0px;"/>
        <path d="M445.7,960.9h-1.3c0,0,0,0,0,0h-1.2c0,0-4.3,10.5-4.3,10.5l-.7,1.6-8.3,8.1h0c0,0,0,.1,0,.1,1,0,8.2.1,11.6-1.4,3.4-1.5,13.4-9.4,14.5-10.2h-3.7s7.1-15,7-20c0-1.2-.8-2.8-.8-2.8l-6.6,14.4h-.5s-5.7-.3-5.7-.3Z" style="fill: #ff8787; stroke-width: 0px;"/>
        <path d="M441.5,979.8c-3.3,1.5-10.6,1.4-11.6,1.4,0,0,0,0,0,0,0,0,0,0,0,0h0c0,0,.3,4.3.3,4.3v.2s.6,0,1.5.2c0,0,0,0,0,0,1.2.1,3.1.3,5.2.2.9,0,1.9-.2,2.8-.4.9-.2,1.7-.4,2.5-.8,1.4-.6,3.6-2.2,5.7-3.9,1.6-1.3,3.2-2.7,4.6-4,1.9-1.7,3.3-3.1,3.6-3.4,0,0,0,0,0,0v-.3s0-2.5,0-2.5v-1.3s0,0-.1,0c-1,.8-11.1,8.7-14.5,10.2Z" style="fill: #ffacac; stroke-width: 0px;"/>
        <path d="M374.2,581.7s0,0,0,0c0,0,0,0,0,0Z" style="fill: #ffc3bc; stroke-width: 0px;"/>
        <path d="M374.2,581.6c0,0,0,.1,0,.1,0,0,0,0,0-.1Z" style="fill: #ffc3bc; stroke-width: 0px;"/>
        <path d="M372.4,578.2c-.7-.9-1.6-1.8-2.8-2.7,1.2.9,2.2,1.9,2.8,2.7Z" style="fill: #ffc3bc; stroke-width: 0px;"/>
        <path d="M364.7,583.1c0,0,.1-.2.2-.2,0-.1.2-.2.3-.4-.2.2-.3.4-.4.6Z" style="fill: #ffc3bc; stroke-width: 0px;"/>
        <path d="M367.5,574.1c.3.2.7.4,1,.6-.3-.2-.6-.4-1-.6Z" style="fill: #ffc3bc; stroke-width: 0px;"/>
        <path d="M374.1,581.3c0,0,0,.1,0,.2,0,0,0-.1,0-.2Z" style="fill: #ffc3bc; stroke-width: 0px;"/>
        <path d="M368.6,574.8c.3.2.6.4.9.6-.3-.2-.6-.4-.9-.6Z" style="fill: #ffc3bc; stroke-width: 0px;"/>
        <path d="M366.2,573.5c.4.2.8.4,1.2.6-.4-.2-.8-.4-1.2-.6Z" style="fill: #ffc3bc; stroke-width: 0px;"/>
        <path d="M374,581c0,.1,0,.2.1.3,0,0,0-.2-.1-.3Z" style="fill: #ffc3bc; stroke-width: 0px;"/>
        <path d="M372.4,578.2c.2.2.3.4.4.6-.1-.2-.3-.4-.4-.6Z" style="fill: #ffc3bc; stroke-width: 0px;"/>
        <path d="M372.9,578.8c.6.8.9,1.6,1.1,2.1-.2-.5-.5-1.2-1.1-2.1Z" style="fill: #ffc3bc; stroke-width: 0px;"/>
        <path d="M328.8,600s0,0-.1,0c0,0,0,0,.1,0Z" style="fill: #ffc3bc; stroke-width: 0px;"/>
        <path d="M329.4,600.3s0,0,0,0c0,0,0,0,0,0Z" style="fill: #ffc3bc; stroke-width: 0px;"/>
        <path d="M357.5,594.2c5.6-3.4,5.7-7.7,6.8-10.4-1.1,2.6-1.2,7-6.8,10.4Z" style="fill: #ffc3bc; stroke-width: 0px;"/>
        <path d="M357.5,594.2c-1.1.6-2.3,1.3-3.8,1.8,1.5-.6,2.8-1.2,3.8-1.8Z" style="fill: #ffc3bc; stroke-width: 0px;"/>
        <path d="M353.4,588.7c4-3.4,6.4-11.7,9-13.6.9-.7,2.3-1.2,3.8-1.6-1.4-.6-2.9-1.2-4.8-1.6-4.9-1.2-11.6-1.5-20.9-.2,0,0-4.2,4.8-9.2,11.2-1.9,2.4-3.8,5-5.7,7.6-.5.8-.5,2.3-.1,3.8,0-.2,0-.3-.1-.5,5.9-.5,24.6-2.2,28-5Z" style="fill: #ffc3bc; stroke-width: 0px;"/>
        <path d="M326.1,596.1c-.2-.5-.4-1.1-.5-1.6.1.5.3,1.1.5,1.6Z" style="fill: #ffc3bc; stroke-width: 0px;"/>
        <path d="M330,600.5s0,0-.1,0c0,0,0,0,.1,0Z" style="fill: #ffc3bc; stroke-width: 0px;"/>
        <path d="M328.3,599.6s0,0-.1-.1c0,0,0,0,.1.1Z" style="fill: #ffc3bc; stroke-width: 0px;"/>
        <path d="M327.3,598.4c0,0-.1-.2-.2-.3,0,0,.1.2.2.3Z" style="fill: #ffc3bc; stroke-width: 0px;"/>
        <path d="M326.4,596.8c0-.1-.1-.3-.2-.4,0,.1.1.3.2.4Z" style="fill: #ffc3bc; stroke-width: 0px;"/>
        <path d="M326.9,597.7c0-.2-.2-.3-.3-.5,0,.2.2.3.3.5Z" style="fill: #ffc3bc; stroke-width: 0px;"/>
        <path d="M327.7,599c0,0,0-.1-.1-.2,0,0,0,.1.1.2Z" style="fill: #ffc3bc; stroke-width: 0px;"/>
        <path d="M365.1,582.5c.2-.3.5-.5.9-.7,0,0,4.8,0,8.3,0,0,0,0,0,0,0,0,0,0,0,0,0,0,0,0,0,0-.1,0,0,0,0,0,0,0,0,0-.1,0-.2,0,0,0,0,0,0,0,0,0-.2-.1-.3,0,0,0,0,0,0-.2-.5-.5-1.3-1.1-2.1,0,0,0,0,0,0-.1-.2-.3-.4-.4-.6,0,0,0,0,0,0-.7-.9-1.6-1.8-2.8-2.7,0,0,0,0,0,0-.3-.2-.6-.4-.9-.6,0,0,0,0-.1,0-.3-.2-.6-.4-1-.6,0,0,0,0-.1,0-.4-.2-.8-.4-1.2-.6,0,0,0,0,0,0,0,0,0,0,0,0-1.5.4-2.9,1-3.8,1.6-2.6,2-5,10.3-9,13.6-3.4,2.8-22.1,4.6-28,5,0,.2,0,.3.1.5,0,0,0,.1,0,.2.1.5.3,1.1.5,1.6,0,0,0,.2.1.3,0,.1.1.3.2.4,0,.1.1.3.2.4,0,.2.2.3.3.5,0,.2.2.3.3.4,0,0,.1.2.2.3,0,.1.2.3.3.4,0,0,0,.1.1.2.1.2.3.4.5.5,0,0,0,0,.1.1.1.1.3.2.4.3,0,0,0,0,.1,0,.2.1.3.2.5.3,0,0,0,0,0,0,.1,0,.3,0,.4.1,0,0,0,0,.1,0,.2,0,.3,0,.5,0,6.9-1.8,15.2-1.4,23.2-4.4,1.5-.6,2.8-1.2,3.8-1.8,5.6-3.4,5.7-7.7,6.8-10.4.1-.2.2-.5.3-.7.1-.2.3-.4.4-.6Z" style="fill: #ffb2ae; stroke-width: 0px;"/>
        <path d="M284.8,576c.3.2.6.4.9.6-.3-.2-.6-.4-.9-.6Z" style="fill: #ffc3bc; stroke-width: 0px;"/>
        <path d="M288.6,579.4c.2.2.3.4.4.6-.1-.2-.3-.4-.4-.6Z" style="fill: #ffc3bc; stroke-width: 0px;"/>
        <path d="M290.4,582.9s0,0,0-.1c0,0,0,0,0,0,0,0,0,.1,0,.1Z" style="fill: #ffc3bc; stroke-width: 0px;"/>
        <path d="M282.4,574.7c.4.2.8.4,1.2.6-.4-.2-.8-.4-1.2-.6Z" style="fill: #ffc3bc; stroke-width: 0px;"/>
        <path d="M283.7,575.3c.3.2.7.4,1,.6-.3-.2-.6-.4-1-.6Z" style="fill: #ffc3bc; stroke-width: 0px;"/>
        <path d="M289.1,580c.6.8.9,1.6,1.1,2.1-.2-.5-.5-1.2-1.1-2.1Z" style="fill: #ffc3bc; stroke-width: 0px;"/>
        <path d="M288.6,579.4c-.7-.9-1.6-1.8-2.8-2.7,1.2.9,2.2,1.9,2.8,2.7Z" style="fill: #ffc3bc; stroke-width: 0px;"/>
        <path d="M290.3,582.5c0,0,0,.1,0,.2,0,0,0-.1,0-.2Z" style="fill: #ffc3bc; stroke-width: 0px;"/>
        <path d="M290.2,582.2c0,.1,0,.2.1.3,0,0,0-.2-.1-.3Z" style="fill: #ffc3bc; stroke-width: 0px;"/>
        <path d="M269.6,589.9c4-3.4,6.4-11.7,9-13.6.9-.7,2.3-1.2,3.8-1.6-3.8-1.8-9.5-3-17.7-2.6-2.4.1-5.1.4-8,.8,0,0-6.7,1.6-13.5,11.2,0,0,0,0,0,0-.3.4-.5,1-.6,1.6,4.7,2.9,23.7,7,27.1,4.2Z" style="fill: #ffc3bc; stroke-width: 0px;"/>
        <path d="M266.9,598c1-.2,2-.4,3.1-.8-1,.4-2,.6-3.1.8Z" style="fill: #ffc3bc; stroke-width: 0px;"/>
        <path d="M242.4,587.9c0-.3,0-.7,0-1,0,.3,0,.7,0,1Z" style="fill: #ffc3bc; stroke-width: 0px;"/>
        <path d="M243.9,591.9c.4.5,1,.9,1.6,1.1-.6-.4-1.2-.7-1.6-1.1Z" style="fill: #ffc3bc; stroke-width: 0px;"/>
        <path d="M281.3,583.7c-.2.2-.3.4-.4.6.1-.2.3-.4.4-.6Z" style="fill: #ffc3bc; stroke-width: 0px;"/>
        <path d="M290.4,582.9s0,0,0,0c0,0,0,0,0,0Z" style="fill: #ffc3bc; stroke-width: 0px;"/>
        <path d="M272,596.3c7.3-3.5,7.4-8.4,8.6-11.3-1.2,2.9-1.2,7.8-8.6,11.3Z" style="fill: #ffc3bc; stroke-width: 0px;"/>
        <path d="M290.4,582.8s0,0,0,0c0,0,0-.1,0-.2,0,0,0,0,0,0,0,0,0-.2-.1-.3,0,0,0,0,0,0-.2-.5-.5-1.3-1.1-2.1,0,0,0,0,0,0-.1-.2-.3-.4-.4-.6,0,0,0,0,0,0-.7-.9-1.6-1.8-2.8-2.7,0,0,0,0,0,0-.3-.2-.6-.4-.9-.6,0,0,0,0-.1,0-.3-.2-.6-.4-1-.6,0,0,0,0-.1,0-.4-.2-.8-.4-1.2-.6,0,0,0,0,0,0,0,0,0,0,0,0-1.5.4-2.9,1-3.8,1.6-2.6,2-5,10.3-9,13.6-3.4,2.8-22.4-1.3-27.1-4.2,0,0,0,0-.1,0,0,.4,0,.9,0,1.3,0,.4,0,.7,0,1,0,1.6.4,2.9,1.5,4,.4.4.9.8,1.6,1.1,5.5,3,14,6.2,21.4,5,1-.2,2.1-.4,3.1-.8.8-.3,1.4-.6,2.1-.9,7.3-3.5,7.4-8.4,8.6-11.3.1-.2.2-.5.3-.7.1-.2.3-.4.4-.6.2-.3.5-.5.9-.7,0,0,4.8,0,8.3,0,0,0,0,0,0,0,0,0,0,0,0,0,0,0,0,0,0-.1Z" style="fill: #ffb2ae; stroke-width: 0px;"/>
        <path d="M365.3,981.5h0s.4-3.2.4-3.2l-21.3-.7h-1.7c0,0-.6,4.6-.6,4.6l-.2,1.5c3.4.2,6.4.7,7.2,1.3.8.6,1.4,3,1.5,5.8,3.1,1,6,2.8,8.5,5h0c1.3,1.1,2.6,2.4,3.7,3.7l1.8-13,.7-5Z" style="fill: #ffe1d9; stroke-width: 0px;"/>
        <path d="M381.9,806l-6.9,27.6,2.3,13.9c11.9-3.4,23.8-6.7,35.7-9.7l9.5-33.3c-.5,1.5-.9,2.9-1.1,3.9-6.9,8.1-32.4,5-39.5-2.4Z" style="fill: url(#linear-gradient-14); stroke-width: 0px;"/>
        <path d="M389.1,918.2c.4-.3.9-.7,1.3-1.1l22.6-79.3c-11.9,3.1-23.8,6.3-35.7,9.7l11.8,70.7Z" style="fill: #74777b; stroke-width: 0px;"/>
        <path d="M389.1,918.2c.4-.3.9-.7,1.3-1.1l22.6-79.3c-11.9,3.1-23.8,6.3-35.7,9.7l11.8,70.7Z" style="fill: url(#linear-gradient-15); stroke-width: 0px;"/>
        <path d="M346,953.9l.5-3.9,22.7,3.2-.7,5.3c1.6.1,3.3,0,4.9-.3-.8-.2.6-.4,2.2-1.4h-1c0,0,.4-1.2.4-1.2l-5.2-9.1-7.7,3.3-8.5-10.6,5.2-2.5h.2c0,0-3.8-23.2-3.8-23.2l-10,40.4c.3,0,.6,0,.9,0Z" style="fill: #74777b; stroke-width: 0px;"/>
        <path d="M346,953.9l.5-3.9,22.7,3.2-.7,5.3c1.6.1,3.3,0,4.9-.3-.8-.2.6-.4,2.2-1.4h-1c0,0,.4-1.2.4-1.2l-5.2-9.1-7.7,3.3-8.5-10.6,5.2-2.5h.2c0,0-3.8-23.2-3.8-23.2l-10,40.4c.3,0,.6,0,.9,0Z" style="fill: url(#linear-gradient-16); stroke-width: 0px;"/>
        <path d="M460.9,629.2l-25.1,2.1.4,4.6-6,.5-.4-4.6-11.5,1,.4,4.2-26,2.2-.4-4.2-7,.6.4,4.6-6,.5-.4-4.6-6.1.5-.5,9.6-3.7,15,40.9,12,2.5-.6c.8.1,1.6.2,2.4.3l-24.2,97.3c2.3-1.4,8.8-4.2,20.4.7,8.2,3.2,15.7,9.9,16.3,16.3l33.1-116.2h-.1c4.5-9.4,1.6-34,.5-42Z" style="fill: url(#linear-gradient-17); stroke-width: 0px;"/>
        <path d="M355.2,913.5l3.8,23.1,26.2-12.6,1.1-3.4s1.1-.9,2.8-2.4l-11.8-70.7-2.3-13.9-19.8,79.9Z" style="fill: #08b; stroke-width: 0px;"/>
        <path d="M355.2,913.5l3.8,23.1,26.2-12.6,1.1-3.4s1.1-.9,2.8-2.4l-11.8-70.7-2.3-13.9-19.8,79.9Z" style="fill: url(#linear-gradient-18); stroke-width: 0px;"/>
        <path d="M375.1,955.6l-.4,1.1h1s0,0,0,0l-.7-1.1Z" style="fill: #ff5a5a; stroke-width: 0px;"/>
        <path d="M375.1,955.6l-.4,1.1h1s0,0,0,0l-.7-1.1Z" style="fill: url(#linear-gradient-19); stroke-width: 0px;"/>
        <polygon points="389 922.1 389.4 920.7 386.3 920.5 385.3 923.9 389 922.1" style="fill: #ff5a5a; stroke-width: 0px;"/>
        <polygon points="389 922.1 389.4 920.7 386.3 920.5 385.3 923.9 389 922.1" style="fill: url(#linear-gradient-20); stroke-width: 0px;"/>
        <path d="M386.3,920.5h3.1c0,.1,1-3.5,1-3.5-.5.4-.9.8-1.3,1.1-1.7,1.4-2.8,2.4-2.8,2.4Z" style="fill: #e13; stroke-width: 0px;"/>
        <path d="M386.3,920.5h3.1c0,.1,1-3.5,1-3.5-.5.4-.9.8-1.3,1.1-1.7,1.4-2.8,2.4-2.8,2.4Z" style="fill: url(#linear-gradient-21); stroke-width: 0px;"/>
        <path d="M371.5,945.8l-1.7.7,5.2,9.1.7,1.1c1.3-.8,2.6-2.1,2.9-4.3.5-5.1-.5-7.1,2.3-6.8.4,0,.8.2,1.2.4l1.6-5.5-12.2,5.2Z" style="fill: #ffe1d9; stroke-width: 0px;"/>
        <path d="M371.5,945.8l-1.7.7,5.2,9.1.7,1.1c1.3-.8,2.6-2.1,2.9-4.3.5-5.1-.5-7.1,2.3-6.8.4,0,.8.2,1.2.4l1.6-5.5-12.2,5.2Z" style="fill: url(#linear-gradient-22); stroke-width: 0px;"/>
        <path d="M344.9,961.7l1.1-7.8c-.3,0-.6,0-.9,0l-1.9,7.7h1.7Z" style="fill: #f1f2f2; stroke-width: 0px;"/>
        <path d="M344.9,961.7l1.1-7.8c-.3,0-.6,0-.9,0l-1.9,7.7h1.7Z" style="fill: url(#linear-gradient-23); stroke-width: 0px;"/>
        <path d="M372.9,962.1c1.5.3,3,.5,4.5.6l1.1-3.8c-1.8-.2-3.5-.6-4.6-.7-.2,0-.3,0-.4,0-1.7.3-3.3.4-4.9.3l-.3,2.3c1.6.5,3.3,1,4.8,1.3Z" style="fill: #f1f2f2; stroke-width: 0px;"/>
        <path d="M372.9,962.1c1.5.3,3,.5,4.5.6l1.1-3.8c-1.8-.2-3.5-.6-4.6-.7-.2,0-.3,0-.4,0-1.7.3-3.3.4-4.9.3l-.3,2.3c1.6.5,3.3,1,4.8,1.3Z" style="fill: url(#linear-gradient-24); stroke-width: 0px;"/>
        <polygon points="353.6 939.1 362.1 949.8 369.8 946.5 371.5 945.8 383.7 940.7 389 922.1 385.3 923.9 359 936.5 358.8 936.6 353.6 939.1" style="fill: #0be; stroke-width: 0px;"/>
        <polygon points="353.6 939.1 362.1 949.8 369.8 946.5 371.5 945.8 383.7 940.7 389 922.1 385.3 923.9 359 936.5 358.8 936.6 353.6 939.1" style="fill: url(#linear-gradient-25); stroke-width: 0px;"/>
        <path d="M378.5,959l3.7-12.8c-.4-.2-.9-.4-1.2-.4-2.8-.3-1.8,1.7-2.3,6.8-.2,2.1-1.6,3.4-2.9,4.3,0,0,0,0,0,0-1.6,1-3.1,1.3-2.2,1.4.1,0,.2,0,.4,0,1.1.1,2.8.5,4.6.7Z" style="fill: #74777b; stroke-width: 0px;"/>
        <path d="M378.5,959l3.7-12.8c-.4-.2-.9-.4-1.2-.4-2.8-.3-1.8,1.7-2.3,6.8-.2,2.1-1.6,3.4-2.9,4.3,0,0,0,0,0,0-1.6,1-3.1,1.3-2.2,1.4.1,0,.2,0,.4,0,1.1.1,2.8.5,4.6.7Z" style="fill: url(#linear-gradient-26); stroke-width: 0px;"/>
        <path d="M372.9,962.1c-1.5-.3-3.1-.8-4.8-1.3l-.4,2.8,9.2.7.4-1.5c-1.5-.2-3-.4-4.5-.6Z" style="fill: #74777b; stroke-width: 0px;"/>
        <path d="M372.9,962.1c-1.5-.3-3.1-.8-4.8-1.3l-.4,2.8,9.2.7.4-1.5c-1.5-.2-3-.4-4.5-.6Z" style="fill: url(#linear-gradient-27); stroke-width: 0px;"/>
        <polygon points="367.8 963.5 368.2 960.8 368.5 958.5 369.2 953.1 346.6 950 346 953.9 344.9 961.7 367.8 963.5" style="fill: #ffe1d9; stroke-width: 0px;"/>
        <polygon points="367.8 963.5 368.2 960.8 368.5 958.5 369.2 953.1 346.6 950 346 953.9 344.9 961.7 367.8 963.5" style="fill: url(#linear-gradient-28); stroke-width: 0px;"/>
        <polygon points="382.9 964.7 377.9 964.3 377 964.3 367.8 963.5 344.9 961.7 343.2 961.6 341.8 961.4 337.2 961.1 336.8 977.4 342.7 977.6 344.5 977.6 365.7 978.3 368.8 978.4 375.4 978.6 378.5 978.7 381.2 970.1 382.9 964.7" style="fill: #0be; stroke-width: 0px;"/>
        <path d="M464.9,572.9c-.6-8.9,1.2-20.6,12.5-28.6-4-.2-9.1-.4-14.8-.4-6.7,0-14,.2-20.8.8,0,0,0,0,0,0-.9,3-2.1,4.7-2.1,4.7h0s14.1,14.5,25.1,23.4Z" style="fill: #333; stroke-width: 0px;"/>
        <path d="M349.1,985.1c-.8-.6-3.8-1.1-7.2-1.3-1.9-.1-3.9-.1-5.6,0-3.2.2-5.6.8-5.3,2.1.1.6.2,1.2.3,1.8.3,1.8.5,3.3.7,4.6,3.2-1.5,7.1-2.4,11.8-2.5,2.3,0,4.6.4,6.7,1.1-.1-2.8-.7-5.1-1.5-5.8Z" style="fill: #74777b; stroke-width: 0px;"/>
        <path d="M369.6,1018.5c.3-.6.5-1.2.4-1.9,0-1.2-.2-2.4-.5-3.6-3.8.9-10.3,1.9-15.3.2-6.3-2.2-1.9-11.3,4.8-17.4-2.5-2.2-5.4-3.9-8.5-5-2.2-.7-4.4-1.1-6.7-1.1-4.7,0-8.6,1-11.8,2.5-3.6,1.7-6.4,4.1-8.5,7,0,0-.1.1-.2.2,5.7,5.4,9,12.5,3.6,14.8-1.8.8-3.9,1.2-6,1.4.2,1.6.3,3.1.5,4.7l48.3-1.9Z" style="fill: #f1f2f2; stroke-width: 0px;"/>
        <path d="M369.9,1018.5h-.3s-48.3,1.9-48.3,1.9c.3,2.4.6,4.8,1,7.1h.1s47-1.8,47-1.8l.4-7.2Z" style="fill: #74777b; stroke-width: 0px;"/>
        <path d="M359.1,995.8h0c-6.7,6.1-11,15.2-4.8,17.4,4.9,1.7,11.5.7,15.3-.2-1-4.6-3.4-9.4-6.8-13.5-1.1-1.3-2.4-2.6-3.7-3.7Z" style="fill: #74777b; stroke-width: 0px;"/>
        <path d="M326.9,1014.2c5.3-2.3,2.1-9.4-3.6-14.8-1.4,1.9-2.4,4-3.2,6.2.2,2.6.4,5.3.6,7.9,0,.7.1,1.4.2,2.1,2.1-.2,4.2-.6,6-1.4Z" style="fill: #74777b; stroke-width: 0px;"/>
        <path d="M464.9,572.9c.4,5.9,1.9,10.6,2.5,12.1.1.3.2.5.2.5,0,0,6.8-.9,15.8-2.9,16.2-15,11.9-24.5,4.7-43.6,0,0,0,0,0,0-4.2,1.4-7.7,3.2-10.6,5.2-11.3,8-13.2,19.7-12.5,28.6Z" style="fill: #ff5a5a; stroke-width: 0px;"/>
        <path d="M361.8,794.9c2.7-3.6,4.2-6.1,5.1-9.7.1-.5.2-1,.3-1.6.3-1.9,1.2-5.6,1.4-7.6,0-.6,0-1.2.1-1.7.3-6.2-.7-11.3-8.8-14.5-14.7-6.3-21.3,0-21.3,0h0c-8.3,11-10.4,26.5-2.1,41.8h0c7.3,0,18.3,1.5,25.3-6.6Z" style="fill: #ff5a5a; stroke-width: 0px;"/>
        <path d="M411.1,771c-11.6-5-18.2-2.2-20.4-.7-.6.4-.9.7-.9.7-4.5,8.2-8.8,20.7-8,35h0c7.1,7.4,32.6,10.5,39.5,2.4.2-1,.6-2.4,1.1-3.9,1.8-5.8,4.8-14,4.9-15.6,0-.5,0-1,0-1.5-.6-6.5-8.1-13.1-16.3-16.3Z" style="fill: #ff5a5a; stroke-width: 0px;"/>
        <path d="M567.8,857.4l2.2.7c.2.1.5.2.8.3,1.8.5,5.1.3,6.6,0l12.7-2.7,49-10.5-8.3,6.9s0,0,0,0c-11.6,1.1-25,4.9-35.1,9.7-16.4,8-20.1,16.9-8.3,19.8,11.9,2.9,34.9-1.2,51.3-9.1,16.4-8,20.1-16.9,8.3-19.8-2.5-.6-5.7-.9-9.3-.9,5-4.3,13.5-11.7,13.5-11.7.3-.2,1-.5,1.6-.6l10.1-1.4c.9-.1,1.9-.4,2.6-.8.7-.3,1.1-.7,1.1-1.1v-.3c0-.3-.2-.5-.8-.7-.5-.1-1.3-.1-2.1,0l-11.1,1.5c-.2,0-1.1.1-1.8.2-.9.1-2,.4-2.6.9-.2.1-.5.4-.8.6l-1.3,1.1c0,0-.2.1-.4.2-.1,0-.3,0-.4,0l-20.8-.7-19.7-.7c-.2,0-.2-.2,0-.4l8.5-6.1c.9-.6.9-1.3.2-1.6h1.3c.3.1.9,0,1.3,0,.1,0,1.3-.2,4.9,0,1.1.1,2,.2,2.7.2.8,0,1.9-.2,2.7-.6.8-.4,1.2-.8,1-1.1-.2-.3-.6-.6-1.1-.8,0,0-.1,0-.2,0-.1,0-.3,0-.4,0-3.2-.2-5.9-.5-8-1-2.2-.5-2.9-1.1-2.9-1.1,0,0-.1,0-.2-.1-.2,0-.4-.1-.7-.2-1.1-.3-2.4-.3-3.9,0-1.8.4-3.1,1.1-3.6,1.4-1.1.5-1.4.9-1.6,1.2-.3.7.4,1.2,2.1,1.6,0,0,1.3.3,2.2.4h0s2.1.1,2.1.1c-.1,0-.3,0-.4,0-.9.2-1.7.6-2.2.9l-14.7,10.6c-.4.3-1.3.6-2,.7l-5.5.9c1-3.4-1.3-6-6.7-7.4-11.9-2.9-34.9,1.2-51.3,9.1-16.4,8-20.1,16.9-8.3,19.8,11,2.7,31.5-.5,47.8-7.5ZM640.2,856c9.1,2.3,6.3,9.1-6.4,15.2s-30.4,9.3-39.5,7c-9.1-2.3-6.3-9.1,6.4-15.2,7.5-3.7,17.1-6.4,25.9-7.4l-10,8.3c-.2.1-.3.3-.3.4-1.4.4-2.9.9-4.1,1.5-3.8,1.9-4.7,3.9-1.9,4.6,2.8.7,8.2-.3,12-2.1,3.8-1.9,4.7-3.9,1.9-4.6-.1,0-.2,0-.3,0,0,0,.2,0,.2-.1l9.5-8.3c2.6,0,4.8.3,6.6.7ZM568.6,853.4l-9.9-3,17.9-3c-1.6,2-4.3,4.1-8,6ZM595.5,844.6c.4-.3,1.3-.6,1.9-.7l12.6-2c.9-.1,2.4-.3,3.1-.2l5.3.2,17.3.6-33.7,7.4-19.8,4.3,13.2-9.5ZM585,845.9s0,0,0,0l3.8-.7-14,10s-.9-.3-1.6-.5c0,0,0,0,0,0,5.6-2.9,9.6-6,11.7-8.9ZM526.9,861.6c-9.1-2.3-6.3-9.1,6.4-15.2,12.6-6.1,30.4-9.3,39.5-7,4,1,5.8,2.9,5.2,5.4l-19.4,3.2c0,0-.2,0-.2,0-.2-.4-.7-.7-1.5-1-2.8-.7-8.2.3-12,2.1-3.8,1.9-4.7,3.9-1.9,4.6,2.2.6,6.1,0,9.5-1.1,0,0,0,0,0,0l10.7,3.3c-12.5,5.3-28,7.7-36.3,5.6Z" style="fill: #ccc; stroke-width: 0px;"/>
      </g>
    </g>
  </g>
</svg>