<?xml version="1.0" encoding="UTF-8"?>
<svg xmlns="http://www.w3.org/2000/svg" viewBox="0 0 800 1247">
  <g style="isolation: isolate;">
    <g id="Layer_1" data-name="Layer 1">
      <rect width="800" height="1247" rx="20" ry="20" style="fill: #fff; stroke-width: 0px;"/>
      <g>
        <path d="M108.7,749.4c-.3.5-.6,1.2-1.1,2l.9-.2c.4-.1.8,0,1.2,0,1.1.4,4.5,1.4,6.2,1.7,1.2.2,2,1.2,1.8,2.4-.2,1.2-1.2,2-2.4,1.8-1.9-.3-5-1.2-6.3-1.7l-4.3,1.1c0,.1-.1.2-.2.4l3.9-.2c.4,0,.9,0,1.2.3l4.4,2.7c1,.6,1.3,1.9.7,2.9-.4.7-1.1,1-1.8,1s-.8-.1-1.1-.3l-3.9-2.4-6,.4c0,.2-.2.5-.3.7-2,3.7-5.8,8-9.8,10.5,0,0,.1,0,.2,0l15.5-4h0c1.4-.4,4.7-1.2,4.7-1.2l5.4-1.4s.4.9,1.4,2.2c2.1-2,4.7-3.6,7.7-4.8v-11.7c-3.5-1-6.8-2.5-9.9-4.3-2.6.3-5.9.8-8.4,1.3.4.3.5.6.4.8Z" style="fill: none; stroke-width: 0px;"/>
        <polygon points="83.5 874.4 84.4 873.5 83.5 874.3 83.5 874.4" style="fill: none; stroke-width: 0px;"/>
        <path d="M100.3,747.9c.9-.9,2-1.8,3-2.2,1.6-.8,5.1-1.4,8.2-1.9-3.9-3-7.4-6.6-10.5-10.6,1,6.8.4,11.5-.7,14.7Z" style="fill: none; stroke-width: 0px;"/>
        <path d="M195.7,781.3l-5.4,35.7c5.5-1.2,10.9-2.8,14-5l1.2,7.7s-7.3,2.4-16.2,4l-.7,4.3c6.6-.9,13.4-2.4,17.3-4.9-2.3-18.5-6.4-36.2-10.4-44.5.3.9.4,1.8.2,2.7Z" style="fill: #183b59; stroke-width: 0px;"/>
        <path d="M184.9,853.4c8.4-.2,14.3-.3,15.3-.2,0,0,10.2,13.9,1,26.6-.5.7-1.3,1.4-2.2,1.9h0c8.8-4.5,10-27.4,7.9-50.9-.5.1-9.2,2.6-19.1,3.7l-2.9,18.9Z" style="fill: #183b59; stroke-width: 0px;"/>
        <path d="M206.1,824.6l.4,3.3c-.1-1.1-.2-2.2-.4-3.3Z" style="fill: #183b59; stroke-width: 0px;"/>
        <path d="M204.4,811.9c-3.1,2.2-8.5,3.9-14,5l-1,6.7c8.9-1.6,16.2-4,16.2-4l-1.2-7.7Z" style="fill: #0c6ed6; stroke-width: 0px;"/>
        <path d="M187.7,834.5c9.9-1.1,18.6-3.6,19.1-3.7,0,0,0,0,0,0l-.3-2.9-.4-3.3-.2-1.6s0,0,0,0c-3.8,2.5-10.7,4-17.3,4.9l-1,6.6Z" style="fill: #0c6ed6; stroke-width: 0px;"/>
        <path d="M150.9,763.7v-11.7c-5.9,1.5-12.1,1.9-18.3,1-2-.3-4-.8-6-1.4v11.7c-3,1.2-5.7,2.9-7.7,4.8,1.4,1.8,3.9,4.4,7.7,6.3.3.2.7.3,1,.5,2.8,1.2,6.3,2.1,10.5,2.1s7.5-.8,10.3-2.1c.9-.4,1.7-.8,2.5-1.3,3.1-1.9,5.1-4.1,6.4-5.8-1.8-1.6-3.9-3-6.4-4.1Z" style="fill: #edbbab; stroke-width: 0px;"/>
        <path d="M166.9,767.7c.1,0,.3,0,.4.1h-.4Z" style="fill: #183b59; stroke-width: 0px;"/>
        <path d="M108.6,883.7s-1.1-9.8-1.3-13.1c0-.4,0-.8,0-1.3-1.5,1.7-3,4.4-6.8,6.1-2,1-3.7,1.6-5.1,1.9l3.9,25.5v-.4h4v-3.7h4.9v3.7h18.8v-3.4h24v3.4h14.6v-3.7h4.9v3.7h6.9v1.7l2.7-18.2c-27.6,2.3-71.4-2.2-71.4-2.2Z" style="fill: #183b59; stroke-width: 0px;"/>
        <path d="M164.3,767c.4.1.7.2,1.1.3l-1.1-.3Z" style="fill: #183b59; stroke-width: 0px;"/>
        <path d="M110.7,1151.5c3.9,0,9,.7,9.9,1.5.7.5,1,2.5,1,4.7,2.5.9,4.7,2.4,6.7,4.3h0c.3.3.6.6.9.9v-11.9l-18.5-2v2.5Z" style="fill: #ffe1d9; stroke-width: 0px;"/>
        <path d="M116.2,1156.6c1.9,0,3.7.4,5.4,1.1,0-2.2-.4-4.2-1-4.7-.9-.8-5.9-1.5-9.9-1.5-2.8,0-5,.4-4.8,1.5.3,2.1.5,3.8.7,5.3,2.7-1.1,5.9-1.7,9.7-1.7Z" style="fill: #74777b; stroke-width: 0px;"/>
        <path d="M123.9,1175.9c-5-2-1.2-9.2,4.4-13.9-2-1.9-4.3-3.3-6.7-4.3-1.7-.7-3.5-1.1-5.4-1.1-3.8,0-7,.5-9.7,1.7-3.1,1.3-5.5,3.2-7.3,5.5,4.5,4.6,6.9,10.4,2.5,12.1-2.2.9-4.8,1-7.2.9-.1,1.3-.1,2.6,0,3.8h41.6c.3-.5.4-1,.4-1.5,0-.9,0-1.9-.3-2.9-3.1.6-8.4,1.2-12.4-.3Z" style="fill: #f1f2f2; stroke-width: 0px;"/>
        <polygon points="94.2 1180.6 94.8 1186.4 135.8 1186.4 136.3 1180.6 136.1 1180.6 94.5 1180.6 94.2 1180.6" style="fill: #74777b; stroke-width: 0px;"/>
        <path d="M128.3,1162c-5.6,4.7-9.4,12-4.4,13.9,3.9,1.5,9.3.9,12.4.3-.8-4.6-3.4-9.6-7.1-13.3-.3-.3-.6-.6-.9-.9h0Z" style="fill: #74777b; stroke-width: 0px;"/>
        <path d="M101.7,1175.9c4.4-1.7,2-7.5-2.5-12.1-3,3.9-4.4,8.7-4.7,13,2.4,0,5,0,7.2-.9Z" style="fill: #74777b; stroke-width: 0px;"/>
        <polygon points="177.2 904.4 177.2 912.4 170.3 912.4 170.3 916.1 165.4 916.1 165.4 912.4 150.9 912.4 150.9 915.8 126.9 915.8 126.9 912.4 108.1 912.4 108.1 916.1 103.2 916.1 103.2 912.4 99.2 912.4 99.2 904.4 99.1 904.4 99.1 941.4 99.1 941.4 105.2 1137.2 132.9 1138.9 136 941.4 140.4 941.4 143.4 1138.8 171.1 1137.2 177.2 941.4 177.3 941.4 177.3 941.4 177.3 904.4 177.2 904.4" style="fill: #08b; stroke-width: 0px;"/>
        <polygon points="165.7 1148.9 170.8 1148.3 170.8 1148.3 165.7 1148.8 165.7 1148.9" style="fill: #08b; stroke-width: 0px;"/>
        <polygon points="100.5 1137 102.3 1148 110.7 1148.9 129.2 1150.9 134.1 1151.5 135.5 1139 132.9 1138.9 105.2 1137.3 100.5 1137" style="fill: #0be; stroke-width: 0px;"/>
        <path d="M147.2,1150.8v12c.3-.3.6-.6.9-.9h0c2-1.9,4.3-3.3,6.7-4.3,0-2.2.4-4.2,1-4.7.9-.8,5.9-1.5,9.9-1.5v-2.6h0s-18.5,2-18.5,2Z" style="fill: #ffe1d9; stroke-width: 0px;"/>
        <polygon points="139.9 1139 141.3 1151.5 147.2 1150.8 165.7 1148.8 170.8 1148.3 173.1 1148 175 1137 171.1 1137.2 143.4 1138.8 139.9 1139" style="fill: #0be; stroke-width: 0px;"/>
        <path d="M154.8,1157.7c1.7-.7,3.5-1.1,5.4-1.1,3.8,0,7,.5,9.7,1.7.1-1.5.3-3.2.7-5.3.2-1.1-2.1-1.5-4.8-1.5-3.9,0-9,.7-9.9,1.5-.7.5-1,2.5-1,4.7Z" style="fill: #74777b; stroke-width: 0px;"/>
        <path d="M160.2,1156.6c-1.9,0-3.7.4-5.4,1.1-2.5.9-4.7,2.4-6.7,4.3,5.6,4.7,9.4,12,4.4,13.9-3.9,1.5-9.3.9-12.4.3-.2,1-.3,2-.3,2.9s.1,1,.4,1.5h41.6c0-1.2,0-2.5,0-3.8-2.4,0-5,0-7.2-.9-4.4-1.7-2-7.5,2.5-12.1-1.8-2.3-4.2-4.3-7.3-5.5-2.7-1.1-5.9-1.7-9.7-1.7Z" style="fill: #f1f2f2; stroke-width: 0px;"/>
        <polygon points="140 1180.6 140.6 1186.4 181.5 1186.4 182.2 1180.6 181.9 1180.6 140.2 1180.6 140 1180.6" style="fill: #74777b; stroke-width: 0px;"/>
        <path d="M152.5,1175.9c5-2,1.2-9.2-4.4-13.9h0c-.3.3-.6.6-.9.9-3.7,3.8-6.3,8.7-7.1,13.3,3.1.6,8.4,1.2,12.4-.3Z" style="fill: #74777b; stroke-width: 0px;"/>
        <path d="M174.6,1175.9c2.2.9,4.8,1,7.2.9-.3-4.4-1.7-9.2-4.7-13-4.5,4.6-6.9,10.4-2.5,12.1Z" style="fill: #74777b; stroke-width: 0px;"/>
        <path d="M86.8,686c-.5-2.9-1.1-6.5-1.8-10.5-1.8-1.1-3.7-1.3-5.5-.4-4.9,2.4-7.5,11.8-5.7,21,1.8,9.2,7.2,14.6,12.1,12.2,1.1-.5,2-1.4,2.9-2.5-1.4-6.4-2.1-13.1-2-19.8Z" style="fill: #ffe1d9; stroke-width: 0px;"/>
        <path d="M188.2,721.3c.5,1.3,1.1,2.4,1.9,3.2,3.9,3.8,10.7.2,15.2-8,4.4-8.2,4.8-17.9.9-21.7-1.4-1.4-3.3-1.8-5.2-1.3-1.9,4.6-3.6,7.5-4.8,9.1-1.9,6.6-4.6,12.9-8,18.8Z" style="fill: #ffe1d9; stroke-width: 0px;"/>
        <path d="M194.4,704.5l2.3-22.9c.6-5.4-.1-11-2.3-16-.4-.9-.9-1.9-1.4-2.8-2.7,2.3-4.6,3.6-4.6,3.6l-12.6-6.7c.5,1.2.9,2.4,1.2,3.6-1.9-2.1-3.9-4.1-5.8-6.1l-9.6-5.1,9.4,16.9s-12-2.4-24.9-10.5c-5-3.1-21-15.9-21-15.9l-21.2.2-9.4,19.7-6.6,30.5s-.6-2.7-1.4-7c-.1,6.6.6,13.3,2,19.8,1.9,8.4,5,16.4,9.2,23.1,1.1-.2,2.3.5,2.5,1.7.2.9.3,1.7.4,2.6,3.1,4,6.6,7.6,10.5,10.6,2.9-.4,5.6-.7,6.1-.8,1.2-.1,2.2.7,2.3,1.9.1,1.2-.7,2.2-1.9,2.3-.4,0-.8,0-1.2.1,3.1,1.8,6.4,3.3,9.9,4.3,1.9.6,3.9,1.1,6,1.4,6.2,1,12.4.5,18.3-1,5.5-1.4,10.9-3.9,15.8-7.1,8.4-5.5,15.8-13.9,21.4-23.6,3.4-5.9,6.1-12.2,8-18.8-1.1,1.5-1.8,2-1.8,2ZM148.4,723.1c-1.9,1.7-6.6,3.8-11,2.6-4-1-7.7-4.6-8.3-7.2,2.4,1.6,7.6,2.8,9.2,3.1,1.6.3,6.6,1.2,10,1.4ZM130.5,704.6c0-.1,0-.3.1-.4.1-.2.2-.4.3-.6.2-.3.4-.6.7-.8.9-1,1.8-1.7,2.7-2.5l2.7-2.2c.9-.8,1.7-1.5,2.5-2.4.7-.8,1.4-1.8,1.5-3,.2.6.2,1.2,0,1.9-.1.6-.4,1.2-.7,1.8-.6,1.1-1.3,2.1-2.1,3-.8.9-1.7,1.8-2.5,2.6-.9.8-1.7,1.6-2.5,2.4-.2.2-.3.4-.5.6,0,0-.1.2-.1.2,0,0,0,0,0,0h0c0,.5,0,.9,0,1.3.2.9.8,1.8,1.6,2.6.7.8,1.6,1.6,2.5,2.3.9.7,1.8,1.4,2.9,1.9-.6,0-1.2-.1-1.8-.3-.6-.2-1.2-.4-1.7-.7-1.1-.5-2.2-1.2-3.1-2-1-.8-1.9-1.8-2.4-3.2-.3-.7-.4-1.5-.2-2.3v-.3ZM102.1,662.2c10.2-9.9,20.1-2.4,24.9,1.3.8.6,1.5,1.2,2.1,1.6,1.3.8,1.6,2.5.8,3.8-.5.8-1.4,1.2-2.3,1.2s-1-.1-1.5-.4c-.8-.5-1.6-1.1-2.4-1.8-6.2-4.7-11.4-7.8-17.7-1.7-1.1,1.1-2.8,1-3.9,0-1.1-1.1-1-2.8,0-3.9ZM125.2,691.4c-1.7,1.5-4.1,2.2-6.3,2.5-2.3.3-4.6.2-6.9-.2-2.3-.4-4.5-1.2-6.5-2.5-2-1.2-3.6-3-4.4-5.2.3.4.7.8,1,1.2-1.3-1.8-1.9-4-1.3-6.2.2-.7.5-1.5.9-2.1,1-2,2.7-3.7,4.5-4.9,2.5-1.7,5.6-2.8,8.8-2.6,3.1.2,6.2,1.6,8.3,3.8,2.2,2.2,3.5,5,4.4,7.8,0,0,0,0,0-.1.4,1.4.5,2.9.2,4.3-.5,2-1.8,3.6-3.6,4.7.3-.1.7-.2,1-.4ZM182.4,698.6c-1.4,1.8-3.5,3-5.8,3.6-2.3.6-4.6.7-6.9.4-2.3-.3-4.5-.9-6.6-1.9-2.1-1-4.1-2.3-5.3-4.3.3.2.6.5.9.7-1.4-1.6-2.2-3.5-2.1-5.6,0-1.4.6-2.8,1.4-4,0,0,0,0-.1.1,1.8-2.4,3.8-4.7,6.6-6.1,2.7-1.4,6-1.9,9.1-1.1,3.1.8,5.7,2.7,7.6,5.1,1.4,1.8,2.4,3.9,2.8,6.1.2.8.2,1.5.2,2.3-.2,2.3-1.3,4.2-3.1,5.6.5-.2.9-.5,1.3-.8ZM184.6,679.2c-3.1-1.7-11.1-.9-16.4-.3-2.3.3-4.4.5-6,.5-1.5,0-2.8-1.1-2.8-2.7s1.1-2.8,2.7-2.8c1.4,0,3.4-.3,5.6-.5,6.7-.8,15-1.7,19.7.9,1.3.7,1.8,2.4,1,3.7-.5.9-1.4,1.4-2.4,1.4s-.9-.1-1.3-.4Z" style="fill: #ffe1d9; stroke-width: 0px;"/>
        <path d="M106,666.1c6.3-6.1,11.5-3,17.7,1.7.9.7,1.7,1.3,2.4,1.8.5.3,1,.4,1.5.4.9,0,1.8-.4,2.3-1.2.8-1.3.5-3-.8-3.8-.6-.4-1.3-.9-2.1-1.6-4.8-3.6-14.7-11.2-24.9-1.3-1.1,1.1-1.1,2.8,0,3.9,1.1,1.1,2.8,1.1,3.9,0Z" style="fill: #42210b; stroke-width: 0px;"/>
        <path d="M188.3,678.1c.7-1.3.3-3-1-3.7-4.6-2.6-13-1.7-19.7-.9-2.1.2-4.1.5-5.6.5-1.5,0-2.7,1.3-2.7,2.8s1.3,2.7,2.8,2.7c1.6,0,3.7-.3,6-.5,5.3-.6,13.3-1.5,16.4.3.4.2.9.4,1.3.4,1,0,1.9-.5,2.4-1.4Z" style="fill: #42210b; stroke-width: 0px;"/>
        <path d="M184.1,693.9c-.6-2.9-2.1-5.5-4-7.6-1.9-2.1-4.3-3.7-7-4.4-2.7-.7-5.5-.4-8.1.7-2.6,1.1-4.8,2.9-7,4.8-.8,1.3-1.3,2.6-1.4,4-.1,2.1.7,4,2.1,5.6,1.5,1.1,3.2,1.8,4.9,2.4,2.1.7,4.2,1.2,6.3,1.5,2.1.3,4.3.3,6.4,0,1.6-.3,3.2-.7,4.7-1.5,1.8-1.4,3-3.2,3.1-5.6ZM180,691.5c-.3,5-4.7,8.9-9.7,8.5-5-.3-8.9-4.7-8.5-9.7.3-5,4.7-8.9,9.7-8.5s8.9,4.7,8.5,9.7Z" style="fill: #fff; stroke-width: 0px;"/>
        <path d="M184,691.6c.1.8.2,1.5.2,2.3,0-.8,0-1.5-.2-2.3Z" style="fill: #fff; stroke-width: 0px;"/>
        <path d="M171.5,681.8c-5-.3-9.4,3.5-9.7,8.5-.3,5,3.5,9.4,8.5,9.7,5,.3,9.4-3.5,9.7-8.5s-3.5-9.4-8.5-9.7ZM178.6,690c-.3,4.2-3.9,7.4-8.1,7.1-4.2-.3-7.4-3.9-7.1-8.1.2-2.9,1.9-5.3,4.4-6.4.6-.5,1.3-.8,2.1-.7.1,0,.2,0,.4,0,.4,0,.8,0,1.3,0,4.2.3,7.4,3.9,7.1,8.1Z" style="fill: #a67c52; stroke-width: 0px;"/>
        <path d="M171.5,681.9c-.4,0-.8,0-1.3,0,1.4.3,2.4,1.5,2.3,3-.1,1.6-1.5,2.8-3,2.7s-2.8-1.5-2.7-3c0-.8.4-1.5.9-1.9-2.4,1.1-4.2,3.5-4.4,6.4-.3,4.2,2.9,7.8,7.1,8.1,4.2.3,7.8-2.9,8.1-7.1.3-4.2-2.9-7.8-7.1-8.1Z" style="fill: #2b1407; stroke-width: 0px;"/>
        <path d="M169.5,687.6c1.6.1,2.9-1.1,3-2.7,0-1.5-.9-2.7-2.3-3-.1,0-.2,0-.4,0-.8,0-1.5.2-2.1.7-.5.5-.9,1.2-.9,1.9-.1,1.6,1.1,2.9,2.7,3Z" style="fill: #f2f2f2; stroke-width: 0px;"/>
        <path d="M173.1,682c2.7.7,5.1,2.3,7,4.4,1.9,2.1,3.4,4.6,4,7.6,0-.8,0-1.5-.2-2.3-.4-2.2-1.4-4.3-2.8-6.1-1.9-2.4-4.5-4.3-7.6-5.1-3.1-.8-6.4-.3-9.1,1.1-2.8,1.4-4.8,3.7-6.6,6.1,0,0,0,0,.1-.1,2.2-1.9,4.4-3.7,7-4.8,2.6-1.1,5.5-1.4,8.1-.7Z" style="fill: #42210b; stroke-width: 0px;"/>
        <path d="M169.9,701c-2.1-.3-4.3-.8-6.3-1.5-1.7-.6-3.4-1.3-4.9-2.4-.3-.2-.6-.4-.9-.7,1.2,1.9,3.2,3.3,5.3,4.3,2.1,1,4.3,1.6,6.6,1.9,2.3.3,4.6.2,6.9-.4,2.2-.6,4.4-1.8,5.8-3.6-.4.3-.9.6-1.3.8-1.5.8-3.1,1.3-4.7,1.5-2.1.3-4.3.3-6.4,0Z" style="fill: #42210b; stroke-width: 0px;"/>
        <path d="M127.8,687.1c.3-1.4.3-2.8-.2-4.3-1.5-2.5-3.1-4.9-5.2-6.7-2.2-1.8-4.8-3-7.6-3.1-2.8-.2-5.6.7-8,2-2.4,1.4-4.7,3.4-6.1,6-.6,2.3,0,4.4,1.3,6.2,1.2,1.2,2.6,2.2,4,2.9,1.9.9,4,1.6,6.1,2,2.1.4,4.3.6,6.5.5,1.8,0,3.6-.2,5.4-.8,1.8-1.1,3.1-2.7,3.6-4.7ZM123.2,684.4c-1.2,4.9-6.2,7.9-11.1,6.7-4.9-1.2-7.9-6.2-6.7-11.1,1.2-4.9,6.2-7.9,11.1-6.7,4.9,1.2,7.9,6.2,6.7,11.1Z" style="fill: #fff; stroke-width: 0px;"/>
        <path d="M100.8,681c.2-.7.5-1.5.9-2.1-.4.7-.7,1.4-.9,2.1Z" style="fill: #fff; stroke-width: 0px;"/>
        <path d="M116.5,673.3c-4.9-1.2-9.9,1.8-11.1,6.7-1.2,4.9,1.8,9.9,6.7,11.1,4.9,1.2,9.9-1.8,11.1-6.7,1.2-4.9-1.8-9.9-6.7-11.1ZM121.6,683.6c-1,4.1-5.1,6.6-9.2,5.6-4.1-1-6.6-5.1-5.6-9.2.3-1.4,1.1-2.6,2-3.6,0,0,0-.2,0-.2.4-1.5,1.9-2.5,3.5-2.1.2,0,.4.1.6.2,1-.2,2-.1,3.1.1,4.1,1,6.6,5.1,5.6,9.2Z" style="fill: #a67c52; stroke-width: 0px;"/>
        <path d="M116,674.4c-1-.3-2.1-.3-3.1-.1,1.2.6,1.8,1.9,1.5,3.2-.4,1.5-1.9,2.5-3.5,2.1-1.5-.4-2.4-1.8-2.1-3.2-1,1-1.7,2.2-2,3.6-1,4.1,1.5,8.2,5.6,9.2,4.1,1,8.2-1.5,9.2-5.6,1-4.1-1.5-8.2-5.6-9.2Z" style="fill: #2b1407; stroke-width: 0px;"/>
        <path d="M111,679.6c1.5.4,3.1-.6,3.5-2.1.3-1.3-.3-2.6-1.5-3.2-.2,0-.4-.2-.6-.2-1.5-.4-3.1.6-3.5,2.1,0,0,0,.2,0,.2-.2,1.5.7,2.9,2.1,3.2Z" style="fill: #f2f2f2; stroke-width: 0px;"/>
        <path d="M106.9,675c2.5-1.4,5.3-2.2,8-2,2.8.1,5.4,1.3,7.6,3.1,2.1,1.8,3.7,4.2,5.2,6.7,0,0,0,0,0,.1-1-2.8-2.2-5.6-4.4-7.8-2.2-2.2-5.2-3.6-8.3-3.8-3.2-.2-6.2.9-8.8,2.6-1.9,1.3-3.5,3-4.5,4.9-.4.7-.7,1.4-.9,2.1,1.4-2.6,3.6-4.6,6.1-6Z" style="fill: #42210b; stroke-width: 0px;"/>
        <path d="M112.3,692.1c-2.1-.4-4.2-1-6.1-2-1.5-.7-2.9-1.7-4-2.9-.4-.4-.7-.7-1-1.2.8,2.1,2.5,3.9,4.4,5.2,2,1.3,4.2,2,6.5,2.5,2.3.4,4.6.5,6.9.2,2.2-.3,4.6-1,6.3-2.5-.3.2-.7.3-1,.4-1.8.6-3.6.7-5.4.8-2.2,0-4.4-.1-6.5-.5Z" style="fill: #42210b; stroke-width: 0px;"/>
        <path d="M130.7,707.2c.5,1.4,1.4,2.4,2.4,3.2,1,.8,2,1.5,3.1,2,.6.3,1.1.5,1.7.7.6.2,1.2.3,1.8.3-1.1-.5-2-1.2-2.9-1.9-.9-.7-1.7-1.5-2.5-2.3-.7-.8-1.3-1.7-1.6-2.6-.1-.4-.1-.8,0-1.2h0c0-.2,0-.1,0-.2,0,0,0-.1.1-.2.1-.2.3-.4.5-.6.7-.8,1.6-1.6,2.5-2.4.9-.8,1.7-1.7,2.5-2.6.8-.9,1.6-1.9,2.1-3,.3-.6.5-1.2.7-1.8.1-.6.1-1.3,0-1.9-.1,1.2-.8,2.1-1.5,3-.7.9-1.6,1.6-2.5,2.4l-2.7,2.2c-.9.8-1.8,1.5-2.7,2.5-.2.2-.4.5-.7.8-.1.2-.2.3-.3.6,0,.1-.1.3-.1.4v.3c-.2.8-.1,1.6.1,2.3Z" style="fill: #edbbab; stroke-width: 0px;"/>
        <path d="M209.5,645.2c-4.4,7-11.7,13.7-16.4,17.6.5.9,1,1.8,1.4,2.8,2.1,5,2.8,10.6,2.3,16l-2.3,22.9s.7-.5,1.8-2c1.2-1.6,2.9-4.4,4.8-9.1,1.6-3.8,3.3-8.8,5-15.4,3.5-13.3,4.4-24.6,3.6-32.8Z" style="fill: #562a19; stroke-width: 0px;"/>
        <path d="M213.2,634c-1.1-13.7-19.9-20.4-19.9-20.4l19.6-.8s-7.3-14.5-35.2-20.7c-9.8-2.2-18.3-3.2-25.5-3.5,2.1-.4,4.2-.7,6.3-1,5.2-.8,10.6-1.4,16.1-2.2-2.6-1.1-5.3-1.8-8.1-2.3-2.7-.5-5.5-.8-8.3-.9-5.6-.2-11.3.3-16.8,1.8-1.4.3-2.8.8-4.1,1.3-1.3.5-2.7,1-4,1.7-.3.2-.7.3-1,.5l-1,.5c-.6.4-1.3.7-1.9,1.1-.6.4-1.2.8-1.8,1.2l-1.7,1.3c-.3.2-.5.5-.8.7-10.3,3.9-13.7,9.3-13.7,9.3l6.9-18.6s-10.4,9.5-12.8,13.5c-1.8,3-4.8,13.1-4.8,13.1,0,0-10.1-1.3-16.4,19.1-3.6,11.6-1.6,32.2.7,47,.6,4,1.2,7.6,1.8,10.5.8,4.3,1.4,7,1.4,7l6.6-30.5,9.4-19.7,21.2-.2s16,12.8,21,15.9c12.9,8.1,24.9,10.5,24.9,10.5l-9.4-16.9,9.6,5.1c2,1.9,3.9,4,5.8,6.1-.3-1.2-.7-2.4-1.2-3.6l12.6,6.7s1.9-1.4,4.6-3.6c4.7-4,12-10.7,16.4-17.6,2.4-3.8,3.9-7.7,3.7-11.3Z" style="fill: #6e391f; stroke-width: 0px;"/>
        <polygon points="170.3 902.4 170.3 912.4 177.2 912.4 177.2 904.4 177.2 904.2 177.2 902.4 170.3 902.4" style="fill: #a67c52; stroke-width: 0px;"/>
        <polygon points="103.2 912.4 103.2 902.4 99.2 902.4 99.2 902.8 99.2 904.4 99.2 912.4 103.2 912.4" style="fill: #a67c52; stroke-width: 0px;"/>
        <rect x="108.1" y="902.4" width="18.8" height="10" style="fill: #a67c52; stroke-width: 0px;"/>
        <rect x="150.9" y="902.4" width="14.6" height="10" style="fill: #a67c52; stroke-width: 0px;"/>
        <polygon points="103.2 912.4 103.2 916.1 108.1 916.1 108.1 912.4 108.1 902.4 108.1 898.7 103.2 898.7 103.2 902.4 103.2 912.4" style="fill: #555; stroke-width: 0px;"/>
        <polygon points="165.4 912.4 165.4 916.1 170.3 916.1 170.3 912.4 170.3 902.4 170.3 898.7 165.4 898.7 165.4 902.4 165.4 912.4" style="fill: #555; stroke-width: 0px;"/>
        <polygon points="126.9 912.4 126.9 915.8 150.9 915.8 150.9 912.4 150.9 902.4 150.9 899.1 126.9 899.1 126.9 902.4 126.9 912.4" style="fill: #b3b3b3; stroke-width: 0px;"/>
        <path d="M129.2,718.6c.6,2.5,4.3,6.2,8.3,7.2,4.4,1.1,9.1-.9,11-2.6-3.5-.2-8.4-1.1-10-1.4-1.6-.3-6.9-1.6-9.2-3.1Z" style="fill: #edbbab; stroke-width: 0px;"/>
        <path d="M195.5,778.6c-.6-2-2.2-3.6-4.3-4.2l-32.4-8.9s-.5,1-1.5,2.4c-1.2,1.7-3.3,3.9-6.4,5.8-.8.5-1.6.9-2.5,1.3-2.8,1.2-6.1,2.1-10.3,2.1s-7.7-.8-10.5-2.1c-.3-.2-.7-.3-1-.5-3.9-1.9-6.3-4.5-7.7-6.3-1-1.3-1.4-2.2-1.4-2.2l-25.5,6.6c7.3,3.2,8.8,5.6,8.8,5.6,0,0,.4,3.4,1,8.8h0c1.8,16.6,5.2,52.5,3.4,68.9-.1,1.4-.3,2.6-.6,3.7.9,0,1.8,0,2.7-.1.1-2,.2-3.5.2-3.5,0,0,50.8-1.9,77.2-2.6l2.9-18.9,1-6.6.7-4.3,1-6.7,5.4-35.7c.1-.9,0-1.9-.2-2.7Z" style="fill: #183b59; stroke-width: 0px;"/>
        <path d="M112.1,767.4h0s-3.3.8-4.7,1.2h0c9.8,20.9,46.5,26.8,60.4-.7h0s-.2,0-.6-.2c-.1,0-.2,0-.4-.1-.4-.1-1-.3-1.5-.4-.4,0-.7-.2-1.1-.3-.2,0-.4-.1-.6-.2h0c-16.1,23.6-43.5,14.4-51.6.6Z" style="fill: #0c6ed6; stroke-width: 0px;"/>
        <path d="M104.4,757c0-.1.1-.2.2-.4l-1.7.4h1.5Z" style="fill: #edbbab; stroke-width: 0px;"/>
        <path d="M108.7,749.4c.1-.3,0-.6-.4-.8-1.4.3-2.6.6-3.2.9-.9.4-2.5,2-3.6,3.3,0,0,0,.1,0,.2l6.1-1.6c.5-.8.9-1.5,1.1-2Z" style="fill: #edbbab; stroke-width: 0px;"/>
        <path d="M99.3,748.8c.3-.3.6-.7,1-1,1.1-3.2,1.7-7.9.7-14.7-.1-.8-.3-1.7-.4-2.6-.2-1.1-1.3-1.9-2.5-1.7,0,0,0,0,0,0-1.2.2-1.9,1.4-1.7,2.5,1.8,8.9.6,13.9-.7,16.4,1.3-.8,2.5-.3,3.7,1Z" style="fill: #ffe1d9; stroke-width: 0px;"/>
        <path d="M93.1,751.5c.2-.3.3-.7.5-1-.3.3-.4.6-.5,1Z" style="fill: #ffe1d9; stroke-width: 0px;"/>
        <path d="M100.3,747.9c-.3.3-.7.7-1,1,.9,1,1.6,2.4,2.2,4,1.1-1.3,2.7-2.9,3.6-3.3.6-.3,1.8-.6,3.2-.9,2.5-.5,5.8-1,8.4-1.3.4,0,.9,0,1.2-.1,1.2-.1,2-1.2,1.9-2.3-.1-1.2-1.2-2-2.3-1.9-.5,0-3.2.3-6.1.8-3.1.5-6.6,1.1-8.2,1.9-1,.5-2,1.3-3,2.2Z" style="fill: #ffe1d9; stroke-width: 0px;"/>
        <path d="M104.6,756.6l4.3-1.1c1.3.4,4.4,1.4,6.3,1.7,1.2.2,2.2-.6,2.4-1.8.2-1.2-.6-2.2-1.8-2.4-1.7-.2-5.1-1.3-6.2-1.7-.4-.1-.8-.1-1.2,0l-.9.2-6.1,1.6c.4,1.3.7,2.7.8,4.1h.5s1.7-.5,1.7-.5Z" style="fill: #ffe1d9; stroke-width: 0px;"/>
        <path d="M111.8,763.4c.3.2.7.3,1.1.3.7,0,1.4-.4,1.8-1,.6-1,.3-2.3-.7-2.9l-4.4-2.7c-.4-.2-.8-.3-1.2-.3l-3.9.2h-1.5c0,0-.5.1-.5.1.1,1.6,0,3.1-.5,4.3l6-.4,3.9,2.4Z" style="fill: #ffe1d9; stroke-width: 0px;"/>
        <path d="M101.6,762.1c.1-.2.2-.4.3-.7.5-1.2.6-2.7.5-4.3-.1-1.4-.4-2.8-.8-4.1,0,0,0-.1,0-.2-.6-1.6-1.3-3-2.2-4-1.1-1.3-2.4-1.8-3.7-1-.6.4-1.2,1.1-1.8,2.2,0,.2-.2.3-.3.5-.2.3-.3.6-.5,1-3.3,6.1-7.6,13.5-9,18.2,3.1,1,5.6,2,7.7,2.9,4-2.4,7.8-6.8,9.8-10.5Z" style="fill: #ffe1d9; stroke-width: 0px;"/>
        <path d="M90.3,876.9c.1,0,.3.2.4.2l2.3-2.7-2.7,2.5Z" style="fill: #ffe1d9; stroke-width: 0px;"/>
        <path d="M107.2,869.4c-.1-3.1,0-7,.2-9.9-.9,0-1.9,0-2.7.1-.5,2.2-1.1,3.8-1.9,4.5-5.6,4.7-9.1,6.2-13.4,4.2,0,.3-.1.5-.3.8.6-.2,1.2-.1,1.7.3.6.6.6,1.6,0,2.2l-2.7,2.6c0,.1.1.2.2.4l4.4-4c.6-.6,1.6-.5,2.2,0,.3.3.4.7.4,1.2.6-.7,1.5-.7,2.2-.2.7.6.7,1.5.2,2.2l-3.1,3.7c.3,0,.5,0,.8-.2,1.4-.3,3.1-.9,5.1-1.9,3.7-1.7,5.2-4.4,6.8-6.1Z" style="fill: #ffe1d9; stroke-width: 0px;"/>
        <path d="M82.7,875.1l.8-.7h0c0,0,.8-.9.8-.9l4.2-4.1c.1-.1.3-.3.5-.3.2-.2.3-.5.3-.8-.8-.4-1.6-.8-2.5-1.4,0,0,0,0-.1,0l-5.6,5.2c-.1.1-.2.2-.3.4l-3,5.4c-.4.8-.1,1.7.6,2.1.2.1.5.2.7.2.5,0,1.1-.3,1.4-.8l.9-1.6.8-2.2c0-.2.2-.4.4-.6Z" style="fill: #ffe1d9; stroke-width: 0px;"/>
        <path d="M90.7,869.4c-.5-.5-1.1-.6-1.7-.3-.2,0-.4.2-.5.3l-4.2,4.1-.9.9-.8.7c-.2.2-.3.4-.4.6l-.8,2.2-1,2.8c-.3.8.1,1.7.9,2,.2,0,.4,0,.5,0,.6,0,1.2-.4,1.5-1l1.7-4.7,2.9-2.8,2.7-2.6c.6-.6.6-1.6,0-2.2Z" style="fill: #ffe1d9; stroke-width: 0px;"/>
        <path d="M95.2,871.8s0,0,0,0c0-.4-.1-.8-.4-1.2-.6-.6-1.6-.7-2.2,0l-4.4,4-2.3,2.1c-.2.2-.3.4-.4.6l-1.9,4.8c-.3.8,0,1.7.9,2,.2,0,.4.1.6.1.6,0,1.2-.4,1.4-1l1.8-4.5,2.1-1.9,2.7-2.5,2.2-2.6Z" style="fill: #ffe1d9; stroke-width: 0px;"/>
        <path d="M97.6,873.8c.6-.7.5-1.6-.2-2.2-.7-.6-1.6-.5-2.2.2,0,0,0,0,0,0l-2.2,2.6-2.3,2.7-.7.8c-.2.2-.3.5-.3.8l-.7,4.9c-.1.8.5,1.6,1.3,1.8,0,0,.2,0,.2,0,.8,0,1.4-.6,1.5-1.3l.7-4.5,1.8-2.1,3.1-3.7Z" style="fill: #ffe1d9; stroke-width: 0px;"/>
        <path d="M201.2,879.8c9.1-12.6-.7-27-.7-27-1-.1-7.2.1-15.5.4-26.4.7-77.2,2.9-77.2,2.9,0,0-.1,1.4-.2,3.5-.2,2.8-.3,6.8-.2,9.9,0,.4,0,.9,0,1.3.2,3.3,1.3,13.1,1.3,13.1,0,0,43.8,4.5,71.4,2.2,8.4-.7,15.3-2,19-4.3,1-.6,1.7-1.2,2.2-1.9Z" style="fill: #183b59; stroke-width: 0px;"/>
        <path d="M101.8,787h0c-.6-5.4-1-8.8-1-8.8,0,0-1.5-2.4-8.8-5.6,0,0-.1,0-.2,0-2.1-.9-4.6-1.9-7.7-2.9-2.3-.8-5-1.5-8-2.3,0,0-12.4,79.7,7.7,97.1,1.1.9,2.1,1.7,3.1,2.4.9.6,1.7,1.1,2.5,1.4,4.3,2,7.8.5,13.4-4.2.8-.7,1.5-2.3,1.9-4.5.2-1.1.4-2.3.6-3.7,1.8-16.5-1.6-52.3-3.4-68.9Z" style="fill: #183b59; stroke-width: 0px;"/>
        <path d="M109,859.7c20.1,1.7,56.3,2.4,68.9-3.4-16.5-1.8-52.3,1.6-68.9,3.4Z" style="fill: #1d4766; stroke-width: 0px;"/>
        <path d="M101.6,786.8c-1.7,20.1-2.4,56.3,3.4,68.9,1.8-16.5-1.6-52.3-3.4-68.9Z" style="fill: #1d4766; stroke-width: 0px;"/>
        <path d="M120.1,597.9c-1.6,2.4-2.7,5.1-3.3,7.8,1.9-2.1,3.8-3.9,5.8-5.6,2-1.6,4.2-3,6.4-4.2,2.2-1.2,4.5-2.2,6.9-3.1,2.4-.9,4.8-1.6,7.3-2.3,2.9-.8,5.9-1.4,9-2,2.1-.4,4.2-.7,6.3-1,5.2-.8,10.6-1.4,16.1-2.2-2.6-1.1-5.3-1.8-8.1-2.3-2.7-.5-5.5-.8-8.3-.9-5.6-.2-11.3.3-16.8,1.8-1.4.3-2.8.8-4.1,1.3-1.3.5-2.7,1-4,1.7-.3.2-.7.3-1,.5l-1,.5c-.6.4-1.3.7-1.9,1.1-.6.4-1.2.8-1.8,1.2l-1.7,1.3c-.3.2-.5.5-.8.7-1.9,1.7-3.6,3.6-5,5.7Z" style="fill: #7f3e25; stroke-width: 0px;"/>
        <path d="M149.7,601.4c6.1-1.4,12.4-2.2,18.8-2.8,6.4-.6,12.8-.8,19.5-.9-1.5-.7-3.1-1.3-4.7-1.8-1.6-.5-3.2-.9-4.9-1.3-3.3-.7-6.6-1.2-10-1.4-6.7-.4-13.6,0-20.2,1.5-6.6,1.5-13.1,3.9-19,7.5l-1.1.7-1.1.7c-.7.5-1.4.9-2.1,1.4-1.3,1.1-2.7,2.1-3.9,3.2-.6.6-1.3,1.1-1.8,1.7-.6.6-1.2,1.2-1.7,1.8-.3.3-.6.6-.8.9l-.8,1c-.5.7-1,1.3-1.5,2,5.8-3.3,11.4-6.4,17.3-8.7,5.9-2.4,11.9-4.2,18-5.6Z" style="fill: #7f3e25; stroke-width: 0px;"/>
        <path d="M133.8,623.1c6.8-.7,13.7-.9,20.4-.3,3.4.3,6.8.7,10.1,1.3,3.4.6,6.7,1.4,10,2.3,3.3.9,6.6,1.9,9.9,3.1,3.3,1.2,6.6,2.5,9.9,3.9-1.2-1.4-2.6-2.6-4-3.7-1.4-1.1-2.9-2.2-4.4-3.2-3-2-6.3-3.7-9.7-5.2-3.4-1.5-6.9-2.6-10.5-3.5-3.6-.9-7.2-1.5-10.9-1.8-7.4-.6-14.9,0-22,1.8-7.1,1.9-13.9,4.9-19.8,9.1,7.1-1.6,13.9-3,20.7-3.8Z" style="fill: #7f3e25; stroke-width: 0px;"/>
        <path d="M173.7,655c-1.5-2.7-3.2-5.2-5.2-7.6-3.9-4.7-8.8-8.9-14.3-11.8-2.8-1.5-5.7-2.6-8.8-3.5-.8-.2-1.5-.4-2.3-.5-.4,0-.8-.2-1.2-.2l-1.2-.2c-.8,0-1.5-.3-2.3-.3h-2.3c-3.1-.2-6.2,0-9.2.7-3,.6-5.9,1.7-8.6,3,6.1,0,11.8.4,17.2,1.5,2.7.6,5.4,1.3,8,2.2,2.6.9,5.1,2.1,7.5,3.3,4.8,2.6,9.4,5.8,13.7,9.5,2.3,1.9,4.5,4,6.6,6.1,2,1.9,3.9,4,5.8,6.1-.3-1.2-.7-2.4-1.2-3.6,0-.2-.2-.5-.3-.7-.6-1.4-1.3-2.8-2-4.1Z" style="fill: #7f3e25; stroke-width: 0px;"/>
      </g>
      <g>
        <path d="M242.3,638.6c-.2,0-.4,0-.6,0-7.7-.4-13.7-6.9-13.4-14.6.3-7.5,6.5-13.4,14-13.4s.4,0,.6,0c7.7.4,13.7,6.9,13.4,14.6-.3,7.5-6.5,13.4-14,13.4Z" style="fill: #b2ebfa; stroke-width: 0px;"/>
        <path d="M242.3,610.8h0c.2,0,.4,0,.6,0,7.6.3,13.5,6.8,13.1,14.4-.3,7.4-6.4,13.2-13.8,13.2s-.4,0-.6,0c-7.6-.3-13.5-6.8-13.1-14.4.3-7.4,6.4-13.2,13.8-13.2M242.3,610.3c-7.6,0-13.9,6-14.3,13.6-.4,7.9,5.7,14.6,13.6,14.9.2,0,.4,0,.7,0,7.6,0,13.9-6,14.3-13.6.4-7.9-5.7-14.6-13.6-14.9-.2,0-.4,0-.7,0h0Z" style="fill: #0be; stroke-width: 0px;"/>
      </g>
      <g>
        <path d="M300.3,615.4c-.4,0-.9,0-1.3,0-15.8-.7-28.1-14.2-27.4-30,.7-15.4,13.3-27.4,28.6-27.4s.9,0,1.3,0c15.8.7,28.1,14.2,27.4,30-.7,15.4-13.3,27.4-28.6,27.4Z" style="fill: #bfeefb; stroke-width: 0px;"/>
        <path d="M300.3,557.8v.5c.4,0,.9,0,1.3,0,7.6.3,14.6,3.6,19.7,9.2,5.1,5.6,7.8,12.9,7.4,20.5-.7,15.2-13.2,27.2-28.4,27.2s-.9,0-1.3,0c-15.7-.7-27.8-14-27.1-29.7.7-15.2,13.2-27.2,28.4-27.2v-.5M300.3,557.8c-15.4,0-28.2,12.1-28.9,27.6-.7,16,11.6,29.5,27.6,30.2.4,0,.9,0,1.3,0,15.4,0,28.2-12.1,28.9-27.6.7-16-11.6-29.5-27.6-30.2-.4,0-.9,0-1.3,0h0Z" style="fill: #0be; stroke-width: 0px;"/>
      </g>
      <g>
        <path d="M375.2,552c-.6,0-1.2,0-1.8,0-22.1-1-39.2-19.8-38.2-41.9,1-21.5,18.5-38.3,40-38.3s1.2,0,1.8,0c22.1,1,39.2,19.8,38.2,41.9-1,21.5-18.5,38.3-40,38.3Z" style="fill: #ccf1fc; stroke-width: 0px;"/>
        <path d="M375.2,472.1h0c.6,0,1.2,0,1.8,0,21.9,1,39,19.7,38,41.6-1,21.3-18.4,38-39.8,38s-1.2,0-1.8,0c-10.6-.5-20.4-5.1-27.6-12.9-7.2-7.9-10.9-18-10.4-28.7,1-21.3,18.4-38,39.8-38M375.2,471.6c-21.4,0-39.3,16.9-40.3,38.5-1,22.3,16.2,41.1,38.5,42.1.6,0,1.2,0,1.9,0,21.4,0,39.3-16.9,40.3-38.5,1-22.3-16.2-41.1-38.5-42.1-.6,0-1.2,0-1.9,0h0Z" style="fill: #0be; stroke-width: 0px;"/>
      </g>
      <path d="M717.2,249.1c66.4,69.8,32.8,147.7-53.7,153.1,1.1,111.5-115.8,126.6-163.9,49-40.2,37.7-81.9,29.3-103.5-18.9-46.8,54.7-135.2,16.4-131.2-60.9-49.2,4.8-65.7-50.5-36-95.8-68-66-32.9-211.1,113.2-174.3,2.2-56.3,72.5-90.9,121.4-37,62.6-76.6,196.9-21.4,172.4,75.3,92.6-26.4,133.8,42.9,81.4,109.5Z" style="fill: #d9f5fc; stroke: #0be; stroke-miterlimit: 10; stroke-width: .5px;"/>
      <g>
        <path d="M407.2,191.5c4.6-2.9,15.4-10.4,24-21.8-.5-.9-.6-2-.2-3.1.8-2-.2-4.1-2.2-4.9l-16.9-6.5c-2-.8-4.1.2-4.9,2.2-.8,2-2.9,2.9-4.9,2.2l-4.7-1.8c.7,9.4,2.3,22.9,5.5,32.9l4.3.9Z" style="fill: none; stroke-width: 0px;"/>
        <path d="M351.1,396.5c-18.5,0-33.6-15-33.6-33.6s15-33.6,33.6-33.6,1.1,0,1.6,0c-1.6-2.1-3.5-3.7-5.5-4.7-3.8-2-8-1.6-11-.8-10.4,2.7-18.5,11.4-23.3,22h0c-.8,1.8-2.5,2.9-4.3,3.1-1.5,4.4-2.2,9.1-2.2,14,0,24.7,20,44.7,44.7,44.7s41.3-16.8,44.3-38.6h-11.2c-2.8,15.7-16.5,27.5-33,27.5Z" style="fill: #2a2b2a; stroke-width: 0px;"/>
        <path d="M351.1,391.5c-15.8,0-28.5-12.8-28.5-28.5s12.8-28.5,28.5-28.5,3.2.1,4.8.4c-.8-2-1.9-3.8-3.1-5.4-.5,0-1.1,0-1.6,0-18.5,0-33.6,15-33.6,33.6s15,33.6,33.6,33.6,30.2-11.9,33-27.5h-5.1c-2.8,12.9-14.2,22.5-27.9,22.5Z" style="fill: #212221; stroke-width: 0px;"/>
        <path d="M351.1,381.8c-10.4,0-18.9-8.4-18.9-18.9s8.4-18.9,18.9-18.9,4.5.4,6.5,1.2c.2-3.8-.5-7.3-1.8-10.5-1.6-.3-3.1-.4-4.8-.4-15.8,0-28.5,12.8-28.5,28.5s12.8,28.5,28.5,28.5,25.1-9.6,27.9-22.5h-10c-2.5,7.5-9.6,12.8-17.9,12.8Z" style="fill: #727272; stroke-width: 0px;"/>
        <path d="M343,363c0-4.4,3.6-8.1,8.1-8.1s2.5.3,3.6.8c1.9-3.5,2.8-7.1,3-10.5-2-.8-4.2-1.2-6.5-1.2-10.4,0-18.9,8.4-18.9,18.9s8.4,18.9,18.9,18.9,15.3-5.4,17.9-12.8h-12.6c-1.4,1.2-3.3,2-5.3,2-4.4,0-8.1-3.6-8.1-8.1Z" style="fill: #353535; stroke-width: 0px;"/>
        <path d="M351.1,354.9c-4.4,0-8.1,3.6-8.1,8.1s3.6,8.1,8.1,8.1,3.9-.8,5.3-2h-5.6c-3.3,0-6-2.7-6-6s2.7-6,6-6h3.1c.3-.4.5-.9.7-1.3-1.1-.5-2.3-.8-3.6-.8Z" style="fill: #444445; stroke-width: 0px;"/>
        <path d="M313,345.9h0c4.7-10.6,12.9-19.3,23.3-22,3-.8,7.2-1.2,11,.8,2,1,3.9,2.7,5.5,4.7,1.2,1.6,2.3,3.4,3.1,5.4,1.3,3.1,2,6.7,1.8,10.5-.2,3.4-1.1,7-3,10.5-.2.4-.5.9-.7,1.3h2.3c0,0,0-.2,0-.3,0-2.4,1.9-4.3,4.3-4.3h36.7c-3.2-14-12.6-26.3-26.7-32.6-23.8-10.6-51.7,0-62.3,23.8-.7,1.6-1.4,3.3-1.9,5,.8.3,1.6.4,2.4.3,1.8-.2,3.5-1.3,4.3-3.1Z" style="fill: #ff5a5a; stroke-width: 0px;"/>
        <path d="M360.4,352.5c-2.4,0-4.3,1.9-4.3,4.3s0,.2,0,.3h190.3l26.8-48.7c0,0-.2-.1-.3-.2-2.1-1.1-4.7-.4-5.8,1.7l-23.2,42.6h-183.5Z" style="fill: #ff5a5a; stroke-width: 0px;"/>
        <path d="M655.1,345.9c-1.7-.2-3.2-1.2-4-2.8-3.5-6.8-8.7-12.4-15.1-16.4-6.4-4-14-6.3-22.1-6.3-.9,0-1.9,0-2.8.1l2.1,8.9c.2,0,.5,0,.7,0,18.5,0,33.6,15,33.6,33.6s-15,33.6-33.6,33.6-33.6-15-33.6-33.6,8-25.2,19.6-30.5l-2-8.9c-5.1,2.1-9.6,5.2-13.4,9-7.6,7.6-12.2,18-12.2,29.6,0,2-1.1,3.7-2.8,4.6,2,22.9,21.1,40.8,44.5,40.8s44.7-20,44.7-44.7-1.2-11.8-3.4-17Z" style="fill: #2a2b2a; stroke-width: 0px;"/>
        <path d="M611.1,320.5c.9,0,1.9-.1,2.8-.1,8.1,0,15.7,2.3,22.1,6.3,6.4,4,11.7,9.7,15.1,16.4.8,1.6,2.4,2.6,4,2.8,1,.1,1.9,0,2.9-.4-6.7-17.8-23.9-30.5-44.1-30.5s-2.7,0-4,.2l1.2,5.3Z" style="fill: #ff5a5a; stroke-width: 0px;"/>
        <path d="M572.1,362.2c0-11.6,4.7-22,12.2-29.6,3.8-3.8,8.4-6.9,13.4-9l-1.2-5.3c-17.5,6.9-29.8,23.9-29.8,43.9s.1,3.6.3,5.3c.8,0,1.6-.3,2.3-.7,1.6-.9,2.8-2.6,2.8-4.6Z" style="fill: #ff5a5a; stroke-width: 0px;"/>
        <path d="M642.4,363c0,15.8-12.8,28.5-28.5,28.5s-28.5-12.8-28.5-28.5,6.4-20.8,15.7-25.5l-1.2-5c-11.5,5.3-19.6,17-19.6,30.5s15,33.6,33.6,33.6,33.6-15,33.6-33.6-15-33.6-33.6-33.6-.5,0-.7,0l1.2,5c15.6.2,28.1,12.9,28.1,28.5Z" style="fill: #212221; stroke-width: 0px;"/>
        <path d="M585.3,363c0,15.8,12.8,28.5,28.5,28.5s28.5-12.8,28.5-28.5-12.5-28.3-28.1-28.5l2.3,9.9c9.1,1.3,16.1,9.2,16.1,18.7s-8.4,18.9-18.9,18.9-18.9-8.4-18.9-18.9,3.3-12.2,8.3-15.6l-2.3-9.9c-9.3,4.7-15.7,14.3-15.7,25.5Z" style="fill: #727272; stroke-width: 0px;"/>
        <path d="M594.9,363c0,10.4,8.4,18.9,18.9,18.9s18.9-8.4,18.9-18.9-7-17.3-16.1-18.7l2.6,11.3c2.3,1.6,3.7,4.3,3.7,7.3,0,5-4.1,9.1-9.1,9.1s-9.1-4.1-9.1-9.1.4-3,1.1-4.3l-2.6-11.4c-5,3.4-8.3,9.1-8.3,15.6Z" style="fill: #353535; stroke-width: 0px;"/>
        <path d="M613.8,372c5,0,9.1-4.1,9.1-9.1s-1.5-5.7-3.7-7.3l1.3,5.8c.8,3.7-1.5,7.3-5.1,8.2-3.7.8-7.3-1.5-8.2-5.1l-1.3-5.8c-.7,1.3-1.1,2.7-1.1,4.3,0,5,4.1,9.1,9.1,9.1Z" style="fill: #444445; stroke-width: 0px;"/>
        <path d="M560.3,102.3l7.5-6.4c-3.3-.5-6.3-2.5-8-5.4l-12.3,11.2,14.2,62,12.1-2.8-13.5-58.7Z" style="fill: #666; stroke-width: 0px;"/>
        <polygon points="601.7 270.8 576.3 160.4 573.8 160.9 561.7 163.7 559.2 164.3 584.6 274.7 601.7 270.8" style="fill: #212221; stroke-width: 0px;"/>
        <path d="M589,279.7c1.6-2.9,5.2-3.9,8.1-2.4s3.9,5.2,2.4,8.1l-5.3,9.7c.9-1.1,2.2-1.8,3.6-2.2,3.7-.8,7.3,1.5,8.2,5.1l3.1,13.7c2.6-.8,4.1-3.4,3.5-6.1l-8.1-35.7-2.8.6-17.1,3.9-2.7.6,2.8,12.3,4.4-7.9Z" style="fill: #212221; stroke-width: 0px;"/>
        <path d="M592.6,301.2c-.3-1.2-.2-2.4.1-3.5l-4.1,7.4,1.3,5.8c.6,2.6,3.1,4.3,5.8,3.9l-3.1-13.7Z" style="fill: #212221; stroke-width: 0px;"/>
        <path d="M567.8,95.9c1.3.2,2.7.2,4-.2,5.9-1.4,9.6-7.3,8.3-13.2s-7.3-9.6-13.2-8.3c-5.9,1.4-9.6,7.3-8.3,13.2.2,1.1.7,2.1,1.2,3,1.7,2.9,4.6,4.9,8,5.4ZM562.8,86.5c-.8-3.6,1.4-7.2,5-8.1,3.6-.8,7.2,1.4,8.1,5,.8,3.6-1.4,7.2-5,8.1-3.6.8-7.2-1.4-8.1-5Z" style="fill: #212221; stroke-width: 0px;"/>
        <path d="M570.9,91.6c3.6-.8,5.9-4.4,5-8.1-.8-3.6-4.4-5.9-8.1-5-3.6.8-5.9,4.4-5,8.1.8,3.6,4.4,5.9,8.1,5Z" style="fill: #ff5a5a; stroke-width: 0px;"/>
        <path d="M597.8,323.6l2,8.9,1.2,5,2.3,9.9,2.6,11.4,1.3,5.8c.8,3.7,4.5,6,8.2,5.1,3.7-.8,6-4.5,5.1-8.2l-1.3-5.8-2.6-11.3-2.3-9.9-1.2-5-2.1-8.9-1.2-5.3-.8-3.3-3.1-13.7c-.8-3.7-4.5-6-8.2-5.1-1.5.3-2.7,1.1-3.6,2.2l-1.4,2.5c-.3,1.1-.4,2.3-.1,3.5l3.1,13.7.8,3.4,1.2,5.3Z" style="fill: #212221; stroke-width: 0px;"/>
        <path d="M592.7,297.8l1.4-2.5,5.3-9.7c1.6-2.9.5-6.5-2.4-8.1s-6.5-.5-8.1,2.4l-4.4,7.9-11.4,20.7-26.8,48.7h-195.7c-3.3,0-6,2.7-6,6s2.7,6,6,6h202.8l35.1-63.8,4.1-7.4Z" style="fill: #212221; stroke-width: 0px;"/>
        <path d="M394.7,192.7c-3.9-12.4-5.4-28.8-6-38.4l-4.1-1.6c.6,10.4,2.4,30.2,7.4,43.2l.7,1.7-.2-4,2.1-1Z" style="fill: #555; stroke-width: 0px;"/>
        <path d="M407.2,191.5l1.4.3h0s2.6.5,2.6.5h0c4.4-2.8,14.5-9.8,23-20.4l-.9-.4c-.9-.4-1.6-1-2-1.8-8.6,11.3-19.4,18.9-24,21.8Z" style="fill: #555; stroke-width: 0px;"/>
        <path d="M395.2,194.2h0c-.2-.5-.3-1-.5-1.5l-2.1,1,.2,4,.2,3.7,2.2.9c.1-.1.3-.2.4-.4l-.3-7.7Z" style="fill: #e13; stroke-width: 0px;"/>
        <polygon points="407.2 191.5 403 190.6 403 190.6 408.6 191.8 408.6 191.8 407.2 191.5" style="fill: #e13; stroke-width: 0px;"/>
        <path d="M385.5,205.9c1-2,1.4-4.3,1.4-4.3,0,0-1.9-.8-5-.7-7,2.2-17.3,10.2-15.7,12.8,2.3,0,4.6-.2,6.9-.6,2.8-2.7,8.3-5.5,12.4-7.3Z" style="fill: #555; stroke-width: 0px;"/>
        <path d="M434.2,171.9c-8.4,10.6-18.5,17.6-23,20.4l2.4,8.5c3.3-1.9,17.7-10.7,28.8-25.7l-8.3-3.2Z" style="fill: #74777b; stroke-width: 0px;"/>
        <path d="M395.2,194.2l7.8-3.6h0c-3.2-10-4.7-23.4-5.5-32.9l-8.8-3.4c.6,9.5,2.1,26,6,38.4.2.5.3,1,.5,1.5Z" style="fill: #74777b; stroke-width: 0px;"/>
        <path d="M395.5,201.9h0c-.1.1-.3.2-.4.4-5.3,4.5-13.4,9.2-22,10.9-2.3.4-4.6.7-6.9.6,0,0,.1,1.9,2.3,2.3,3.6.7,6.4,1.3,9.7,2,3.2.7,7.8,0,10.6-1.4,6.2-3.2,11.5-7.2,15.2-11.1l-8.5-3.6Z" style="fill: #74777b; stroke-width: 0px;"/>
        <path d="M353.7,140.8l30.9,12,4.1,1.6,8.8,3.4,4.7,1.8c2,.8,4.1-.2,4.9-2.2.8-2,2.9-2.9,4.9-2.2l16.9,6.5c2,.8,2.9,2.9,2.2,4.9-.4,1-.3,2.1.2,3.1.4.8,1.1,1.5,2,1.8l.9.4,8.3,3.2,15.3,5.9c2.4.9,5.2,0,6.4-2.3,3.3-6,5.6-12.7,6.8-19.8,5-31.1-14.8-61.4-45.3-69.2-32.4-8.3-64.7,10.5-74.2,41.4-.2.8-.6,2.2-.9,3.6-.6,2.5.8,5.1,3.2,6ZM442.7,144c-.2,1.1-.8,2-1.5,2.7-1.1,1.1-2.8,1.6-4.4,1.2-2.7-.6-4.4-3.2-3.9-5.9,0,0,0-.1,0-.2.7-2.6,3.2-4.2,5.8-3.7,2.7.6,4.4,3.2,3.9,5.9ZM428.6,124.3c0,0,0-.1,0-.2.7-2.6,3.2-4.2,5.8-3.7,2.7.6,4.4,3.2,3.9,5.9-.2,1.1-.8,2-1.5,2.7-1.1,1.1-2.8,1.6-4.4,1.2-2.7-.6-4.4-3.2-3.9-5.9ZM413.4,133.9c0,0,0-.1,0-.2.7-2.6,3.2-4.2,5.8-3.7,2.7.6,4.4,3.2,3.9,5.9-.2,1.1-.8,2-1.5,2.7-1.1,1.1-2.8,1.6-4.4,1.2-2.7-.6-4.4-3.2-3.9-5.9ZM382.1,97.1c9.5-4.8,19.2-5,21.5-.5,2.3,4.6-3.6,12.2-13.1,17-9.5,4.8-19.2,5-21.5.5-2.3-4.6,3.6-12.2,13.1-17Z" style="fill: #ff5a5a; stroke-width: 0px;"/>
        <path d="M411.2,192.3h0s-2.6-.5-2.6-.5l-5.7-1.2h0s-7.8,3.6-7.8,3.6h0s.3,7.7.3,7.7h0s8.5,3.6,8.5,3.6h0s6-1.5,9.7-4.7h0s-2.4-8.5-2.4-8.5Z" style="fill: #ff5a5a; stroke-width: 0px;"/>
        <path d="M390.5,113.7c9.5-4.8,15.4-12.5,13.1-17-2.3-4.6-11.9-4.4-21.5.5-9.5,4.8-15.4,12.5-13.1,17,2.3,4.6,11.9,4.4,21.5-.5Z" style="fill: #ff5a5a; stroke-width: 0px;"/>
        <path d="M390.5,113.7c9.5-4.8,15.4-12.5,13.1-17-2.3-4.6-11.9-4.4-21.5.5-9.5,4.8-15.4,12.5-13.1,17,2.3,4.6,11.9,4.4,21.5-.5Z" style="fill: #fff; mix-blend-mode: overlay; opacity: .3; stroke-width: 0px;"/>
        <path d="M433,122.8c2.7.6,4.4,3.2,3.9,5.9,0,0,0,.1,0,.2.7-.7,1.3-1.6,1.5-2.7.6-2.7-1.2-5.4-3.9-5.9-2.6-.5-5.2,1.1-5.8,3.7,1.1-1.1,2.8-1.6,4.4-1.2Z" style="fill: #e13; stroke-width: 0px;"/>
        <path d="M432.5,130.2c1.6.3,3.2-.2,4.4-1.2,0,0,0-.1,0-.2.6-2.7-1.2-5.4-3.9-5.9-1.6-.3-3.2.2-4.4,1.2,0,0,0,.1,0,.2-.6,2.7,1.2,5.4,3.9,5.9Z" style="fill: #383838; stroke-width: 0px;"/>
        <path d="M417.9,132.5c2.7.6,4.4,3.2,3.9,5.9,0,0,0,.1,0,.2.7-.7,1.3-1.6,1.5-2.7.6-2.7-1.2-5.4-3.9-5.9-2.6-.5-5.2,1.1-5.8,3.7,1.1-1.1,2.8-1.6,4.4-1.2Z" style="fill: #e13; stroke-width: 0px;"/>
        <path d="M417.3,139.8c1.6.3,3.2-.2,4.4-1.2,0,0,0-.1,0-.2.6-2.7-1.2-5.4-3.9-5.9-1.6-.3-3.2.2-4.4,1.2,0,0,0,.1,0,.2-.6,2.7,1.2,5.4,3.9,5.9Z" style="fill: #383838; stroke-width: 0px;"/>
        <path d="M432.9,141.7c1.1-1.1,2.8-1.6,4.4-1.2,2.7.6,4.4,3.2,3.9,5.9,0,0,0,.1,0,.2.7-.7,1.3-1.6,1.5-2.7.6-2.7-1.2-5.4-3.9-5.9-2.6-.5-5.2,1.1-5.8,3.7Z" style="fill: #e13; stroke-width: 0px;"/>
        <path d="M437.3,140.5c-1.6-.3-3.2.2-4.4,1.2,0,0,0,.1,0,.2-.6,2.7,1.2,5.4,3.9,5.9,1.6.3,3.2-.2,4.4-1.2,0,0,0-.1,0-.2.6-2.7-1.2-5.4-3.9-5.9Z" style="fill: #383838; stroke-width: 0px;"/>
        <path d="M428.6,216.9c3-.3,6.9-.3,10.6-.2,0-2.8-.1-5.8,0-6.5,0-.3,0-.5.1-.8-3.7,1.2-13.9,4.6-19.7,7.6-.5,1.5,0,5.9,1.3,6.6l6.2-.4c-.6-1.4.5-5.1,1.4-6.3Z" style="fill: #383838; stroke-width: 0px;"/>
        <path d="M458.4,207.5c-1-3-3.7-5.6-4.1-5.5-.3,0-10.2,2.8-13.3,5.1-.8.6-1.5,1.4-1.7,2.4,0,.3-.1.5-.1.8,0,.7,0,3.8,0,6.5.5,0,.9,0,1.4,0-.2-3.7.2-8,1.4-8.7,1.8-1,8.1-3.1,9.9-2.9-1,.7-7.6,2.3-8.8,5.9-.6,1.6-1,3.9-1.4,5.8,3.3.1,6.3.3,8,.5.6-.8,1.5-1.3,2.5-1.6,1.4-.3,3.8-.4,6.2-.3.4-3.3.5-6.5,0-8Z" style="fill: #ff5a5a; stroke-width: 0px;"/>
        <path d="M443.1,211c1.2-3.6,7.8-5.2,8.8-5.9-1.8-.2-8.1,1.9-9.9,2.9-1.3.7-1.6,5-1.4,8.7.4,0,.8,0,1.1,0,.3-1.9.8-4.1,1.4-5.8Z" style="fill: #ff5a5a; stroke-width: 0px;"/>
        <path d="M443.1,211c1.2-3.6,7.8-5.2,8.8-5.9-1.8-.2-8.1,1.9-9.9,2.9-1.3.7-1.6,5-1.4,8.7.4,0,.8,0,1.1,0,.3-1.9.8-4.1,1.4-5.8Z" style="fill: #fff; mix-blend-mode: overlay; opacity: .3; stroke-width: 0px;"/>
        <path d="M449.3,217.9c.1-.2.3-.5.4-.7-1.7-.1-4.6-.3-8-.5-.4,0-.8,0-1.1,0-.5,0-.9,0-1.4,0-3.7-.1-7.6,0-10.6.2-.9,1.2-2,4.9-1.4,6.3,0,.1.1.2.2.3l17.8,5.8c0-.3,0-.6.2-.9.2-.7,3.5-9.4,4-10.5Z" style="fill: #383838; stroke-width: 0px;"/>
        <path d="M452.2,215.7c-1,.2-1.9.8-2.5,1.6-.2.2-.3.4-.4.7-.5,1.1-3.8,9.8-4,10.5,0,.2-.1.5-.2.9,0,.7.1,1.7,1.1,3,1.5,2,6.4,7.1,6.4,7.1,0,0,3.6-.3,6.9-2.3,3.3-2,8.4-11.3,8.6-14.4.2-3.2-1.3-6.6-1.7-6.6-.2,0-4.2-.5-8-.6-2.4,0-4.8,0-6.2.3ZM463,218c-1.2.3-7.9-.7-10.4,2.2-2.5,2.9-5.6,8.5-5.6,8.5.6-3.7,3.7-11.3,5.7-11.6,2-.3,8.6.2,10.2,1Z" style="fill: #ff5a5a; stroke-width: 0px;"/>
        <path d="M452.8,217c-2,.3-5.2,8-5.7,11.6,0,0,3.1-5.6,5.6-8.5,2.5-2.9,9.2-1.9,10.4-2.2-1.6-.9-8.2-1.3-10.2-1Z" style="fill: #ff5a5a; stroke-width: 0px;"/>
        <path d="M452.8,217c-2,.3-5.2,8-5.7,11.6,0,0,3.1-5.6,5.6-8.5,2.5-2.9,9.2-1.9,10.4-2.2-1.6-.9-8.2-1.3-10.2-1Z" style="fill: #fff; mix-blend-mode: overlay; opacity: .3; stroke-width: 0px;"/>
        <path d="M429.1,255.5c3.7-.6,7.5-1.1,8.4-1.2,1.6,0,2.3.3,2.9.8,1.4-.7,4-2,7.3-3.5-8.1-1.8-16.6-2.7-19.6-3,.1.3.2.6.3,1,.2.6.4,3.2.6,5.9Z" style="fill: #383838; stroke-width: 0px;"/>
        <path d="M420.4,256.9s4.4-.7,8.7-1.4c-.2-2.7-.4-5.2-.6-5.9-.1-.4-.2-.7-.3-1-.3-.8-.7-1.5-2-2.3-1.9-1.1-15.9-6.9-15.9-6.9-2-.9-7.5,2.9-7.6,9.4,0,6.5,3.2,18.3,5.6,21.1,2.3,2.8,7.8,5.2,9.4,4.6.6-.2,2.1-1.2,3.8-2.3-1-1.2-1.8-2.3-2.4-3.4-3.4-5.5-.7-11.7,1.4-11.9ZM408.4,251.3c-2.4,5.8,5.3,20.4,5.3,20.4,0,0-2-1.4-5.8-5.1-6-16-3.4-21.3,0-23.7,3.4-2.4,10.6,1.5,16.9,4.6-8.2-1.7-14-2-16.3,3.7Z" style="fill: #ff5a5a; stroke-width: 0px;"/>
        <path d="M407.9,243c-3.4,2.4-6,7.7,0,23.7,3.7,3.7,5.8,5.1,5.8,5.1,0,0-7.7-14.6-5.3-20.4s8.2-5.4,16.3-3.7c-6.3-3.1-13.4-7-16.9-4.6Z" style="fill: #ff5a5a; stroke-width: 0px;"/>
        <path d="M407.9,243c-3.4,2.4-6,7.7,0,23.7,3.7,3.7,5.8,5.1,5.8,5.1,0,0-7.7-14.6-5.3-20.4s8.2-5.4,16.3-3.7c-6.3-3.1-13.4-7-16.9-4.6Z" style="fill: #fff; mix-blend-mode: overlay; opacity: .3; stroke-width: 0px;"/>
        <path d="M462.7,245.9c-5.1,1.5-10.6,3.8-15,5.8-3.3,1.5-5.9,2.8-7.3,3.5.3.2.5.4.8.7,1,.9,6.2,8.1,7.6,9.8.8,1,1.3,1.7,1.5,2.6l18.1-15.1s-2.9-6.8-5.7-7.2Z" style="fill: #383838; stroke-width: 0px;"/>
        <path d="M441.2,255.8c-.3-.2-.5-.5-.8-.7-.7-.5-1.4-.9-2.9-.8-1,0-4.7.6-8.4,1.2-4.4.7-8.7,1.4-8.7,1.4-2.1.3-4.8,6.4-1.4,11.9.6,1,1.5,2.2,2.4,3.4,4.2,5,10.7,10.6,13.5,11.6,3.5,1.2,9.3.3,10.3-1.1,1-1.4,5.2-11.1,5.2-12.7,0-.7,0-1.3-.2-1.8-.2-.8-.6-1.6-1.5-2.6-1.4-1.6-6.6-8.9-7.6-9.8ZM432.8,281.1c-13.6-10.4-14.2-16.2-12.6-20,1.6-3.8,9.8-4.3,16.7-5.1-7.8,2.9-12.9,5.7-11.8,11.9,1.1,6.2,15.3,14.5,15.3,14.5,0,0-2.5,0-7.6-1.2Z" style="fill: #ff5a5a; stroke-width: 0px;"/>
        <path d="M425.1,267.9c-1.1-6.2,4-9,11.8-11.9-7,.8-15.1,1.2-16.7,5.1-1.6,3.8-1,9.7,12.6,20,5.2,1.2,7.6,1.2,7.6,1.2,0,0-14.3-8.3-15.3-14.5Z" style="fill: #ff5a5a; stroke-width: 0px;"/>
        <path d="M425.1,267.9c-1.1-6.2,4-9,11.8-11.9-7,.8-15.1,1.2-16.7,5.1-1.6,3.8-1,9.7,12.6,20,5.2,1.2,7.6,1.2,7.6,1.2,0,0-14.3-8.3-15.3-14.5Z" style="fill: #fff; mix-blend-mode: overlay; opacity: .3; stroke-width: 0px;"/>
      </g>
    </g>
  </g>
</svg>